%TF.GenerationSoftware,KiCad,Pcbnew,8.0.8*%
%TF.CreationDate,2025-03-10T01:42:14+01:00*%
%TF.ProjectId,C64-PLA,4336342d-504c-4412-9e6b-696361645f70,rev?*%
%TF.SameCoordinates,Original*%
%TF.FileFunction,Legend,Bot*%
%TF.FilePolarity,Positive*%
%FSLAX46Y46*%
G04 Gerber Fmt 4.6, Leading zero omitted, Abs format (unit mm)*
G04 Created by KiCad (PCBNEW 8.0.8) date 2025-03-10 01:42:14*
%MOMM*%
%LPD*%
G01*
G04 APERTURE LIST*
%ADD10C,0.500000*%
%ADD11C,0.150000*%
%ADD12C,0.120000*%
G04 APERTURE END LIST*
D10*
X112706500Y-70167500D02*
X112706500Y-54927500D01*
X100641500Y-54927500D02*
X100641500Y-70167500D01*
D11*
X111935904Y-74727375D02*
X111935904Y-73727375D01*
X111507333Y-74727375D02*
X111507333Y-74203565D01*
X111507333Y-74203565D02*
X111554952Y-74108327D01*
X111554952Y-74108327D02*
X111650190Y-74060708D01*
X111650190Y-74060708D02*
X111793047Y-74060708D01*
X111793047Y-74060708D02*
X111888285Y-74108327D01*
X111888285Y-74108327D02*
X111935904Y-74155946D01*
X111173999Y-74060708D02*
X110793047Y-74060708D01*
X111031142Y-73727375D02*
X111031142Y-74584517D01*
X111031142Y-74584517D02*
X110983523Y-74679756D01*
X110983523Y-74679756D02*
X110888285Y-74727375D01*
X110888285Y-74727375D02*
X110793047Y-74727375D01*
X110602570Y-74060708D02*
X110221618Y-74060708D01*
X110459713Y-73727375D02*
X110459713Y-74584517D01*
X110459713Y-74584517D02*
X110412094Y-74679756D01*
X110412094Y-74679756D02*
X110316856Y-74727375D01*
X110316856Y-74727375D02*
X110221618Y-74727375D01*
X109888284Y-74060708D02*
X109888284Y-75060708D01*
X109888284Y-74108327D02*
X109793046Y-74060708D01*
X109793046Y-74060708D02*
X109602570Y-74060708D01*
X109602570Y-74060708D02*
X109507332Y-74108327D01*
X109507332Y-74108327D02*
X109459713Y-74155946D01*
X109459713Y-74155946D02*
X109412094Y-74251184D01*
X109412094Y-74251184D02*
X109412094Y-74536898D01*
X109412094Y-74536898D02*
X109459713Y-74632136D01*
X109459713Y-74632136D02*
X109507332Y-74679756D01*
X109507332Y-74679756D02*
X109602570Y-74727375D01*
X109602570Y-74727375D02*
X109793046Y-74727375D01*
X109793046Y-74727375D02*
X109888284Y-74679756D01*
X109031141Y-74679756D02*
X108935903Y-74727375D01*
X108935903Y-74727375D02*
X108745427Y-74727375D01*
X108745427Y-74727375D02*
X108650189Y-74679756D01*
X108650189Y-74679756D02*
X108602570Y-74584517D01*
X108602570Y-74584517D02*
X108602570Y-74536898D01*
X108602570Y-74536898D02*
X108650189Y-74441660D01*
X108650189Y-74441660D02*
X108745427Y-74394041D01*
X108745427Y-74394041D02*
X108888284Y-74394041D01*
X108888284Y-74394041D02*
X108983522Y-74346422D01*
X108983522Y-74346422D02*
X109031141Y-74251184D01*
X109031141Y-74251184D02*
X109031141Y-74203565D01*
X109031141Y-74203565D02*
X108983522Y-74108327D01*
X108983522Y-74108327D02*
X108888284Y-74060708D01*
X108888284Y-74060708D02*
X108745427Y-74060708D01*
X108745427Y-74060708D02*
X108650189Y-74108327D01*
X108173998Y-74632136D02*
X108126379Y-74679756D01*
X108126379Y-74679756D02*
X108173998Y-74727375D01*
X108173998Y-74727375D02*
X108221617Y-74679756D01*
X108221617Y-74679756D02*
X108173998Y-74632136D01*
X108173998Y-74632136D02*
X108173998Y-74727375D01*
X108173998Y-74108327D02*
X108126379Y-74155946D01*
X108126379Y-74155946D02*
X108173998Y-74203565D01*
X108173998Y-74203565D02*
X108221617Y-74155946D01*
X108221617Y-74155946D02*
X108173998Y-74108327D01*
X108173998Y-74108327D02*
X108173998Y-74203565D01*
X106983523Y-73679756D02*
X107840665Y-74965470D01*
X105935904Y-73679756D02*
X106793046Y-74965470D01*
X105173999Y-74060708D02*
X105173999Y-74870232D01*
X105173999Y-74870232D02*
X105221618Y-74965470D01*
X105221618Y-74965470D02*
X105269237Y-75013089D01*
X105269237Y-75013089D02*
X105364475Y-75060708D01*
X105364475Y-75060708D02*
X105507332Y-75060708D01*
X105507332Y-75060708D02*
X105602570Y-75013089D01*
X105173999Y-74679756D02*
X105269237Y-74727375D01*
X105269237Y-74727375D02*
X105459713Y-74727375D01*
X105459713Y-74727375D02*
X105554951Y-74679756D01*
X105554951Y-74679756D02*
X105602570Y-74632136D01*
X105602570Y-74632136D02*
X105650189Y-74536898D01*
X105650189Y-74536898D02*
X105650189Y-74251184D01*
X105650189Y-74251184D02*
X105602570Y-74155946D01*
X105602570Y-74155946D02*
X105554951Y-74108327D01*
X105554951Y-74108327D02*
X105459713Y-74060708D01*
X105459713Y-74060708D02*
X105269237Y-74060708D01*
X105269237Y-74060708D02*
X105173999Y-74108327D01*
X104697808Y-74727375D02*
X104697808Y-74060708D01*
X104697808Y-73727375D02*
X104745427Y-73774994D01*
X104745427Y-73774994D02*
X104697808Y-73822613D01*
X104697808Y-73822613D02*
X104650189Y-73774994D01*
X104650189Y-73774994D02*
X104697808Y-73727375D01*
X104697808Y-73727375D02*
X104697808Y-73822613D01*
X104364475Y-74060708D02*
X103983523Y-74060708D01*
X104221618Y-73727375D02*
X104221618Y-74584517D01*
X104221618Y-74584517D02*
X104173999Y-74679756D01*
X104173999Y-74679756D02*
X104078761Y-74727375D01*
X104078761Y-74727375D02*
X103983523Y-74727375D01*
X103650189Y-74727375D02*
X103650189Y-73727375D01*
X103221618Y-74727375D02*
X103221618Y-74203565D01*
X103221618Y-74203565D02*
X103269237Y-74108327D01*
X103269237Y-74108327D02*
X103364475Y-74060708D01*
X103364475Y-74060708D02*
X103507332Y-74060708D01*
X103507332Y-74060708D02*
X103602570Y-74108327D01*
X103602570Y-74108327D02*
X103650189Y-74155946D01*
X102316856Y-74060708D02*
X102316856Y-74727375D01*
X102745427Y-74060708D02*
X102745427Y-74584517D01*
X102745427Y-74584517D02*
X102697808Y-74679756D01*
X102697808Y-74679756D02*
X102602570Y-74727375D01*
X102602570Y-74727375D02*
X102459713Y-74727375D01*
X102459713Y-74727375D02*
X102364475Y-74679756D01*
X102364475Y-74679756D02*
X102316856Y-74632136D01*
X101840665Y-74727375D02*
X101840665Y-73727375D01*
X101840665Y-74108327D02*
X101745427Y-74060708D01*
X101745427Y-74060708D02*
X101554951Y-74060708D01*
X101554951Y-74060708D02*
X101459713Y-74108327D01*
X101459713Y-74108327D02*
X101412094Y-74155946D01*
X101412094Y-74155946D02*
X101364475Y-74251184D01*
X101364475Y-74251184D02*
X101364475Y-74536898D01*
X101364475Y-74536898D02*
X101412094Y-74632136D01*
X101412094Y-74632136D02*
X101459713Y-74679756D01*
X101459713Y-74679756D02*
X101554951Y-74727375D01*
X101554951Y-74727375D02*
X101745427Y-74727375D01*
X101745427Y-74727375D02*
X101840665Y-74679756D01*
X111102570Y-76242080D02*
X111054951Y-76289700D01*
X111054951Y-76289700D02*
X111102570Y-76337319D01*
X111102570Y-76337319D02*
X111150189Y-76289700D01*
X111150189Y-76289700D02*
X111102570Y-76242080D01*
X111102570Y-76242080D02*
X111102570Y-76337319D01*
X110197809Y-76289700D02*
X110293047Y-76337319D01*
X110293047Y-76337319D02*
X110483523Y-76337319D01*
X110483523Y-76337319D02*
X110578761Y-76289700D01*
X110578761Y-76289700D02*
X110626380Y-76242080D01*
X110626380Y-76242080D02*
X110673999Y-76146842D01*
X110673999Y-76146842D02*
X110673999Y-75861128D01*
X110673999Y-75861128D02*
X110626380Y-75765890D01*
X110626380Y-75765890D02*
X110578761Y-75718271D01*
X110578761Y-75718271D02*
X110483523Y-75670652D01*
X110483523Y-75670652D02*
X110293047Y-75670652D01*
X110293047Y-75670652D02*
X110197809Y-75718271D01*
X109626380Y-76337319D02*
X109721618Y-76289700D01*
X109721618Y-76289700D02*
X109769237Y-76242080D01*
X109769237Y-76242080D02*
X109816856Y-76146842D01*
X109816856Y-76146842D02*
X109816856Y-75861128D01*
X109816856Y-75861128D02*
X109769237Y-75765890D01*
X109769237Y-75765890D02*
X109721618Y-75718271D01*
X109721618Y-75718271D02*
X109626380Y-75670652D01*
X109626380Y-75670652D02*
X109483523Y-75670652D01*
X109483523Y-75670652D02*
X109388285Y-75718271D01*
X109388285Y-75718271D02*
X109340666Y-75765890D01*
X109340666Y-75765890D02*
X109293047Y-75861128D01*
X109293047Y-75861128D02*
X109293047Y-76146842D01*
X109293047Y-76146842D02*
X109340666Y-76242080D01*
X109340666Y-76242080D02*
X109388285Y-76289700D01*
X109388285Y-76289700D02*
X109483523Y-76337319D01*
X109483523Y-76337319D02*
X109626380Y-76337319D01*
X108864475Y-76337319D02*
X108864475Y-75670652D01*
X108864475Y-75765890D02*
X108816856Y-75718271D01*
X108816856Y-75718271D02*
X108721618Y-75670652D01*
X108721618Y-75670652D02*
X108578761Y-75670652D01*
X108578761Y-75670652D02*
X108483523Y-75718271D01*
X108483523Y-75718271D02*
X108435904Y-75813509D01*
X108435904Y-75813509D02*
X108435904Y-76337319D01*
X108435904Y-75813509D02*
X108388285Y-75718271D01*
X108388285Y-75718271D02*
X108293047Y-75670652D01*
X108293047Y-75670652D02*
X108150190Y-75670652D01*
X108150190Y-75670652D02*
X108054951Y-75718271D01*
X108054951Y-75718271D02*
X108007332Y-75813509D01*
X108007332Y-75813509D02*
X108007332Y-76337319D01*
X106816857Y-75289700D02*
X107673999Y-76575414D01*
X105959714Y-75384938D02*
X106054952Y-75337319D01*
X106054952Y-75337319D02*
X106197809Y-75337319D01*
X106197809Y-75337319D02*
X106340666Y-75384938D01*
X106340666Y-75384938D02*
X106435904Y-75480176D01*
X106435904Y-75480176D02*
X106483523Y-75575414D01*
X106483523Y-75575414D02*
X106531142Y-75765890D01*
X106531142Y-75765890D02*
X106531142Y-75908747D01*
X106531142Y-75908747D02*
X106483523Y-76099223D01*
X106483523Y-76099223D02*
X106435904Y-76194461D01*
X106435904Y-76194461D02*
X106340666Y-76289700D01*
X106340666Y-76289700D02*
X106197809Y-76337319D01*
X106197809Y-76337319D02*
X106102571Y-76337319D01*
X106102571Y-76337319D02*
X105959714Y-76289700D01*
X105959714Y-76289700D02*
X105912095Y-76242080D01*
X105912095Y-76242080D02*
X105912095Y-75908747D01*
X105912095Y-75908747D02*
X106102571Y-75908747D01*
X105054952Y-75670652D02*
X105054952Y-76337319D01*
X105483523Y-75670652D02*
X105483523Y-76194461D01*
X105483523Y-76194461D02*
X105435904Y-76289700D01*
X105435904Y-76289700D02*
X105340666Y-76337319D01*
X105340666Y-76337319D02*
X105197809Y-76337319D01*
X105197809Y-76337319D02*
X105102571Y-76289700D01*
X105102571Y-76289700D02*
X105054952Y-76242080D01*
X104578761Y-76337319D02*
X104578761Y-75670652D01*
X104578761Y-75337319D02*
X104626380Y-75384938D01*
X104626380Y-75384938D02*
X104578761Y-75432557D01*
X104578761Y-75432557D02*
X104531142Y-75384938D01*
X104531142Y-75384938D02*
X104578761Y-75337319D01*
X104578761Y-75337319D02*
X104578761Y-75432557D01*
X104102571Y-76337319D02*
X104102571Y-75670652D01*
X104102571Y-75765890D02*
X104054952Y-75718271D01*
X104054952Y-75718271D02*
X103959714Y-75670652D01*
X103959714Y-75670652D02*
X103816857Y-75670652D01*
X103816857Y-75670652D02*
X103721619Y-75718271D01*
X103721619Y-75718271D02*
X103674000Y-75813509D01*
X103674000Y-75813509D02*
X103674000Y-76337319D01*
X103674000Y-75813509D02*
X103626381Y-75718271D01*
X103626381Y-75718271D02*
X103531143Y-75670652D01*
X103531143Y-75670652D02*
X103388286Y-75670652D01*
X103388286Y-75670652D02*
X103293047Y-75718271D01*
X103293047Y-75718271D02*
X103245428Y-75813509D01*
X103245428Y-75813509D02*
X103245428Y-76337319D01*
X102626381Y-76337319D02*
X102721619Y-76289700D01*
X102721619Y-76289700D02*
X102769238Y-76194461D01*
X102769238Y-76194461D02*
X102769238Y-75337319D01*
X102245428Y-76337319D02*
X102245428Y-75670652D01*
X102245428Y-75337319D02*
X102293047Y-75384938D01*
X102293047Y-75384938D02*
X102245428Y-75432557D01*
X102245428Y-75432557D02*
X102197809Y-75384938D01*
X102197809Y-75384938D02*
X102245428Y-75337319D01*
X102245428Y-75337319D02*
X102245428Y-75432557D01*
X109650190Y-76899644D02*
X110507332Y-78185358D01*
X108745428Y-77852024D02*
X108793047Y-77899644D01*
X108793047Y-77899644D02*
X108935904Y-77947263D01*
X108935904Y-77947263D02*
X109031142Y-77947263D01*
X109031142Y-77947263D02*
X109173999Y-77899644D01*
X109173999Y-77899644D02*
X109269237Y-77804405D01*
X109269237Y-77804405D02*
X109316856Y-77709167D01*
X109316856Y-77709167D02*
X109364475Y-77518691D01*
X109364475Y-77518691D02*
X109364475Y-77375834D01*
X109364475Y-77375834D02*
X109316856Y-77185358D01*
X109316856Y-77185358D02*
X109269237Y-77090120D01*
X109269237Y-77090120D02*
X109173999Y-76994882D01*
X109173999Y-76994882D02*
X109031142Y-76947263D01*
X109031142Y-76947263D02*
X108935904Y-76947263D01*
X108935904Y-76947263D02*
X108793047Y-76994882D01*
X108793047Y-76994882D02*
X108745428Y-77042501D01*
X107888285Y-76947263D02*
X108078761Y-76947263D01*
X108078761Y-76947263D02*
X108173999Y-76994882D01*
X108173999Y-76994882D02*
X108221618Y-77042501D01*
X108221618Y-77042501D02*
X108316856Y-77185358D01*
X108316856Y-77185358D02*
X108364475Y-77375834D01*
X108364475Y-77375834D02*
X108364475Y-77756786D01*
X108364475Y-77756786D02*
X108316856Y-77852024D01*
X108316856Y-77852024D02*
X108269237Y-77899644D01*
X108269237Y-77899644D02*
X108173999Y-77947263D01*
X108173999Y-77947263D02*
X107983523Y-77947263D01*
X107983523Y-77947263D02*
X107888285Y-77899644D01*
X107888285Y-77899644D02*
X107840666Y-77852024D01*
X107840666Y-77852024D02*
X107793047Y-77756786D01*
X107793047Y-77756786D02*
X107793047Y-77518691D01*
X107793047Y-77518691D02*
X107840666Y-77423453D01*
X107840666Y-77423453D02*
X107888285Y-77375834D01*
X107888285Y-77375834D02*
X107983523Y-77328215D01*
X107983523Y-77328215D02*
X108173999Y-77328215D01*
X108173999Y-77328215D02*
X108269237Y-77375834D01*
X108269237Y-77375834D02*
X108316856Y-77423453D01*
X108316856Y-77423453D02*
X108364475Y-77518691D01*
X106935904Y-77280596D02*
X106935904Y-77947263D01*
X107173999Y-76899644D02*
X107412094Y-77613929D01*
X107412094Y-77613929D02*
X106793047Y-77613929D01*
X106412094Y-77566310D02*
X105650190Y-77566310D01*
X105173999Y-77947263D02*
X105173999Y-76947263D01*
X105173999Y-76947263D02*
X104793047Y-76947263D01*
X104793047Y-76947263D02*
X104697809Y-76994882D01*
X104697809Y-76994882D02*
X104650190Y-77042501D01*
X104650190Y-77042501D02*
X104602571Y-77137739D01*
X104602571Y-77137739D02*
X104602571Y-77280596D01*
X104602571Y-77280596D02*
X104650190Y-77375834D01*
X104650190Y-77375834D02*
X104697809Y-77423453D01*
X104697809Y-77423453D02*
X104793047Y-77471072D01*
X104793047Y-77471072D02*
X105173999Y-77471072D01*
X103697809Y-77947263D02*
X104173999Y-77947263D01*
X104173999Y-77947263D02*
X104173999Y-76947263D01*
X103412094Y-77661548D02*
X102935904Y-77661548D01*
X103507332Y-77947263D02*
X103173999Y-76947263D01*
X103173999Y-76947263D02*
X102840666Y-77947263D01*
X107840666Y-62197347D02*
X107840666Y-61197347D01*
X107840666Y-61197347D02*
X107459714Y-61197347D01*
X107459714Y-61197347D02*
X107364476Y-61244966D01*
X107364476Y-61244966D02*
X107316857Y-61292585D01*
X107316857Y-61292585D02*
X107269238Y-61387823D01*
X107269238Y-61387823D02*
X107269238Y-61530680D01*
X107269238Y-61530680D02*
X107316857Y-61625918D01*
X107316857Y-61625918D02*
X107364476Y-61673537D01*
X107364476Y-61673537D02*
X107459714Y-61721156D01*
X107459714Y-61721156D02*
X107840666Y-61721156D01*
X106364476Y-62197347D02*
X106840666Y-62197347D01*
X106840666Y-62197347D02*
X106840666Y-61197347D01*
X106031142Y-62197347D02*
X106031142Y-61197347D01*
X106031142Y-61197347D02*
X105793047Y-61197347D01*
X105793047Y-61197347D02*
X105650190Y-61244966D01*
X105650190Y-61244966D02*
X105554952Y-61340204D01*
X105554952Y-61340204D02*
X105507333Y-61435442D01*
X105507333Y-61435442D02*
X105459714Y-61625918D01*
X105459714Y-61625918D02*
X105459714Y-61768775D01*
X105459714Y-61768775D02*
X105507333Y-61959251D01*
X105507333Y-61959251D02*
X105554952Y-62054489D01*
X105554952Y-62054489D02*
X105650190Y-62149728D01*
X105650190Y-62149728D02*
X105793047Y-62197347D01*
X105793047Y-62197347D02*
X106031142Y-62197347D01*
X108983523Y-63283481D02*
X108840666Y-63331100D01*
X108840666Y-63331100D02*
X108793047Y-63378719D01*
X108793047Y-63378719D02*
X108745428Y-63473957D01*
X108745428Y-63473957D02*
X108745428Y-63616814D01*
X108745428Y-63616814D02*
X108793047Y-63712052D01*
X108793047Y-63712052D02*
X108840666Y-63759672D01*
X108840666Y-63759672D02*
X108935904Y-63807291D01*
X108935904Y-63807291D02*
X109316856Y-63807291D01*
X109316856Y-63807291D02*
X109316856Y-62807291D01*
X109316856Y-62807291D02*
X108983523Y-62807291D01*
X108983523Y-62807291D02*
X108888285Y-62854910D01*
X108888285Y-62854910D02*
X108840666Y-62902529D01*
X108840666Y-62902529D02*
X108793047Y-62997767D01*
X108793047Y-62997767D02*
X108793047Y-63093005D01*
X108793047Y-63093005D02*
X108840666Y-63188243D01*
X108840666Y-63188243D02*
X108888285Y-63235862D01*
X108888285Y-63235862D02*
X108983523Y-63283481D01*
X108983523Y-63283481D02*
X109316856Y-63283481D01*
X108126380Y-62807291D02*
X107935904Y-62807291D01*
X107935904Y-62807291D02*
X107840666Y-62854910D01*
X107840666Y-62854910D02*
X107745428Y-62950148D01*
X107745428Y-62950148D02*
X107697809Y-63140624D01*
X107697809Y-63140624D02*
X107697809Y-63473957D01*
X107697809Y-63473957D02*
X107745428Y-63664433D01*
X107745428Y-63664433D02*
X107840666Y-63759672D01*
X107840666Y-63759672D02*
X107935904Y-63807291D01*
X107935904Y-63807291D02*
X108126380Y-63807291D01*
X108126380Y-63807291D02*
X108221618Y-63759672D01*
X108221618Y-63759672D02*
X108316856Y-63664433D01*
X108316856Y-63664433D02*
X108364475Y-63473957D01*
X108364475Y-63473957D02*
X108364475Y-63140624D01*
X108364475Y-63140624D02*
X108316856Y-62950148D01*
X108316856Y-62950148D02*
X108221618Y-62854910D01*
X108221618Y-62854910D02*
X108126380Y-62807291D01*
X107412094Y-62807291D02*
X106840666Y-62807291D01*
X107126380Y-63807291D02*
X107126380Y-62807291D01*
X106650189Y-62807291D02*
X106078761Y-62807291D01*
X106364475Y-63807291D02*
X106364475Y-62807291D01*
X105554951Y-62807291D02*
X105364475Y-62807291D01*
X105364475Y-62807291D02*
X105269237Y-62854910D01*
X105269237Y-62854910D02*
X105173999Y-62950148D01*
X105173999Y-62950148D02*
X105126380Y-63140624D01*
X105126380Y-63140624D02*
X105126380Y-63473957D01*
X105126380Y-63473957D02*
X105173999Y-63664433D01*
X105173999Y-63664433D02*
X105269237Y-63759672D01*
X105269237Y-63759672D02*
X105364475Y-63807291D01*
X105364475Y-63807291D02*
X105554951Y-63807291D01*
X105554951Y-63807291D02*
X105650189Y-63759672D01*
X105650189Y-63759672D02*
X105745427Y-63664433D01*
X105745427Y-63664433D02*
X105793046Y-63473957D01*
X105793046Y-63473957D02*
X105793046Y-63140624D01*
X105793046Y-63140624D02*
X105745427Y-62950148D01*
X105745427Y-62950148D02*
X105650189Y-62854910D01*
X105650189Y-62854910D02*
X105554951Y-62807291D01*
X104697808Y-63807291D02*
X104697808Y-62807291D01*
X104697808Y-62807291D02*
X104364475Y-63521576D01*
X104364475Y-63521576D02*
X104031142Y-62807291D01*
X104031142Y-62807291D02*
X104031142Y-63807291D01*
X108816857Y-48486065D02*
X109150190Y-48486065D01*
X109150190Y-49009875D02*
X109150190Y-48009875D01*
X109150190Y-48009875D02*
X108674000Y-48009875D01*
X108150190Y-49009875D02*
X108245428Y-48962256D01*
X108245428Y-48962256D02*
X108293047Y-48914636D01*
X108293047Y-48914636D02*
X108340666Y-48819398D01*
X108340666Y-48819398D02*
X108340666Y-48533684D01*
X108340666Y-48533684D02*
X108293047Y-48438446D01*
X108293047Y-48438446D02*
X108245428Y-48390827D01*
X108245428Y-48390827D02*
X108150190Y-48343208D01*
X108150190Y-48343208D02*
X108007333Y-48343208D01*
X108007333Y-48343208D02*
X107912095Y-48390827D01*
X107912095Y-48390827D02*
X107864476Y-48438446D01*
X107864476Y-48438446D02*
X107816857Y-48533684D01*
X107816857Y-48533684D02*
X107816857Y-48819398D01*
X107816857Y-48819398D02*
X107864476Y-48914636D01*
X107864476Y-48914636D02*
X107912095Y-48962256D01*
X107912095Y-48962256D02*
X108007333Y-49009875D01*
X108007333Y-49009875D02*
X108150190Y-49009875D01*
X107388285Y-49009875D02*
X107388285Y-48343208D01*
X107388285Y-48533684D02*
X107340666Y-48438446D01*
X107340666Y-48438446D02*
X107293047Y-48390827D01*
X107293047Y-48390827D02*
X107197809Y-48343208D01*
X107197809Y-48343208D02*
X107102571Y-48343208D01*
X106769237Y-49009875D02*
X106769237Y-48009875D01*
X106673999Y-48628922D02*
X106388285Y-49009875D01*
X106388285Y-48343208D02*
X106769237Y-48724160D01*
X105054951Y-49009875D02*
X105150189Y-48962256D01*
X105150189Y-48962256D02*
X105197808Y-48914636D01*
X105197808Y-48914636D02*
X105245427Y-48819398D01*
X105245427Y-48819398D02*
X105245427Y-48533684D01*
X105245427Y-48533684D02*
X105197808Y-48438446D01*
X105197808Y-48438446D02*
X105150189Y-48390827D01*
X105150189Y-48390827D02*
X105054951Y-48343208D01*
X105054951Y-48343208D02*
X104912094Y-48343208D01*
X104912094Y-48343208D02*
X104816856Y-48390827D01*
X104816856Y-48390827D02*
X104769237Y-48438446D01*
X104769237Y-48438446D02*
X104721618Y-48533684D01*
X104721618Y-48533684D02*
X104721618Y-48819398D01*
X104721618Y-48819398D02*
X104769237Y-48914636D01*
X104769237Y-48914636D02*
X104816856Y-48962256D01*
X104816856Y-48962256D02*
X104912094Y-49009875D01*
X104912094Y-49009875D02*
X105054951Y-49009875D01*
X104435903Y-48343208D02*
X104054951Y-48343208D01*
X104293046Y-49009875D02*
X104293046Y-48152732D01*
X104293046Y-48152732D02*
X104245427Y-48057494D01*
X104245427Y-48057494D02*
X104150189Y-48009875D01*
X104150189Y-48009875D02*
X104054951Y-48009875D01*
X109912095Y-49953152D02*
X109674000Y-50619819D01*
X109435905Y-49953152D02*
X109674000Y-50619819D01*
X109674000Y-50619819D02*
X109769238Y-50857914D01*
X109769238Y-50857914D02*
X109816857Y-50905533D01*
X109816857Y-50905533D02*
X109912095Y-50953152D01*
X108626381Y-50619819D02*
X108626381Y-50096009D01*
X108626381Y-50096009D02*
X108674000Y-50000771D01*
X108674000Y-50000771D02*
X108769238Y-49953152D01*
X108769238Y-49953152D02*
X108959714Y-49953152D01*
X108959714Y-49953152D02*
X109054952Y-50000771D01*
X108626381Y-50572200D02*
X108721619Y-50619819D01*
X108721619Y-50619819D02*
X108959714Y-50619819D01*
X108959714Y-50619819D02*
X109054952Y-50572200D01*
X109054952Y-50572200D02*
X109102571Y-50476961D01*
X109102571Y-50476961D02*
X109102571Y-50381723D01*
X109102571Y-50381723D02*
X109054952Y-50286485D01*
X109054952Y-50286485D02*
X108959714Y-50238866D01*
X108959714Y-50238866D02*
X108721619Y-50238866D01*
X108721619Y-50238866D02*
X108626381Y-50191247D01*
X107721619Y-50572200D02*
X107816857Y-50619819D01*
X107816857Y-50619819D02*
X108007333Y-50619819D01*
X108007333Y-50619819D02*
X108102571Y-50572200D01*
X108102571Y-50572200D02*
X108150190Y-50524580D01*
X108150190Y-50524580D02*
X108197809Y-50429342D01*
X108197809Y-50429342D02*
X108197809Y-50143628D01*
X108197809Y-50143628D02*
X108150190Y-50048390D01*
X108150190Y-50048390D02*
X108102571Y-50000771D01*
X108102571Y-50000771D02*
X108007333Y-49953152D01*
X108007333Y-49953152D02*
X107816857Y-49953152D01*
X107816857Y-49953152D02*
X107721619Y-50000771D01*
X106864476Y-49619819D02*
X107054952Y-49619819D01*
X107054952Y-49619819D02*
X107150190Y-49667438D01*
X107150190Y-49667438D02*
X107197809Y-49715057D01*
X107197809Y-49715057D02*
X107293047Y-49857914D01*
X107293047Y-49857914D02*
X107340666Y-50048390D01*
X107340666Y-50048390D02*
X107340666Y-50429342D01*
X107340666Y-50429342D02*
X107293047Y-50524580D01*
X107293047Y-50524580D02*
X107245428Y-50572200D01*
X107245428Y-50572200D02*
X107150190Y-50619819D01*
X107150190Y-50619819D02*
X106959714Y-50619819D01*
X106959714Y-50619819D02*
X106864476Y-50572200D01*
X106864476Y-50572200D02*
X106816857Y-50524580D01*
X106816857Y-50524580D02*
X106769238Y-50429342D01*
X106769238Y-50429342D02*
X106769238Y-50191247D01*
X106769238Y-50191247D02*
X106816857Y-50096009D01*
X106816857Y-50096009D02*
X106864476Y-50048390D01*
X106864476Y-50048390D02*
X106959714Y-50000771D01*
X106959714Y-50000771D02*
X107150190Y-50000771D01*
X107150190Y-50000771D02*
X107245428Y-50048390D01*
X107245428Y-50048390D02*
X107293047Y-50096009D01*
X107293047Y-50096009D02*
X107340666Y-50191247D01*
X105912095Y-49953152D02*
X105912095Y-50619819D01*
X106150190Y-49572200D02*
X106388285Y-50286485D01*
X106388285Y-50286485D02*
X105769238Y-50286485D01*
X105388285Y-49953152D02*
X105388285Y-50953152D01*
X105388285Y-50000771D02*
X105293047Y-49953152D01*
X105293047Y-49953152D02*
X105102571Y-49953152D01*
X105102571Y-49953152D02*
X105007333Y-50000771D01*
X105007333Y-50000771D02*
X104959714Y-50048390D01*
X104959714Y-50048390D02*
X104912095Y-50143628D01*
X104912095Y-50143628D02*
X104912095Y-50429342D01*
X104912095Y-50429342D02*
X104959714Y-50524580D01*
X104959714Y-50524580D02*
X105007333Y-50572200D01*
X105007333Y-50572200D02*
X105102571Y-50619819D01*
X105102571Y-50619819D02*
X105293047Y-50619819D01*
X105293047Y-50619819D02*
X105388285Y-50572200D01*
X104340666Y-50619819D02*
X104435904Y-50572200D01*
X104435904Y-50572200D02*
X104483523Y-50476961D01*
X104483523Y-50476961D02*
X104483523Y-49619819D01*
X103531142Y-50619819D02*
X103531142Y-50096009D01*
X103531142Y-50096009D02*
X103578761Y-50000771D01*
X103578761Y-50000771D02*
X103673999Y-49953152D01*
X103673999Y-49953152D02*
X103864475Y-49953152D01*
X103864475Y-49953152D02*
X103959713Y-50000771D01*
X103531142Y-50572200D02*
X103626380Y-50619819D01*
X103626380Y-50619819D02*
X103864475Y-50619819D01*
X103864475Y-50619819D02*
X103959713Y-50572200D01*
X103959713Y-50572200D02*
X104007332Y-50476961D01*
X104007332Y-50476961D02*
X104007332Y-50381723D01*
X104007332Y-50381723D02*
X103959713Y-50286485D01*
X103959713Y-50286485D02*
X103864475Y-50238866D01*
X103864475Y-50238866D02*
X103626380Y-50238866D01*
X103626380Y-50238866D02*
X103531142Y-50191247D01*
X110840667Y-52229763D02*
X110840667Y-51229763D01*
X110840667Y-51610715D02*
X110745429Y-51563096D01*
X110745429Y-51563096D02*
X110554953Y-51563096D01*
X110554953Y-51563096D02*
X110459715Y-51610715D01*
X110459715Y-51610715D02*
X110412096Y-51658334D01*
X110412096Y-51658334D02*
X110364477Y-51753572D01*
X110364477Y-51753572D02*
X110364477Y-52039286D01*
X110364477Y-52039286D02*
X110412096Y-52134524D01*
X110412096Y-52134524D02*
X110459715Y-52182144D01*
X110459715Y-52182144D02*
X110554953Y-52229763D01*
X110554953Y-52229763D02*
X110745429Y-52229763D01*
X110745429Y-52229763D02*
X110840667Y-52182144D01*
X110031143Y-51563096D02*
X109793048Y-52229763D01*
X109554953Y-51563096D02*
X109793048Y-52229763D01*
X109793048Y-52229763D02*
X109888286Y-52467858D01*
X109888286Y-52467858D02*
X109935905Y-52515477D01*
X109935905Y-52515477D02*
X110031143Y-52563096D01*
X108269238Y-52229763D02*
X108364476Y-52182144D01*
X108364476Y-52182144D02*
X108412095Y-52086905D01*
X108412095Y-52086905D02*
X108412095Y-51229763D01*
X107888285Y-52229763D02*
X107888285Y-51229763D01*
X107793047Y-51848810D02*
X107507333Y-52229763D01*
X107507333Y-51563096D02*
X107888285Y-51944048D01*
X106650190Y-51563096D02*
X106650190Y-52229763D01*
X107078761Y-51563096D02*
X107078761Y-52086905D01*
X107078761Y-52086905D02*
X107031142Y-52182144D01*
X107031142Y-52182144D02*
X106935904Y-52229763D01*
X106935904Y-52229763D02*
X106793047Y-52229763D01*
X106793047Y-52229763D02*
X106697809Y-52182144D01*
X106697809Y-52182144D02*
X106650190Y-52134524D01*
X106173999Y-51563096D02*
X106173999Y-52229763D01*
X106173999Y-51658334D02*
X106126380Y-51610715D01*
X106126380Y-51610715D02*
X106031142Y-51563096D01*
X106031142Y-51563096D02*
X105888285Y-51563096D01*
X105888285Y-51563096D02*
X105793047Y-51610715D01*
X105793047Y-51610715D02*
X105745428Y-51705953D01*
X105745428Y-51705953D02*
X105745428Y-52229763D01*
X104840666Y-52229763D02*
X104840666Y-51229763D01*
X104840666Y-52182144D02*
X104935904Y-52229763D01*
X104935904Y-52229763D02*
X105126380Y-52229763D01*
X105126380Y-52229763D02*
X105221618Y-52182144D01*
X105221618Y-52182144D02*
X105269237Y-52134524D01*
X105269237Y-52134524D02*
X105316856Y-52039286D01*
X105316856Y-52039286D02*
X105316856Y-51753572D01*
X105316856Y-51753572D02*
X105269237Y-51658334D01*
X105269237Y-51658334D02*
X105221618Y-51610715D01*
X105221618Y-51610715D02*
X105126380Y-51563096D01*
X105126380Y-51563096D02*
X104935904Y-51563096D01*
X104935904Y-51563096D02*
X104840666Y-51610715D01*
X104364475Y-52229763D02*
X104364475Y-51563096D01*
X104364475Y-51753572D02*
X104316856Y-51658334D01*
X104316856Y-51658334D02*
X104269237Y-51610715D01*
X104269237Y-51610715D02*
X104173999Y-51563096D01*
X104173999Y-51563096D02*
X104078761Y-51563096D01*
X103316856Y-52229763D02*
X103316856Y-51705953D01*
X103316856Y-51705953D02*
X103364475Y-51610715D01*
X103364475Y-51610715D02*
X103459713Y-51563096D01*
X103459713Y-51563096D02*
X103650189Y-51563096D01*
X103650189Y-51563096D02*
X103745427Y-51610715D01*
X103316856Y-52182144D02*
X103412094Y-52229763D01*
X103412094Y-52229763D02*
X103650189Y-52229763D01*
X103650189Y-52229763D02*
X103745427Y-52182144D01*
X103745427Y-52182144D02*
X103793046Y-52086905D01*
X103793046Y-52086905D02*
X103793046Y-51991667D01*
X103793046Y-51991667D02*
X103745427Y-51896429D01*
X103745427Y-51896429D02*
X103650189Y-51848810D01*
X103650189Y-51848810D02*
X103412094Y-51848810D01*
X103412094Y-51848810D02*
X103316856Y-51801191D01*
X102840665Y-52229763D02*
X102840665Y-51229763D01*
X102745427Y-51848810D02*
X102459713Y-52229763D01*
X102459713Y-51563096D02*
X102840665Y-51944048D01*
X107441904Y-53352319D02*
X107441904Y-54161842D01*
X107441904Y-54161842D02*
X107394285Y-54257080D01*
X107394285Y-54257080D02*
X107346666Y-54304700D01*
X107346666Y-54304700D02*
X107251428Y-54352319D01*
X107251428Y-54352319D02*
X107060952Y-54352319D01*
X107060952Y-54352319D02*
X106965714Y-54304700D01*
X106965714Y-54304700D02*
X106918095Y-54257080D01*
X106918095Y-54257080D02*
X106870476Y-54161842D01*
X106870476Y-54161842D02*
X106870476Y-53352319D01*
X106441904Y-53447557D02*
X106394285Y-53399938D01*
X106394285Y-53399938D02*
X106299047Y-53352319D01*
X106299047Y-53352319D02*
X106060952Y-53352319D01*
X106060952Y-53352319D02*
X105965714Y-53399938D01*
X105965714Y-53399938D02*
X105918095Y-53447557D01*
X105918095Y-53447557D02*
X105870476Y-53542795D01*
X105870476Y-53542795D02*
X105870476Y-53638033D01*
X105870476Y-53638033D02*
X105918095Y-53780890D01*
X105918095Y-53780890D02*
X106489523Y-54352319D01*
X106489523Y-54352319D02*
X105870476Y-54352319D01*
D12*
%TO.C,U2*%
X102820000Y-54737500D02*
X106680000Y-54737500D01*
X102820000Y-55002500D02*
X102820000Y-54737500D01*
X102820000Y-70092500D02*
X102820000Y-70357500D01*
X102820000Y-70357500D02*
X106680000Y-70357500D01*
X110540000Y-54737500D02*
X106680000Y-54737500D01*
X110540000Y-55002500D02*
X110540000Y-54737500D01*
X110540000Y-70092500D02*
X110540000Y-70357500D01*
X110540000Y-70357500D02*
X106680000Y-70357500D01*
X111392500Y-55002500D02*
X111052500Y-54532500D01*
X111732500Y-54532500D01*
X111392500Y-55002500D01*
G36*
X111392500Y-55002500D02*
G01*
X111052500Y-54532500D01*
X111732500Y-54532500D01*
X111392500Y-55002500D01*
G37*
%TD*%
M02*
