%TF.GenerationSoftware,KiCad,Pcbnew,8.0.8*%
%TF.CreationDate,2025-03-10T01:42:14+01:00*%
%TF.ProjectId,C64-PLA,4336342d-504c-4412-9e6b-696361645f70,rev?*%
%TF.SameCoordinates,Original*%
%TF.FileFunction,Copper,L1,Top*%
%TF.FilePolarity,Positive*%
%FSLAX46Y46*%
G04 Gerber Fmt 4.6, Leading zero omitted, Abs format (unit mm)*
G04 Created by KiCad (PCBNEW 8.0.8) date 2025-03-10 01:42:14*
%MOMM*%
%LPD*%
G01*
G04 APERTURE LIST*
G04 Aperture macros list*
%AMRoundRect*
0 Rectangle with rounded corners*
0 $1 Rounding radius*
0 $2 $3 $4 $5 $6 $7 $8 $9 X,Y pos of 4 corners*
0 Add a 4 corners polygon primitive as box body*
4,1,4,$2,$3,$4,$5,$6,$7,$8,$9,$2,$3,0*
0 Add four circle primitives for the rounded corners*
1,1,$1+$1,$2,$3*
1,1,$1+$1,$4,$5*
1,1,$1+$1,$6,$7*
1,1,$1+$1,$8,$9*
0 Add four rect primitives between the rounded corners*
20,1,$1+$1,$2,$3,$4,$5,0*
20,1,$1+$1,$4,$5,$6,$7,0*
20,1,$1+$1,$6,$7,$8,$9,0*
20,1,$1+$1,$8,$9,$2,$3,0*%
G04 Aperture macros list end*
%TA.AperFunction,ComponentPad*%
%ADD10C,1.600000*%
%TD*%
%TA.AperFunction,ComponentPad*%
%ADD11O,1.600000X1.600000*%
%TD*%
%TA.AperFunction,SMDPad,CuDef*%
%ADD12RoundRect,0.150000X-0.875000X-0.150000X0.875000X-0.150000X0.875000X0.150000X-0.875000X0.150000X0*%
%TD*%
%TA.AperFunction,ViaPad*%
%ADD13C,0.600000*%
%TD*%
%TA.AperFunction,ViaPad*%
%ADD14C,1.000000*%
%TD*%
%TA.AperFunction,Conductor*%
%ADD15C,0.300000*%
%TD*%
%TA.AperFunction,Conductor*%
%ADD16C,0.800000*%
%TD*%
%TA.AperFunction,Conductor*%
%ADD17C,0.600000*%
%TD*%
G04 APERTURE END LIST*
D10*
%TO.P,U3,1,FE/NC*%
%TO.N,/FE*%
X99055000Y-46672500D03*
D11*
%TO.P,U3,2,I7/A13*%
%TO.N,/A13*%
X99055000Y-49212500D03*
%TO.P,U3,3,I6/A14*%
%TO.N,/A14*%
X99055000Y-51752500D03*
%TO.P,U3,4,I5/A15*%
%TO.N,/A15*%
X99055000Y-54292500D03*
%TO.P,U3,5,I4/~{VA14}*%
%TO.N,/~{VA14}*%
X99055000Y-56832500D03*
%TO.P,U3,6,I3/~{CHAREN}*%
%TO.N,/~{CHAREN}*%
X99055000Y-59372500D03*
%TO.P,U3,7,I2/~{IRAM}*%
%TO.N,/~{IRAM}*%
X99055000Y-61912500D03*
%TO.P,U3,8,I1/~{LORAM}*%
%TO.N,/~{LORAM}*%
X99055000Y-64452500D03*
%TO.P,U3,9,I0/~{CAS}*%
%TO.N,/~{CAS}*%
X99055000Y-66992500D03*
%TO.P,U3,10,F7/~{ROMH}*%
%TO.N,/~{ROMH}*%
X99055000Y-69532500D03*
%TO.P,U3,11,F6/~{ROML}*%
%TO.N,/~{ROML}*%
X99055000Y-72072500D03*
%TO.P,U3,12,F5/~{I/O}*%
%TO.N,/~{I{slash}O}*%
X99055000Y-74612500D03*
%TO.P,U3,13,F4/GR/~{W}*%
%TO.N,/GR{slash}~{W}*%
X99055000Y-77152500D03*
%TO.P,U3,14,VSS*%
%TO.N,GND*%
X99055000Y-79692500D03*
%TO.P,U3,15,F3/~{CHAROM}*%
%TO.N,/~{CHAROM}*%
X114295000Y-79692500D03*
%TO.P,U3,16,F2/~{KERNAL}*%
%TO.N,/~{KERNAL}*%
X114295000Y-77152500D03*
%TO.P,U3,17,F1/~{BASIC}*%
%TO.N,/~{BASIC}*%
X114295000Y-74612500D03*
%TO.P,U3,18,F0/~{CASRAM}*%
%TO.N,/~{CASRAM}*%
X114295000Y-72072500D03*
%TO.P,U3,19,~{OE}*%
%TO.N,/~{OE}*%
X114295000Y-69532500D03*
%TO.P,U3,20,I15/VA12*%
%TO.N,/VA12*%
X114295000Y-66992500D03*
%TO.P,U3,21,I14/VA13*%
%TO.N,/VA13*%
X114295000Y-64452500D03*
%TO.P,U3,22,I13/~{GAME}*%
%TO.N,/~{GAME}*%
X114295000Y-61912500D03*
%TO.P,U3,23,I12/~{EXROM}*%
%TO.N,/~{EXROM}*%
X114295000Y-59372500D03*
%TO.P,U3,24,I11/R/~{W}*%
%TO.N,/R{slash}~{W}*%
X114295000Y-56832500D03*
%TO.P,U3,25,I10/~{AEC}*%
%TO.N,/~{AEC}*%
X114295000Y-54292500D03*
%TO.P,U3,26,I9/BA*%
%TO.N,/BA*%
X114295000Y-51752500D03*
%TO.P,U3,27,I8/A12*%
%TO.N,/A12*%
X114295000Y-49212500D03*
%TO.P,U3,28,VCC*%
%TO.N,VCC*%
X114295000Y-46672500D03*
%TD*%
D12*
%TO.P,U1,1,I0/CLK*%
%TO.N,/A15*%
X102030000Y-55562500D03*
%TO.P,U1,2,I1*%
%TO.N,/~{VA14}*%
X102030000Y-56832500D03*
%TO.P,U1,3,I2*%
%TO.N,/TCR*%
X102030000Y-58102500D03*
%TO.P,U1,4,I3/PD*%
%TO.N,/~{CHAREN}*%
X102030000Y-59372500D03*
%TO.P,U1,5,I4*%
%TO.N,/A14*%
X102030000Y-60642500D03*
%TO.P,U1,6,I5*%
%TO.N,/~{IRAM}*%
X102030000Y-61912500D03*
%TO.P,U1,7,I6*%
%TO.N,/A13*%
X102030000Y-63182500D03*
%TO.P,U1,8,I7*%
%TO.N,/~{LORAM}*%
X102030000Y-64452500D03*
%TO.P,U1,9,I8*%
%TO.N,/FE*%
X102030000Y-65722500D03*
%TO.P,U1,10,I9*%
%TO.N,/A12*%
X102030000Y-66992500D03*
%TO.P,U1,11,I10*%
%TO.N,/~{AEC}*%
X102030000Y-68262500D03*
%TO.P,U1,12,GND*%
%TO.N,GND*%
X102030000Y-69532500D03*
%TO.P,U1,13,I11*%
%TO.N,/~{OE}*%
X111330000Y-69532500D03*
%TO.P,U1,14,I/O12*%
%TO.N,/~{CASRAM}*%
X111330000Y-68262500D03*
%TO.P,U1,15,I/O13*%
%TO.N,/VA12*%
X111330000Y-66992500D03*
%TO.P,U1,16,I/O14*%
%TO.N,/~{KERNAL}*%
X111330000Y-65722500D03*
%TO.P,U1,17,I/O15*%
%TO.N,/VA13*%
X111330000Y-64452500D03*
%TO.P,U1,18,I/O16*%
%TO.N,/~{CHAROM}*%
X111330000Y-63182500D03*
%TO.P,U1,19,I/O17*%
%TO.N,/~{GAME}*%
X111330000Y-61912500D03*
%TO.P,U1,20,I/O18*%
%TO.N,/~{ROMH}*%
X111330000Y-60642500D03*
%TO.P,U1,21,I/O19*%
%TO.N,/~{EXROM}*%
X111330000Y-59372500D03*
%TO.P,U1,22,I/O20*%
%TO.N,/uTIO2*%
X111330000Y-58102500D03*
%TO.P,U1,23,I/O21*%
%TO.N,/R{slash}~{W}*%
X111330000Y-56832500D03*
%TO.P,U1,24,VCC*%
%TO.N,VCC*%
X111330000Y-55562500D03*
%TD*%
D13*
%TO.N,/~{CAS}*%
X102030000Y-70802500D03*
%TO.N,/FE*%
X105181750Y-63817500D03*
%TO.N,/~{AEC}*%
X109690250Y-55562500D03*
%TO.N,/A15*%
X103657750Y-55562500D03*
%TO.N,/A12*%
X107467750Y-57467500D03*
D14*
%TO.N,GND*%
X106356500Y-73183750D03*
X106356500Y-69532500D03*
D13*
%TO.N,/A14*%
X103657750Y-58737500D03*
%TO.N,/A13*%
X104419750Y-61277500D03*
%TO.N,/TCR*%
X100578000Y-58102500D03*
%TD*%
D15*
%TO.N,/~{CAS}*%
X100053625Y-67991125D02*
X99055000Y-66992500D01*
X102030000Y-70802500D02*
X101531259Y-70802500D01*
X100749473Y-70478673D02*
X100749426Y-70478626D01*
X100425600Y-69696841D02*
X100425600Y-68889151D01*
X101531259Y-70802500D02*
G75*
G02*
X100749496Y-70478650I41J1105600D01*
G01*
X100749426Y-70478626D02*
G75*
G02*
X100425568Y-69696841I781774J781826D01*
G01*
X100425600Y-68889151D02*
G75*
G03*
X100053601Y-67991149I-1270000J-49D01*
G01*
%TO.N,/FE*%
X106356500Y-56523069D02*
X106356500Y-52090500D01*
X105181750Y-63972500D02*
X105181750Y-63817500D01*
X105737310Y-57927940D02*
X105800940Y-57864310D01*
X102030000Y-65722500D02*
X103431750Y-65722500D01*
X105181750Y-59269181D02*
X105181750Y-63817500D01*
X100938500Y-46672500D02*
X99055000Y-46672500D01*
X105181750Y-59269181D02*
G75*
G02*
X105737330Y-57927960I1896750J-19D01*
G01*
X106356500Y-56523069D02*
G75*
G02*
X105800955Y-57864325I-1896800J-31D01*
G01*
X103431750Y-65722500D02*
G75*
G03*
X105181800Y-63972500I50J1750000D01*
G01*
X106356500Y-52090500D02*
G75*
G03*
X100938500Y-46672500I-5418000J0D01*
G01*
%TO.N,/R{slash}~{W}*%
X111330000Y-56832500D02*
X114295000Y-56832500D01*
%TO.N,/~{AEC}*%
X103438691Y-68262500D02*
X102030000Y-68262500D01*
X109134690Y-57546810D02*
X107229560Y-59451940D01*
X106674000Y-60793181D02*
X106674000Y-65027191D01*
X109690250Y-55562500D02*
X109690250Y-56205569D01*
X106674000Y-60793181D02*
G75*
G02*
X107229570Y-59451950I1896800J-19D01*
G01*
X106674000Y-65027191D02*
G75*
G02*
X103438691Y-68262500I-3235300J-9D01*
G01*
X109134690Y-57546810D02*
G75*
G03*
X109690243Y-56205569I-1341190J1341210D01*
G01*
%TO.N,/A15*%
X103657750Y-55562500D02*
X102030000Y-55562500D01*
X102030000Y-55562500D02*
X100851051Y-55562500D01*
X99953025Y-55190525D02*
X99055000Y-54292500D01*
X99953025Y-55190525D02*
G75*
G03*
X100851051Y-55562534I898075J898025D01*
G01*
%TO.N,/A12*%
X103419500Y-66992500D02*
X102030000Y-66992500D01*
X107467750Y-57467500D02*
X106499310Y-58435940D01*
X105943750Y-59777181D02*
X105943750Y-64468250D01*
X105943750Y-64468250D02*
G75*
G02*
X103419500Y-66992450I-2524250J50D01*
G01*
X105943750Y-59777181D02*
G75*
G02*
X106499330Y-58435960I1896750J-19D01*
G01*
D16*
%TO.N,GND*%
X106356500Y-73183750D02*
X100408305Y-79131945D01*
D17*
X102030000Y-69532500D02*
X106356500Y-69532500D01*
D16*
X99055000Y-79692500D02*
G75*
G03*
X100408312Y-79131952I0J1913900D01*
G01*
D15*
%TO.N,/~{OE}*%
X111330000Y-69532500D02*
X114295000Y-69532500D01*
%TO.N,/A14*%
X103657750Y-58737500D02*
X103657750Y-58253181D01*
X100959000Y-51752500D02*
X99055000Y-51752500D01*
X104769000Y-55570569D02*
X104769000Y-55562500D01*
X102030000Y-60642500D02*
X103157750Y-60642500D01*
X104213310Y-56911940D02*
X104213440Y-56911810D01*
X103657750Y-60142500D02*
X103657750Y-58737500D01*
X103657750Y-58253181D02*
G75*
G02*
X104213330Y-56911960I1896750J-19D01*
G01*
X103157750Y-60642500D02*
G75*
G03*
X103657700Y-60142500I-50J500000D01*
G01*
X100959000Y-51752500D02*
G75*
G02*
X104769000Y-55562500I0J-3810000D01*
G01*
X104213440Y-56911810D02*
G75*
G03*
X104768979Y-55570569I-1341240J1341210D01*
G01*
%TO.N,/~{IRAM}*%
X102030000Y-61912500D02*
X99055000Y-61912500D01*
%TO.N,/A13*%
X104419750Y-61277500D02*
X104419750Y-62182500D01*
X104419750Y-61277500D02*
X104419750Y-58761181D01*
X105562750Y-56046819D02*
X105562750Y-53816500D01*
X103419750Y-63182500D02*
X102030000Y-63182500D01*
X100958750Y-49212500D02*
X99055000Y-49212500D01*
X104975310Y-57419940D02*
X105007190Y-57388060D01*
X105007190Y-57388060D02*
G75*
G03*
X105562779Y-56046819I-1341190J1341260D01*
G01*
X105562750Y-53816500D02*
G75*
G03*
X100958750Y-49212550I-4603950J0D01*
G01*
X104975310Y-57419940D02*
G75*
G03*
X104419721Y-58761181I1341190J-1341260D01*
G01*
X103419750Y-63182500D02*
G75*
G03*
X104419800Y-62182500I50J1000000D01*
G01*
%TO.N,/~{CHAREN}*%
X102030000Y-59372500D02*
X99055000Y-59372500D01*
%TO.N,/~{EXROM}*%
X111330000Y-59372500D02*
X114295000Y-59372500D01*
%TO.N,/~{LORAM}*%
X102030000Y-64452500D02*
X99055000Y-64452500D01*
%TO.N,/~{CHAROM}*%
X112466250Y-79692500D02*
X114295000Y-79692500D01*
X111330000Y-63182500D02*
X109981971Y-63182500D01*
X108166250Y-64998221D02*
X108166250Y-75392500D01*
X109981971Y-63182500D02*
G75*
G03*
X108166300Y-64998221I29J-1815700D01*
G01*
X108166250Y-75392500D02*
G75*
G03*
X112466250Y-79692550I4300050J0D01*
G01*
%TO.N,/~{VA14}*%
X102030000Y-56832500D02*
X99055000Y-56832500D01*
%TO.N,/VA13*%
X111330000Y-64452500D02*
X114295000Y-64452500D01*
%TO.N,/~{GAME}*%
X111330000Y-61912500D02*
X114295000Y-61912500D01*
%TO.N,/~{ROMH}*%
X100496634Y-71406934D02*
X99360984Y-70271284D01*
X107404250Y-63140025D02*
X107404250Y-69507100D01*
X111330000Y-60642500D02*
X109901775Y-60642500D01*
X104864250Y-72047100D02*
X102042132Y-72047100D01*
X102042132Y-72047100D02*
G75*
G02*
X100496611Y-71406957I-32J2185700D01*
G01*
X99360984Y-70271284D02*
G75*
G02*
X99055020Y-69532500I738716J738684D01*
G01*
X107404250Y-63140025D02*
G75*
G02*
X109901775Y-60642450I2497550J25D01*
G01*
X104864250Y-72047100D02*
G75*
G03*
X107404200Y-69507100I-50J2540000D01*
G01*
%TO.N,/TCR*%
X102030000Y-58102500D02*
X100578000Y-58102500D01*
%TO.N,/~{CASRAM}*%
X111933995Y-72072500D02*
X114295000Y-72072500D01*
X111330000Y-68262500D02*
X110190250Y-68262500D01*
X109690250Y-68762500D02*
X109690250Y-69828755D01*
X111933995Y-72072500D02*
G75*
G02*
X109690300Y-69828755I5J2243700D01*
G01*
X110190250Y-68262500D02*
G75*
G03*
X109690300Y-68762500I50J-500000D01*
G01*
D17*
%TO.N,VCC*%
X111330000Y-54862900D02*
X111330000Y-50689602D01*
X112073949Y-48893551D02*
X114295000Y-46672500D01*
X111330000Y-50689602D02*
G75*
G02*
X112073948Y-48893550I2540000J2D01*
G01*
X111330000Y-54862900D02*
G75*
G02*
X110630400Y-55562500I-699600J0D01*
G01*
X111330000Y-54862900D02*
G75*
G03*
X112029600Y-55562500I699600J0D01*
G01*
D15*
%TO.N,/~{KERNAL}*%
X112498250Y-77152500D02*
X114295000Y-77152500D01*
X111330000Y-65722500D02*
X110006816Y-65722500D01*
X108928250Y-66801066D02*
X108928250Y-73582500D01*
X108928250Y-66801066D02*
G75*
G02*
X110006816Y-65722550I1078550J-34D01*
G01*
X108928250Y-73582500D02*
G75*
G03*
X112498250Y-77152550I3570050J0D01*
G01*
%TO.N,/VA12*%
X111330000Y-66992500D02*
X114295000Y-66992500D01*
%TD*%
%TA.AperFunction,Conductor*%
%TO.N,/R{slash}~{W}*%
G36*
X112266272Y-56546308D02*
G01*
X112266899Y-56546665D01*
X112301662Y-56567901D01*
X112301670Y-56567905D01*
X112301671Y-56567906D01*
X112340917Y-56589631D01*
X112340933Y-56589640D01*
X112380144Y-56609099D01*
X112380170Y-56609111D01*
X112380182Y-56609117D01*
X112419441Y-56626350D01*
X112458701Y-56641334D01*
X112487856Y-56650789D01*
X112497951Y-56654064D01*
X112497955Y-56654065D01*
X112497961Y-56654067D01*
X112537220Y-56664550D01*
X112576480Y-56672783D01*
X112576489Y-56672784D01*
X112576492Y-56672785D01*
X112615720Y-56678763D01*
X112615740Y-56678766D01*
X112615754Y-56678767D01*
X112615775Y-56678770D01*
X112632116Y-56680323D01*
X112644408Y-56681492D01*
X112652319Y-56685686D01*
X112655000Y-56693139D01*
X112655000Y-56971860D01*
X112651573Y-56980133D01*
X112644407Y-56983507D01*
X112615764Y-56986229D01*
X112615737Y-56986233D01*
X112576492Y-56992213D01*
X112537224Y-57000448D01*
X112537201Y-57000453D01*
X112497951Y-57010934D01*
X112458703Y-57023665D01*
X112419442Y-57038648D01*
X112380200Y-57055873D01*
X112380144Y-57055899D01*
X112340933Y-57075358D01*
X112340917Y-57075367D01*
X112301660Y-57097098D01*
X112266910Y-57118327D01*
X112258064Y-57119716D01*
X112257355Y-57119521D01*
X111720125Y-56953425D01*
X111365153Y-56843677D01*
X111358262Y-56837960D01*
X111357432Y-56829044D01*
X111363150Y-56822152D01*
X111365152Y-56821322D01*
X112257356Y-56545478D01*
X112266272Y-56546308D01*
G37*
%TD.AperFunction*%
%TD*%
%TA.AperFunction,Conductor*%
%TO.N,/A13*%
G36*
X104686044Y-61387763D02*
G01*
X104692356Y-61394115D01*
X104692329Y-61403070D01*
X104692297Y-61403144D01*
X104670063Y-61455345D01*
X104669992Y-61455508D01*
X104646840Y-61507647D01*
X104646834Y-61507662D01*
X104627109Y-61551915D01*
X104610697Y-61590943D01*
X104597341Y-61627741D01*
X104586870Y-61665100D01*
X104579078Y-61705888D01*
X104573760Y-61752983D01*
X104573760Y-61752987D01*
X104570718Y-61809225D01*
X104569914Y-61865966D01*
X104566370Y-61874190D01*
X104558215Y-61877500D01*
X104281285Y-61877500D01*
X104273012Y-61874073D01*
X104269586Y-61865966D01*
X104268780Y-61809225D01*
X104265738Y-61752987D01*
X104265738Y-61752983D01*
X104265738Y-61752979D01*
X104260421Y-61705890D01*
X104252628Y-61665099D01*
X104242157Y-61627743D01*
X104228808Y-61590960D01*
X104212377Y-61551887D01*
X104192664Y-61507662D01*
X104169468Y-61455422D01*
X104147201Y-61403143D01*
X104147113Y-61394189D01*
X104153381Y-61387795D01*
X104153407Y-61387783D01*
X104415240Y-61278383D01*
X104424194Y-61278357D01*
X104686044Y-61387763D01*
G37*
%TD.AperFunction*%
%TD*%
%TA.AperFunction,Conductor*%
%TO.N,/VA12*%
G36*
X112266272Y-66706308D02*
G01*
X112266899Y-66706665D01*
X112301662Y-66727901D01*
X112301670Y-66727905D01*
X112301671Y-66727906D01*
X112340917Y-66749631D01*
X112340933Y-66749640D01*
X112380144Y-66769099D01*
X112380170Y-66769111D01*
X112380182Y-66769117D01*
X112419441Y-66786350D01*
X112458701Y-66801334D01*
X112487856Y-66810789D01*
X112497951Y-66814064D01*
X112497955Y-66814065D01*
X112497961Y-66814067D01*
X112537220Y-66824550D01*
X112576480Y-66832783D01*
X112576489Y-66832784D01*
X112576492Y-66832785D01*
X112615720Y-66838763D01*
X112615740Y-66838766D01*
X112615754Y-66838767D01*
X112615775Y-66838770D01*
X112632116Y-66840323D01*
X112644408Y-66841492D01*
X112652319Y-66845686D01*
X112655000Y-66853139D01*
X112655000Y-67131860D01*
X112651573Y-67140133D01*
X112644407Y-67143507D01*
X112615764Y-67146229D01*
X112615737Y-67146233D01*
X112576492Y-67152213D01*
X112537224Y-67160448D01*
X112537201Y-67160453D01*
X112497951Y-67170934D01*
X112458703Y-67183665D01*
X112419442Y-67198648D01*
X112380200Y-67215873D01*
X112380144Y-67215899D01*
X112340933Y-67235358D01*
X112340917Y-67235367D01*
X112301660Y-67257098D01*
X112266910Y-67278327D01*
X112258064Y-67279716D01*
X112257355Y-67279521D01*
X111720125Y-67113425D01*
X111365153Y-67003677D01*
X111358262Y-66997960D01*
X111357432Y-66989044D01*
X111363150Y-66982152D01*
X111365152Y-66981322D01*
X112257356Y-66705478D01*
X112266272Y-66706308D01*
G37*
%TD.AperFunction*%
%TD*%
%TA.AperFunction,Conductor*%
%TO.N,GND*%
G36*
X100198103Y-78792014D02*
G01*
X100747548Y-79341459D01*
X100750975Y-79349732D01*
X100747548Y-79358005D01*
X100747358Y-79358191D01*
X100613414Y-79486171D01*
X100612960Y-79486583D01*
X100490132Y-79592219D01*
X100489617Y-79592636D01*
X100381486Y-79675457D01*
X100381002Y-79675809D01*
X100282495Y-79743555D01*
X100282190Y-79743758D01*
X100247743Y-79765890D01*
X100188347Y-79804054D01*
X100094350Y-79864447D01*
X99995455Y-79932460D01*
X99995445Y-79932468D01*
X99886806Y-80015677D01*
X99763504Y-80121721D01*
X99628943Y-80250293D01*
X99620594Y-80253531D01*
X99612597Y-80250117D01*
X99057734Y-79696639D01*
X99054297Y-79688371D01*
X99054297Y-79688346D01*
X99054309Y-79675645D01*
X99054989Y-78904779D01*
X99058423Y-78896510D01*
X99066699Y-78893090D01*
X99067259Y-78893103D01*
X99206132Y-78899944D01*
X99213942Y-78900329D01*
X99215001Y-78900430D01*
X99352967Y-78919897D01*
X99353685Y-78920021D01*
X99475438Y-78945310D01*
X99475592Y-78945345D01*
X99584850Y-78970518D01*
X99685295Y-78989576D01*
X99685303Y-78989576D01*
X99685305Y-78989577D01*
X99703540Y-78990906D01*
X99780729Y-78996536D01*
X99875051Y-78985442D01*
X99972159Y-78950333D01*
X100075951Y-78885251D01*
X100182085Y-78791516D01*
X100190554Y-78788609D01*
X100198103Y-78792014D01*
G37*
%TD.AperFunction*%
%TD*%
%TA.AperFunction,Conductor*%
%TO.N,/~{ROMH}*%
G36*
X110402640Y-60355477D02*
G01*
X110608480Y-60419117D01*
X111294845Y-60631322D01*
X111301737Y-60637040D01*
X111302567Y-60645956D01*
X111296849Y-60652848D01*
X111294845Y-60653678D01*
X110402643Y-60929521D01*
X110393727Y-60928691D01*
X110393087Y-60928327D01*
X110358327Y-60907092D01*
X110319081Y-60885367D01*
X110319065Y-60885358D01*
X110279854Y-60865899D01*
X110279798Y-60865873D01*
X110240556Y-60848648D01*
X110201295Y-60833665D01*
X110162047Y-60820934D01*
X110122797Y-60810453D01*
X110122774Y-60810448D01*
X110083506Y-60802213D01*
X110044261Y-60796233D01*
X110044236Y-60796230D01*
X110015592Y-60793506D01*
X110007681Y-60789312D01*
X110005000Y-60781859D01*
X110005000Y-60503139D01*
X110008427Y-60494866D01*
X110015591Y-60491492D01*
X110028594Y-60490255D01*
X110044223Y-60488770D01*
X110044240Y-60488767D01*
X110044259Y-60488766D01*
X110083519Y-60482783D01*
X110122779Y-60474550D01*
X110162038Y-60464067D01*
X110201298Y-60451334D01*
X110240558Y-60436350D01*
X110279817Y-60419117D01*
X110279842Y-60419104D01*
X110279854Y-60419099D01*
X110319065Y-60399640D01*
X110319065Y-60399639D01*
X110319077Y-60399634D01*
X110358337Y-60377901D01*
X110393089Y-60356671D01*
X110401934Y-60355283D01*
X110402640Y-60355477D01*
G37*
%TD.AperFunction*%
%TD*%
%TA.AperFunction,Conductor*%
%TO.N,/A13*%
G36*
X102966272Y-62896308D02*
G01*
X102966899Y-62896665D01*
X103001662Y-62917901D01*
X103001670Y-62917905D01*
X103001671Y-62917906D01*
X103040917Y-62939631D01*
X103040933Y-62939640D01*
X103080144Y-62959099D01*
X103080170Y-62959111D01*
X103080182Y-62959117D01*
X103119441Y-62976350D01*
X103158701Y-62991334D01*
X103187856Y-63000789D01*
X103197951Y-63004064D01*
X103197955Y-63004065D01*
X103197961Y-63004067D01*
X103237220Y-63014550D01*
X103276480Y-63022783D01*
X103276489Y-63022784D01*
X103276492Y-63022785D01*
X103315720Y-63028763D01*
X103315740Y-63028766D01*
X103315754Y-63028767D01*
X103315775Y-63028770D01*
X103332116Y-63030323D01*
X103344408Y-63031492D01*
X103352319Y-63035686D01*
X103355000Y-63043139D01*
X103355000Y-63321860D01*
X103351573Y-63330133D01*
X103344407Y-63333507D01*
X103315764Y-63336229D01*
X103315737Y-63336233D01*
X103276492Y-63342213D01*
X103237224Y-63350448D01*
X103237201Y-63350453D01*
X103197951Y-63360934D01*
X103158703Y-63373665D01*
X103119442Y-63388648D01*
X103080200Y-63405873D01*
X103080144Y-63405899D01*
X103040933Y-63425358D01*
X103040917Y-63425367D01*
X103001660Y-63447098D01*
X102966910Y-63468327D01*
X102958064Y-63469716D01*
X102957355Y-63469521D01*
X102420125Y-63303425D01*
X102065153Y-63193677D01*
X102058262Y-63187960D01*
X102057432Y-63179044D01*
X102063150Y-63172152D01*
X102065152Y-63171322D01*
X102957356Y-62895478D01*
X102966272Y-62896308D01*
G37*
%TD.AperFunction*%
%TD*%
%TA.AperFunction,Conductor*%
%TO.N,/~{LORAM}*%
G36*
X101102640Y-64165477D02*
G01*
X101308480Y-64229117D01*
X101994845Y-64441322D01*
X102001737Y-64447040D01*
X102002567Y-64455956D01*
X101996849Y-64462848D01*
X101994845Y-64463678D01*
X101102643Y-64739521D01*
X101093727Y-64738691D01*
X101093087Y-64738327D01*
X101058327Y-64717092D01*
X101019081Y-64695367D01*
X101019065Y-64695358D01*
X100979854Y-64675899D01*
X100979798Y-64675873D01*
X100940556Y-64658648D01*
X100901295Y-64643665D01*
X100862047Y-64630934D01*
X100822797Y-64620453D01*
X100822774Y-64620448D01*
X100783506Y-64612213D01*
X100744261Y-64606233D01*
X100744236Y-64606230D01*
X100715592Y-64603506D01*
X100707681Y-64599312D01*
X100705000Y-64591859D01*
X100705000Y-64313139D01*
X100708427Y-64304866D01*
X100715591Y-64301492D01*
X100728594Y-64300255D01*
X100744223Y-64298770D01*
X100744240Y-64298767D01*
X100744259Y-64298766D01*
X100783519Y-64292783D01*
X100822779Y-64284550D01*
X100862038Y-64274067D01*
X100901298Y-64261334D01*
X100940558Y-64246350D01*
X100979817Y-64229117D01*
X100979842Y-64229104D01*
X100979854Y-64229099D01*
X101019065Y-64209640D01*
X101019065Y-64209639D01*
X101019077Y-64209634D01*
X101058337Y-64187901D01*
X101093089Y-64166671D01*
X101101934Y-64165283D01*
X101102640Y-64165477D01*
G37*
%TD.AperFunction*%
%TD*%
%TA.AperFunction,Conductor*%
%TO.N,/A14*%
G36*
X102965762Y-60356464D02*
G01*
X102967129Y-60357310D01*
X102993677Y-60376364D01*
X103024958Y-60396563D01*
X103038201Y-60404161D01*
X103056224Y-60414503D01*
X103087498Y-60430198D01*
X103118772Y-60443643D01*
X103150046Y-60454837D01*
X103181320Y-60463782D01*
X103212594Y-60470477D01*
X103243868Y-60474922D01*
X103243873Y-60474922D01*
X103243878Y-60474923D01*
X103255102Y-60475710D01*
X103268938Y-60476682D01*
X103276951Y-60480679D01*
X103278251Y-60482502D01*
X103416821Y-60722477D01*
X103417991Y-60731355D01*
X103412540Y-60738460D01*
X103408747Y-60739846D01*
X103402565Y-60740950D01*
X103380971Y-60744809D01*
X103380958Y-60744812D01*
X103380949Y-60744813D01*
X103336787Y-60754953D01*
X103336784Y-60754954D01*
X103292589Y-60767352D01*
X103248416Y-60781995D01*
X103204234Y-60798889D01*
X103160029Y-60818042D01*
X103115863Y-60839428D01*
X103071666Y-60863079D01*
X103027486Y-60888971D01*
X102987744Y-60914286D01*
X102978925Y-60915840D01*
X102978227Y-60915663D01*
X102066808Y-60653823D01*
X102059803Y-60648245D01*
X102058794Y-60639347D01*
X102064372Y-60632342D01*
X102066574Y-60631402D01*
X102956846Y-60355639D01*
X102965762Y-60356464D01*
G37*
%TD.AperFunction*%
%TD*%
%TA.AperFunction,Conductor*%
%TO.N,/R{slash}~{W}*%
G36*
X113993336Y-56104215D02*
G01*
X113993542Y-56104681D01*
X114294134Y-56828010D01*
X114294144Y-56836963D01*
X114294135Y-56836985D01*
X114294134Y-56836990D01*
X113993542Y-57560318D01*
X113987203Y-57566643D01*
X113978248Y-57566632D01*
X113977782Y-57566426D01*
X113812726Y-57489237D01*
X113811776Y-57488739D01*
X113670753Y-57406115D01*
X113669959Y-57405605D01*
X113554357Y-57324566D01*
X113553882Y-57324215D01*
X113454437Y-57246729D01*
X113362218Y-57175044D01*
X113317250Y-57144604D01*
X113268378Y-57111522D01*
X113268375Y-57111520D01*
X113268373Y-57111519D01*
X113163824Y-57058333D01*
X113039473Y-57017652D01*
X113039465Y-57017650D01*
X112886229Y-56991650D01*
X112706141Y-56983033D01*
X112698041Y-56979214D01*
X112695000Y-56971346D01*
X112695000Y-56693653D01*
X112698427Y-56685380D01*
X112706138Y-56681966D01*
X112886227Y-56673349D01*
X113039472Y-56647347D01*
X113163826Y-56606665D01*
X113268378Y-56553477D01*
X113362216Y-56489955D01*
X113454432Y-56418273D01*
X113553906Y-56340763D01*
X113554331Y-56340449D01*
X113669972Y-56259383D01*
X113670746Y-56258886D01*
X113811784Y-56176255D01*
X113812710Y-56175769D01*
X113977782Y-56098572D01*
X113986728Y-56098172D01*
X113993336Y-56104215D01*
G37*
%TD.AperFunction*%
%TD*%
%TA.AperFunction,Conductor*%
%TO.N,/~{CASRAM}*%
G36*
X113993336Y-71344215D02*
G01*
X113993542Y-71344681D01*
X114294134Y-72068010D01*
X114294144Y-72076963D01*
X114294135Y-72076985D01*
X114294134Y-72076990D01*
X113993542Y-72800318D01*
X113987203Y-72806643D01*
X113978248Y-72806632D01*
X113977782Y-72806426D01*
X113812726Y-72729237D01*
X113811776Y-72728739D01*
X113670753Y-72646115D01*
X113669959Y-72645605D01*
X113554357Y-72564566D01*
X113553882Y-72564215D01*
X113454437Y-72486729D01*
X113362218Y-72415044D01*
X113317250Y-72384604D01*
X113268378Y-72351522D01*
X113268375Y-72351520D01*
X113268373Y-72351519D01*
X113163824Y-72298333D01*
X113039473Y-72257652D01*
X113039465Y-72257650D01*
X112886229Y-72231650D01*
X112706141Y-72223033D01*
X112698041Y-72219214D01*
X112695000Y-72211346D01*
X112695000Y-71933653D01*
X112698427Y-71925380D01*
X112706138Y-71921966D01*
X112886227Y-71913349D01*
X113039472Y-71887347D01*
X113163826Y-71846665D01*
X113268378Y-71793477D01*
X113362216Y-71729955D01*
X113454432Y-71658273D01*
X113553906Y-71580763D01*
X113554331Y-71580449D01*
X113669972Y-71499383D01*
X113670746Y-71498886D01*
X113811784Y-71416255D01*
X113812710Y-71415769D01*
X113977782Y-71338572D01*
X113986728Y-71338172D01*
X113993336Y-71344215D01*
G37*
%TD.AperFunction*%
%TD*%
%TA.AperFunction,Conductor*%
%TO.N,/~{ROMH}*%
G36*
X99842846Y-69532489D02*
G01*
X99851116Y-69535923D01*
X99854536Y-69544199D01*
X99854527Y-69544644D01*
X99848430Y-69701317D01*
X99848370Y-69702131D01*
X99832409Y-69848438D01*
X99832341Y-69848954D01*
X99812471Y-69977638D01*
X99812464Y-69977680D01*
X99794266Y-70092762D01*
X99794261Y-70092797D01*
X99783330Y-70198376D01*
X99783330Y-70198379D01*
X99785252Y-70298641D01*
X99785253Y-70298646D01*
X99805602Y-70397818D01*
X99849957Y-70500141D01*
X99849960Y-70500145D01*
X99923897Y-70609846D01*
X99957050Y-70646712D01*
X100025572Y-70722910D01*
X100028556Y-70731353D01*
X100025145Y-70739006D01*
X99829066Y-70935085D01*
X99820793Y-70938512D01*
X99812588Y-70935152D01*
X99697936Y-70822334D01*
X99593721Y-70724924D01*
X99502510Y-70646712D01*
X99502502Y-70646705D01*
X99418615Y-70583365D01*
X99418606Y-70583358D01*
X99418596Y-70583351D01*
X99418590Y-70583347D01*
X99418580Y-70583340D01*
X99336287Y-70530502D01*
X99249833Y-70483791D01*
X99203731Y-70462290D01*
X99153584Y-70438902D01*
X99153566Y-70438894D01*
X99153561Y-70438892D01*
X99041855Y-70391492D01*
X98908797Y-70337154D01*
X98908798Y-70337151D01*
X98908782Y-70337148D01*
X98759707Y-70276052D01*
X98753351Y-70269744D01*
X98753318Y-70260789D01*
X99051303Y-69539033D01*
X99057628Y-69532695D01*
X99062123Y-69531799D01*
X99842846Y-69532489D01*
G37*
%TD.AperFunction*%
%TD*%
%TA.AperFunction,Conductor*%
%TO.N,/A12*%
G36*
X107345281Y-57416215D02*
G01*
X107463934Y-57464936D01*
X107470286Y-57471248D01*
X107470313Y-57471315D01*
X107578080Y-57733766D01*
X107578053Y-57742721D01*
X107571701Y-57749033D01*
X107571627Y-57749063D01*
X107519033Y-57770237D01*
X107518867Y-57770303D01*
X107465589Y-57790816D01*
X107465573Y-57790822D01*
X107420336Y-57808165D01*
X107381132Y-57824157D01*
X107381090Y-57824175D01*
X107345672Y-57840731D01*
X107345667Y-57840734D01*
X107311853Y-57859742D01*
X107294671Y-57871412D01*
X107277494Y-57883079D01*
X107277489Y-57883083D01*
X107240444Y-57912610D01*
X107240431Y-57912622D01*
X107198518Y-57950233D01*
X107157823Y-57989790D01*
X107149502Y-57993099D01*
X107141395Y-57989673D01*
X106945576Y-57793854D01*
X106942149Y-57785581D01*
X106945458Y-57777427D01*
X106985009Y-57736736D01*
X107022632Y-57694811D01*
X107052169Y-57657755D01*
X107075503Y-57623400D01*
X107094513Y-57589582D01*
X107111083Y-57554133D01*
X107127094Y-57514886D01*
X107144426Y-57469675D01*
X107164963Y-57416334D01*
X107186186Y-57363621D01*
X107192455Y-57357228D01*
X107201409Y-57357139D01*
X107345281Y-57416215D01*
G37*
%TD.AperFunction*%
%TD*%
%TA.AperFunction,Conductor*%
%TO.N,/~{KERNAL}*%
G36*
X113993336Y-76424215D02*
G01*
X113993542Y-76424681D01*
X114294134Y-77148010D01*
X114294144Y-77156963D01*
X114294135Y-77156985D01*
X114294134Y-77156990D01*
X113993542Y-77880318D01*
X113987203Y-77886643D01*
X113978248Y-77886632D01*
X113977782Y-77886426D01*
X113812726Y-77809237D01*
X113811776Y-77808739D01*
X113670753Y-77726115D01*
X113669959Y-77725605D01*
X113554357Y-77644566D01*
X113553882Y-77644215D01*
X113454437Y-77566729D01*
X113362218Y-77495044D01*
X113317250Y-77464604D01*
X113268378Y-77431522D01*
X113268375Y-77431520D01*
X113268373Y-77431519D01*
X113163824Y-77378333D01*
X113039473Y-77337652D01*
X113039465Y-77337650D01*
X112886229Y-77311650D01*
X112706141Y-77303033D01*
X112698041Y-77299214D01*
X112695000Y-77291346D01*
X112695000Y-77013653D01*
X112698427Y-77005380D01*
X112706138Y-77001966D01*
X112886227Y-76993349D01*
X113039472Y-76967347D01*
X113163826Y-76926665D01*
X113268378Y-76873477D01*
X113362216Y-76809955D01*
X113454432Y-76738273D01*
X113553906Y-76660763D01*
X113554331Y-76660449D01*
X113669972Y-76579383D01*
X113670746Y-76578886D01*
X113811784Y-76496255D01*
X113812710Y-76495769D01*
X113977782Y-76418572D01*
X113986728Y-76418172D01*
X113993336Y-76424215D01*
G37*
%TD.AperFunction*%
%TD*%
%TA.AperFunction,Conductor*%
%TO.N,/FE*%
G36*
X105328488Y-63220927D02*
G01*
X105331914Y-63229034D01*
X105332718Y-63285773D01*
X105335760Y-63342011D01*
X105335760Y-63342015D01*
X105341078Y-63389110D01*
X105348870Y-63429898D01*
X105359341Y-63467257D01*
X105372697Y-63504055D01*
X105389109Y-63543083D01*
X105408834Y-63587337D01*
X105408831Y-63587338D01*
X105408840Y-63587351D01*
X105431992Y-63639490D01*
X105432063Y-63639653D01*
X105454297Y-63691855D01*
X105454386Y-63700810D01*
X105448118Y-63707204D01*
X105448044Y-63707236D01*
X105186261Y-63816615D01*
X105177306Y-63816642D01*
X105177239Y-63816615D01*
X104915455Y-63707236D01*
X104909143Y-63700884D01*
X104909169Y-63691931D01*
X104931468Y-63639577D01*
X104954664Y-63587337D01*
X104954666Y-63587337D01*
X104954668Y-63587327D01*
X104974377Y-63543112D01*
X104990808Y-63504039D01*
X105004157Y-63467256D01*
X105014628Y-63429900D01*
X105022421Y-63389109D01*
X105027738Y-63342020D01*
X105030780Y-63285771D01*
X105031586Y-63229033D01*
X105035130Y-63220810D01*
X105043285Y-63217500D01*
X105320215Y-63217500D01*
X105328488Y-63220927D01*
G37*
%TD.AperFunction*%
%TD*%
%TA.AperFunction,Conductor*%
%TO.N,/~{AEC}*%
G36*
X109956544Y-55672763D02*
G01*
X109962856Y-55679115D01*
X109962829Y-55688070D01*
X109962797Y-55688144D01*
X109940563Y-55740345D01*
X109940492Y-55740508D01*
X109917340Y-55792647D01*
X109917334Y-55792662D01*
X109897609Y-55836915D01*
X109881197Y-55875943D01*
X109867841Y-55912741D01*
X109857370Y-55950100D01*
X109849578Y-55990888D01*
X109844260Y-56037983D01*
X109844260Y-56037987D01*
X109841218Y-56094225D01*
X109840414Y-56150966D01*
X109836870Y-56159190D01*
X109828715Y-56162500D01*
X109551785Y-56162500D01*
X109543512Y-56159073D01*
X109540086Y-56150966D01*
X109539280Y-56094225D01*
X109536238Y-56037987D01*
X109536238Y-56037983D01*
X109536238Y-56037979D01*
X109530921Y-55990890D01*
X109523128Y-55950099D01*
X109512657Y-55912743D01*
X109499308Y-55875960D01*
X109482877Y-55836887D01*
X109463164Y-55792662D01*
X109439968Y-55740422D01*
X109417701Y-55688143D01*
X109417613Y-55679189D01*
X109423881Y-55672795D01*
X109423907Y-55672783D01*
X109685740Y-55563383D01*
X109694694Y-55563357D01*
X109956544Y-55672763D01*
G37*
%TD.AperFunction*%
%TD*%
%TA.AperFunction,Conductor*%
%TO.N,GND*%
G36*
X106163335Y-69075016D02*
G01*
X106169638Y-69081320D01*
X106355627Y-69528003D01*
X106355644Y-69536957D01*
X106355627Y-69536997D01*
X106169638Y-69983678D01*
X106163294Y-69989999D01*
X106154380Y-69989999D01*
X106061068Y-69951557D01*
X106060010Y-69951135D01*
X105974352Y-69917001D01*
X105900416Y-69889869D01*
X105900410Y-69889867D01*
X105900404Y-69889865D01*
X105834690Y-69869265D01*
X105772610Y-69854295D01*
X105772606Y-69854294D01*
X105709563Y-69844054D01*
X105709559Y-69844053D01*
X105641043Y-69837655D01*
X105562372Y-69834192D01*
X105469032Y-69832772D01*
X105368172Y-69832528D01*
X105359907Y-69829081D01*
X105356500Y-69820828D01*
X105356500Y-69244171D01*
X105359927Y-69235898D01*
X105368170Y-69232471D01*
X105469058Y-69232226D01*
X105562372Y-69230807D01*
X105641016Y-69227345D01*
X105641032Y-69227343D01*
X105641043Y-69227343D01*
X105709546Y-69220946D01*
X105709547Y-69220945D01*
X105709566Y-69220944D01*
X105772599Y-69210705D01*
X105834690Y-69195733D01*
X105900416Y-69175129D01*
X105974352Y-69147997D01*
X106061073Y-69113440D01*
X106154382Y-69074999D01*
X106163335Y-69075016D01*
G37*
%TD.AperFunction*%
%TD*%
%TA.AperFunction,Conductor*%
%TO.N,/~{IRAM}*%
G36*
X99371751Y-61178367D02*
G01*
X99372217Y-61178573D01*
X99537279Y-61255765D01*
X99538222Y-61256260D01*
X99679237Y-61338877D01*
X99680039Y-61339392D01*
X99795640Y-61420431D01*
X99796109Y-61420778D01*
X99895567Y-61498273D01*
X99987782Y-61569955D01*
X100081621Y-61633477D01*
X100186172Y-61686665D01*
X100310526Y-61727347D01*
X100463772Y-61753349D01*
X100643861Y-61761966D01*
X100651959Y-61765785D01*
X100655000Y-61773653D01*
X100655000Y-62051346D01*
X100651573Y-62059619D01*
X100643859Y-62063033D01*
X100463769Y-62071650D01*
X100310532Y-62097650D01*
X100310524Y-62097652D01*
X100186173Y-62138333D01*
X100081625Y-62191519D01*
X99987779Y-62255044D01*
X99895562Y-62326729D01*
X99796115Y-62404215D01*
X99795640Y-62404566D01*
X99680039Y-62485605D01*
X99679238Y-62486120D01*
X99538231Y-62568734D01*
X99537272Y-62569237D01*
X99372217Y-62646426D01*
X99363272Y-62646827D01*
X99356663Y-62640784D01*
X99356457Y-62640318D01*
X99258340Y-62404215D01*
X99055864Y-61916987D01*
X99055854Y-61908038D01*
X99356457Y-61184680D01*
X99362796Y-61178356D01*
X99371751Y-61178367D01*
G37*
%TD.AperFunction*%
%TD*%
%TA.AperFunction,Conductor*%
%TO.N,/VA13*%
G36*
X113993336Y-63724215D02*
G01*
X113993542Y-63724681D01*
X114294134Y-64448010D01*
X114294144Y-64456963D01*
X114294135Y-64456985D01*
X114294134Y-64456990D01*
X113993542Y-65180318D01*
X113987203Y-65186643D01*
X113978248Y-65186632D01*
X113977782Y-65186426D01*
X113812726Y-65109237D01*
X113811776Y-65108739D01*
X113670753Y-65026115D01*
X113669959Y-65025605D01*
X113554357Y-64944566D01*
X113553882Y-64944215D01*
X113454437Y-64866729D01*
X113362218Y-64795044D01*
X113317250Y-64764604D01*
X113268378Y-64731522D01*
X113268375Y-64731520D01*
X113268373Y-64731519D01*
X113163824Y-64678333D01*
X113039473Y-64637652D01*
X113039465Y-64637650D01*
X112886229Y-64611650D01*
X112706141Y-64603033D01*
X112698041Y-64599214D01*
X112695000Y-64591346D01*
X112695000Y-64313653D01*
X112698427Y-64305380D01*
X112706138Y-64301966D01*
X112886227Y-64293349D01*
X113039472Y-64267347D01*
X113163826Y-64226665D01*
X113268378Y-64173477D01*
X113362216Y-64109955D01*
X113454432Y-64038273D01*
X113553906Y-63960763D01*
X113554331Y-63960449D01*
X113669972Y-63879383D01*
X113670746Y-63878886D01*
X113811784Y-63796255D01*
X113812710Y-63795769D01*
X113977782Y-63718572D01*
X113986728Y-63718172D01*
X113993336Y-63724215D01*
G37*
%TD.AperFunction*%
%TD*%
%TA.AperFunction,Conductor*%
%TO.N,/VA12*%
G36*
X113993336Y-66264215D02*
G01*
X113993542Y-66264681D01*
X114294134Y-66988010D01*
X114294144Y-66996963D01*
X114294135Y-66996985D01*
X114294134Y-66996990D01*
X113993542Y-67720318D01*
X113987203Y-67726643D01*
X113978248Y-67726632D01*
X113977782Y-67726426D01*
X113812726Y-67649237D01*
X113811776Y-67648739D01*
X113670753Y-67566115D01*
X113669959Y-67565605D01*
X113554357Y-67484566D01*
X113553882Y-67484215D01*
X113454437Y-67406729D01*
X113362218Y-67335044D01*
X113317250Y-67304604D01*
X113268378Y-67271522D01*
X113268375Y-67271520D01*
X113268373Y-67271519D01*
X113163824Y-67218333D01*
X113039473Y-67177652D01*
X113039465Y-67177650D01*
X112886229Y-67151650D01*
X112706141Y-67143033D01*
X112698041Y-67139214D01*
X112695000Y-67131346D01*
X112695000Y-66853653D01*
X112698427Y-66845380D01*
X112706138Y-66841966D01*
X112886227Y-66833349D01*
X113039472Y-66807347D01*
X113163826Y-66766665D01*
X113268378Y-66713477D01*
X113362216Y-66649955D01*
X113454432Y-66578273D01*
X113553906Y-66500763D01*
X113554331Y-66500449D01*
X113669972Y-66419383D01*
X113670746Y-66418886D01*
X113811784Y-66336255D01*
X113812710Y-66335769D01*
X113977782Y-66258572D01*
X113986728Y-66258172D01*
X113993336Y-66264215D01*
G37*
%TD.AperFunction*%
%TD*%
%TA.AperFunction,Conductor*%
%TO.N,/~{IRAM}*%
G36*
X101102640Y-61625477D02*
G01*
X101308480Y-61689117D01*
X101994845Y-61901322D01*
X102001737Y-61907040D01*
X102002567Y-61915956D01*
X101996849Y-61922848D01*
X101994845Y-61923678D01*
X101102643Y-62199521D01*
X101093727Y-62198691D01*
X101093087Y-62198327D01*
X101058327Y-62177092D01*
X101019081Y-62155367D01*
X101019065Y-62155358D01*
X100979854Y-62135899D01*
X100979798Y-62135873D01*
X100940556Y-62118648D01*
X100901295Y-62103665D01*
X100862047Y-62090934D01*
X100822797Y-62080453D01*
X100822774Y-62080448D01*
X100783506Y-62072213D01*
X100744261Y-62066233D01*
X100744236Y-62066230D01*
X100715592Y-62063506D01*
X100707681Y-62059312D01*
X100705000Y-62051859D01*
X100705000Y-61773139D01*
X100708427Y-61764866D01*
X100715591Y-61761492D01*
X100728594Y-61760255D01*
X100744223Y-61758770D01*
X100744240Y-61758767D01*
X100744259Y-61758766D01*
X100783519Y-61752783D01*
X100822779Y-61744550D01*
X100862038Y-61734067D01*
X100901298Y-61721334D01*
X100940558Y-61706350D01*
X100979817Y-61689117D01*
X100979842Y-61689104D01*
X100979854Y-61689099D01*
X101019065Y-61669640D01*
X101019065Y-61669639D01*
X101019077Y-61669634D01*
X101058337Y-61647901D01*
X101093089Y-61626671D01*
X101101934Y-61625283D01*
X101102640Y-61625477D01*
G37*
%TD.AperFunction*%
%TD*%
%TA.AperFunction,Conductor*%
%TO.N,/~{CHAROM}*%
G36*
X110402640Y-62895477D02*
G01*
X110608480Y-62959117D01*
X111294845Y-63171322D01*
X111301737Y-63177040D01*
X111302567Y-63185956D01*
X111296849Y-63192848D01*
X111294845Y-63193678D01*
X110402643Y-63469521D01*
X110393727Y-63468691D01*
X110393087Y-63468327D01*
X110358327Y-63447092D01*
X110319081Y-63425367D01*
X110319065Y-63425358D01*
X110279854Y-63405899D01*
X110279798Y-63405873D01*
X110240556Y-63388648D01*
X110201295Y-63373665D01*
X110162047Y-63360934D01*
X110122797Y-63350453D01*
X110122774Y-63350448D01*
X110083506Y-63342213D01*
X110044261Y-63336233D01*
X110044236Y-63336230D01*
X110015592Y-63333506D01*
X110007681Y-63329312D01*
X110005000Y-63321859D01*
X110005000Y-63043139D01*
X110008427Y-63034866D01*
X110015591Y-63031492D01*
X110028594Y-63030255D01*
X110044223Y-63028770D01*
X110044240Y-63028767D01*
X110044259Y-63028766D01*
X110083519Y-63022783D01*
X110122779Y-63014550D01*
X110162038Y-63004067D01*
X110201298Y-62991334D01*
X110240558Y-62976350D01*
X110279817Y-62959117D01*
X110279842Y-62959104D01*
X110279854Y-62959099D01*
X110319065Y-62939640D01*
X110319065Y-62939639D01*
X110319077Y-62939634D01*
X110358337Y-62917901D01*
X110393089Y-62896671D01*
X110401934Y-62895283D01*
X110402640Y-62895477D01*
G37*
%TD.AperFunction*%
%TD*%
%TA.AperFunction,Conductor*%
%TO.N,/~{GAME}*%
G36*
X113993336Y-61184215D02*
G01*
X113993542Y-61184681D01*
X114294134Y-61908010D01*
X114294144Y-61916963D01*
X114294135Y-61916985D01*
X114294134Y-61916990D01*
X113993542Y-62640318D01*
X113987203Y-62646643D01*
X113978248Y-62646632D01*
X113977782Y-62646426D01*
X113812726Y-62569237D01*
X113811776Y-62568739D01*
X113670753Y-62486115D01*
X113669959Y-62485605D01*
X113554357Y-62404566D01*
X113553882Y-62404215D01*
X113454437Y-62326729D01*
X113362218Y-62255044D01*
X113317250Y-62224604D01*
X113268378Y-62191522D01*
X113268375Y-62191520D01*
X113268373Y-62191519D01*
X113163824Y-62138333D01*
X113039473Y-62097652D01*
X113039465Y-62097650D01*
X112886229Y-62071650D01*
X112706141Y-62063033D01*
X112698041Y-62059214D01*
X112695000Y-62051346D01*
X112695000Y-61773653D01*
X112698427Y-61765380D01*
X112706138Y-61761966D01*
X112886227Y-61753349D01*
X113039472Y-61727347D01*
X113163826Y-61686665D01*
X113268378Y-61633477D01*
X113362216Y-61569955D01*
X113454432Y-61498273D01*
X113553906Y-61420763D01*
X113554331Y-61420449D01*
X113669972Y-61339383D01*
X113670746Y-61338886D01*
X113811784Y-61256255D01*
X113812710Y-61255769D01*
X113977782Y-61178572D01*
X113986728Y-61178172D01*
X113993336Y-61184215D01*
G37*
%TD.AperFunction*%
%TD*%
%TA.AperFunction,Conductor*%
%TO.N,/~{VA14}*%
G36*
X101102640Y-56545477D02*
G01*
X101308480Y-56609117D01*
X101994845Y-56821322D01*
X102001737Y-56827040D01*
X102002567Y-56835956D01*
X101996849Y-56842848D01*
X101994845Y-56843678D01*
X101102643Y-57119521D01*
X101093727Y-57118691D01*
X101093087Y-57118327D01*
X101058327Y-57097092D01*
X101019081Y-57075367D01*
X101019065Y-57075358D01*
X100979854Y-57055899D01*
X100979798Y-57055873D01*
X100940556Y-57038648D01*
X100901295Y-57023665D01*
X100862047Y-57010934D01*
X100822797Y-57000453D01*
X100822774Y-57000448D01*
X100783506Y-56992213D01*
X100744261Y-56986233D01*
X100744236Y-56986230D01*
X100715592Y-56983506D01*
X100707681Y-56979312D01*
X100705000Y-56971859D01*
X100705000Y-56693139D01*
X100708427Y-56684866D01*
X100715591Y-56681492D01*
X100728594Y-56680255D01*
X100744223Y-56678770D01*
X100744240Y-56678767D01*
X100744259Y-56678766D01*
X100783519Y-56672783D01*
X100822779Y-56664550D01*
X100862038Y-56654067D01*
X100901298Y-56641334D01*
X100940558Y-56626350D01*
X100979817Y-56609117D01*
X100979842Y-56609104D01*
X100979854Y-56609099D01*
X101019065Y-56589640D01*
X101019065Y-56589639D01*
X101019077Y-56589634D01*
X101058337Y-56567901D01*
X101093089Y-56546671D01*
X101101934Y-56545283D01*
X101102640Y-56545477D01*
G37*
%TD.AperFunction*%
%TD*%
%TA.AperFunction,Conductor*%
%TO.N,/A12*%
G36*
X102966272Y-66706308D02*
G01*
X102966899Y-66706665D01*
X103001662Y-66727901D01*
X103001670Y-66727905D01*
X103001671Y-66727906D01*
X103040917Y-66749631D01*
X103040933Y-66749640D01*
X103080144Y-66769099D01*
X103080170Y-66769111D01*
X103080182Y-66769117D01*
X103119441Y-66786350D01*
X103158701Y-66801334D01*
X103187856Y-66810789D01*
X103197951Y-66814064D01*
X103197955Y-66814065D01*
X103197961Y-66814067D01*
X103237220Y-66824550D01*
X103276480Y-66832783D01*
X103276489Y-66832784D01*
X103276492Y-66832785D01*
X103315720Y-66838763D01*
X103315740Y-66838766D01*
X103315754Y-66838767D01*
X103315775Y-66838770D01*
X103332116Y-66840323D01*
X103344408Y-66841492D01*
X103352319Y-66845686D01*
X103355000Y-66853139D01*
X103355000Y-67131860D01*
X103351573Y-67140133D01*
X103344407Y-67143507D01*
X103315764Y-67146229D01*
X103315737Y-67146233D01*
X103276492Y-67152213D01*
X103237224Y-67160448D01*
X103237201Y-67160453D01*
X103197951Y-67170934D01*
X103158703Y-67183665D01*
X103119442Y-67198648D01*
X103080200Y-67215873D01*
X103080144Y-67215899D01*
X103040933Y-67235358D01*
X103040917Y-67235367D01*
X103001660Y-67257098D01*
X102966910Y-67278327D01*
X102958064Y-67279716D01*
X102957355Y-67279521D01*
X102420125Y-67113425D01*
X102065153Y-67003677D01*
X102058262Y-66997960D01*
X102057432Y-66989044D01*
X102063150Y-66982152D01*
X102065152Y-66981322D01*
X102957356Y-66705478D01*
X102966272Y-66706308D01*
G37*
%TD.AperFunction*%
%TD*%
%TA.AperFunction,Conductor*%
%TO.N,/A14*%
G36*
X103924044Y-58847763D02*
G01*
X103930356Y-58854115D01*
X103930329Y-58863070D01*
X103930297Y-58863144D01*
X103908063Y-58915345D01*
X103907992Y-58915508D01*
X103884840Y-58967647D01*
X103884834Y-58967662D01*
X103865109Y-59011915D01*
X103848697Y-59050943D01*
X103835341Y-59087741D01*
X103824870Y-59125100D01*
X103817078Y-59165888D01*
X103811760Y-59212983D01*
X103811760Y-59212987D01*
X103808718Y-59269225D01*
X103807914Y-59325966D01*
X103804370Y-59334190D01*
X103796215Y-59337500D01*
X103519285Y-59337500D01*
X103511012Y-59334073D01*
X103507586Y-59325966D01*
X103506780Y-59269225D01*
X103503738Y-59212987D01*
X103503738Y-59212983D01*
X103503738Y-59212979D01*
X103498421Y-59165890D01*
X103490628Y-59125099D01*
X103480157Y-59087743D01*
X103466808Y-59050960D01*
X103450377Y-59011887D01*
X103430664Y-58967662D01*
X103407468Y-58915422D01*
X103385201Y-58863143D01*
X103385113Y-58854189D01*
X103391381Y-58847795D01*
X103391407Y-58847783D01*
X103653240Y-58738383D01*
X103662194Y-58738357D01*
X103924044Y-58847763D01*
G37*
%TD.AperFunction*%
%TD*%
%TA.AperFunction,Conductor*%
%TO.N,/FE*%
G36*
X99371751Y-45938367D02*
G01*
X99372217Y-45938573D01*
X99537279Y-46015765D01*
X99538222Y-46016260D01*
X99679237Y-46098877D01*
X99680039Y-46099392D01*
X99795640Y-46180431D01*
X99796109Y-46180778D01*
X99895567Y-46258273D01*
X99987782Y-46329955D01*
X100081621Y-46393477D01*
X100186172Y-46446665D01*
X100310526Y-46487347D01*
X100463772Y-46513349D01*
X100643861Y-46521966D01*
X100651959Y-46525785D01*
X100655000Y-46533653D01*
X100655000Y-46811346D01*
X100651573Y-46819619D01*
X100643859Y-46823033D01*
X100463769Y-46831650D01*
X100310532Y-46857650D01*
X100310524Y-46857652D01*
X100186173Y-46898333D01*
X100081625Y-46951519D01*
X99987779Y-47015044D01*
X99895562Y-47086729D01*
X99796115Y-47164215D01*
X99795640Y-47164566D01*
X99680039Y-47245605D01*
X99679238Y-47246120D01*
X99538231Y-47328734D01*
X99537272Y-47329237D01*
X99372217Y-47406426D01*
X99363272Y-47406827D01*
X99356663Y-47400784D01*
X99356457Y-47400318D01*
X99258340Y-47164215D01*
X99055864Y-46676987D01*
X99055854Y-46668038D01*
X99356457Y-45944680D01*
X99362796Y-45938356D01*
X99371751Y-45938367D01*
G37*
%TD.AperFunction*%
%TD*%
%TA.AperFunction,Conductor*%
%TO.N,/TCR*%
G36*
X101102640Y-57815477D02*
G01*
X101308480Y-57879117D01*
X101994845Y-58091322D01*
X102001737Y-58097040D01*
X102002567Y-58105956D01*
X101996849Y-58112848D01*
X101994845Y-58113678D01*
X101102643Y-58389521D01*
X101093727Y-58388691D01*
X101093087Y-58388327D01*
X101058327Y-58367092D01*
X101019081Y-58345367D01*
X101019065Y-58345358D01*
X100979854Y-58325899D01*
X100979798Y-58325873D01*
X100940556Y-58308648D01*
X100901295Y-58293665D01*
X100862047Y-58280934D01*
X100822797Y-58270453D01*
X100822774Y-58270448D01*
X100783506Y-58262213D01*
X100744261Y-58256233D01*
X100744236Y-58256230D01*
X100715592Y-58253506D01*
X100707681Y-58249312D01*
X100705000Y-58241859D01*
X100705000Y-57963139D01*
X100708427Y-57954866D01*
X100715591Y-57951492D01*
X100728594Y-57950255D01*
X100744223Y-57948770D01*
X100744240Y-57948767D01*
X100744259Y-57948766D01*
X100783519Y-57942783D01*
X100822779Y-57934550D01*
X100862038Y-57924067D01*
X100901298Y-57911334D01*
X100940558Y-57896350D01*
X100979817Y-57879117D01*
X100979842Y-57879104D01*
X100979854Y-57879099D01*
X101019065Y-57859640D01*
X101019065Y-57859639D01*
X101019077Y-57859634D01*
X101058337Y-57837901D01*
X101093089Y-57816671D01*
X101101934Y-57815283D01*
X101102640Y-57815477D01*
G37*
%TD.AperFunction*%
%TD*%
%TA.AperFunction,Conductor*%
%TO.N,/A14*%
G36*
X103796392Y-58255163D02*
G01*
X103804615Y-58258708D01*
X103807922Y-58266667D01*
X103808608Y-58307978D01*
X103812750Y-58350916D01*
X103812751Y-58350926D01*
X103819919Y-58386452D01*
X103819921Y-58386458D01*
X103827314Y-58409054D01*
X103829076Y-58414439D01*
X103829876Y-58416882D01*
X103829879Y-58416891D01*
X103842380Y-58444538D01*
X103842397Y-58444573D01*
X103857208Y-58471774D01*
X103874069Y-58500805D01*
X103874148Y-58500943D01*
X103892742Y-58533983D01*
X103892965Y-58534399D01*
X103913060Y-58573739D01*
X103913326Y-58574295D01*
X103930033Y-58611752D01*
X103930274Y-58620704D01*
X103924114Y-58627203D01*
X103923858Y-58627314D01*
X103662246Y-58736614D01*
X103653292Y-58736641D01*
X103653225Y-58736614D01*
X103564633Y-58699596D01*
X103391603Y-58627298D01*
X103385292Y-58620947D01*
X103385319Y-58611992D01*
X103385414Y-58611773D01*
X103385423Y-58611752D01*
X103402236Y-58573717D01*
X103402438Y-58573287D01*
X103422337Y-58533350D01*
X103422484Y-58533067D01*
X103440672Y-58499510D01*
X103457014Y-58470040D01*
X103457022Y-58470025D01*
X103471296Y-58442487D01*
X103471311Y-58442456D01*
X103482370Y-58416891D01*
X103483431Y-58414439D01*
X103493261Y-58383625D01*
X103500675Y-58347681D01*
X103505551Y-58304265D01*
X103507292Y-58262409D01*
X103511060Y-58254287D01*
X103519146Y-58251198D01*
X103796392Y-58255163D01*
G37*
%TD.AperFunction*%
%TD*%
%TA.AperFunction,Conductor*%
%TO.N,/A15*%
G36*
X102966272Y-55276308D02*
G01*
X102966899Y-55276665D01*
X103001662Y-55297901D01*
X103001670Y-55297905D01*
X103001671Y-55297906D01*
X103040917Y-55319631D01*
X103040933Y-55319640D01*
X103080144Y-55339099D01*
X103080170Y-55339111D01*
X103080182Y-55339117D01*
X103119441Y-55356350D01*
X103158701Y-55371334D01*
X103187856Y-55380789D01*
X103197951Y-55384064D01*
X103197955Y-55384065D01*
X103197961Y-55384067D01*
X103237220Y-55394550D01*
X103276480Y-55402783D01*
X103276489Y-55402784D01*
X103276492Y-55402785D01*
X103315720Y-55408763D01*
X103315740Y-55408766D01*
X103315754Y-55408767D01*
X103315775Y-55408770D01*
X103332116Y-55410323D01*
X103344408Y-55411492D01*
X103352319Y-55415686D01*
X103355000Y-55423139D01*
X103355000Y-55701860D01*
X103351573Y-55710133D01*
X103344407Y-55713507D01*
X103315764Y-55716229D01*
X103315737Y-55716233D01*
X103276492Y-55722213D01*
X103237224Y-55730448D01*
X103237201Y-55730453D01*
X103197951Y-55740934D01*
X103158703Y-55753665D01*
X103119442Y-55768648D01*
X103080200Y-55785873D01*
X103080144Y-55785899D01*
X103040933Y-55805358D01*
X103040917Y-55805367D01*
X103001660Y-55827098D01*
X102966910Y-55848327D01*
X102958064Y-55849716D01*
X102957355Y-55849521D01*
X102420125Y-55683425D01*
X102065153Y-55573677D01*
X102058262Y-55567960D01*
X102057432Y-55559044D01*
X102063150Y-55552152D01*
X102065152Y-55551322D01*
X102957356Y-55275478D01*
X102966272Y-55276308D01*
G37*
%TD.AperFunction*%
%TD*%
%TA.AperFunction,Conductor*%
%TO.N,/~{OE}*%
G36*
X113993336Y-68804215D02*
G01*
X113993542Y-68804681D01*
X114294134Y-69528010D01*
X114294144Y-69536963D01*
X114294135Y-69536985D01*
X114294134Y-69536990D01*
X113993542Y-70260318D01*
X113987203Y-70266643D01*
X113978248Y-70266632D01*
X113977782Y-70266426D01*
X113812726Y-70189237D01*
X113811776Y-70188739D01*
X113670753Y-70106115D01*
X113669959Y-70105605D01*
X113554357Y-70024566D01*
X113553882Y-70024215D01*
X113454437Y-69946729D01*
X113362218Y-69875044D01*
X113317250Y-69844604D01*
X113268378Y-69811522D01*
X113268375Y-69811520D01*
X113268373Y-69811519D01*
X113163824Y-69758333D01*
X113039473Y-69717652D01*
X113039465Y-69717650D01*
X112886229Y-69691650D01*
X112706141Y-69683033D01*
X112698041Y-69679214D01*
X112695000Y-69671346D01*
X112695000Y-69393653D01*
X112698427Y-69385380D01*
X112706138Y-69381966D01*
X112886227Y-69373349D01*
X113039472Y-69347347D01*
X113163826Y-69306665D01*
X113268378Y-69253477D01*
X113362216Y-69189955D01*
X113454432Y-69118273D01*
X113553906Y-69040763D01*
X113554331Y-69040449D01*
X113669972Y-68959383D01*
X113670746Y-68958886D01*
X113811784Y-68876255D01*
X113812710Y-68875769D01*
X113977782Y-68798572D01*
X113986728Y-68798172D01*
X113993336Y-68804215D01*
G37*
%TD.AperFunction*%
%TD*%
%TA.AperFunction,Conductor*%
%TO.N,/~{EXROM}*%
G36*
X112266272Y-59086308D02*
G01*
X112266899Y-59086665D01*
X112301662Y-59107901D01*
X112301670Y-59107905D01*
X112301671Y-59107906D01*
X112340917Y-59129631D01*
X112340933Y-59129640D01*
X112380144Y-59149099D01*
X112380170Y-59149111D01*
X112380182Y-59149117D01*
X112419441Y-59166350D01*
X112458701Y-59181334D01*
X112487856Y-59190789D01*
X112497951Y-59194064D01*
X112497955Y-59194065D01*
X112497961Y-59194067D01*
X112537220Y-59204550D01*
X112576480Y-59212783D01*
X112576489Y-59212784D01*
X112576492Y-59212785D01*
X112615720Y-59218763D01*
X112615740Y-59218766D01*
X112615754Y-59218767D01*
X112615775Y-59218770D01*
X112632116Y-59220323D01*
X112644408Y-59221492D01*
X112652319Y-59225686D01*
X112655000Y-59233139D01*
X112655000Y-59511860D01*
X112651573Y-59520133D01*
X112644407Y-59523507D01*
X112615764Y-59526229D01*
X112615737Y-59526233D01*
X112576492Y-59532213D01*
X112537224Y-59540448D01*
X112537201Y-59540453D01*
X112497951Y-59550934D01*
X112458703Y-59563665D01*
X112419442Y-59578648D01*
X112380200Y-59595873D01*
X112380144Y-59595899D01*
X112340933Y-59615358D01*
X112340917Y-59615367D01*
X112301660Y-59637098D01*
X112266910Y-59658327D01*
X112258064Y-59659716D01*
X112257355Y-59659521D01*
X111720125Y-59493425D01*
X111365153Y-59383677D01*
X111358262Y-59377960D01*
X111357432Y-59369044D01*
X111363150Y-59362152D01*
X111365152Y-59361322D01*
X112257356Y-59085478D01*
X112266272Y-59086308D01*
G37*
%TD.AperFunction*%
%TD*%
%TA.AperFunction,Conductor*%
%TO.N,/~{CAS}*%
G36*
X101919703Y-70536135D02*
G01*
X101919806Y-70536374D01*
X102029114Y-70798011D01*
X102029141Y-70806965D01*
X102029113Y-70807032D01*
X101919784Y-71068679D01*
X101913433Y-71074991D01*
X101904478Y-71074963D01*
X101904292Y-71074884D01*
X101864328Y-71057365D01*
X101863912Y-71057173D01*
X101822349Y-71036978D01*
X101822061Y-71036833D01*
X101787065Y-71018621D01*
X101787070Y-71018611D01*
X101787025Y-71018600D01*
X101756296Y-71002462D01*
X101756277Y-71002452D01*
X101737707Y-70993435D01*
X101727439Y-70988449D01*
X101698127Y-70976650D01*
X101698117Y-70976647D01*
X101665951Y-70967110D01*
X101665943Y-70967107D01*
X101628488Y-70959868D01*
X101628481Y-70959867D01*
X101583330Y-70954971D01*
X101583332Y-70954971D01*
X101539487Y-70952983D01*
X101531377Y-70949185D01*
X101528320Y-70941047D01*
X101531259Y-70802521D01*
X101534199Y-70663890D01*
X101537800Y-70655692D01*
X101545797Y-70652439D01*
X101588858Y-70652080D01*
X101616366Y-70649748D01*
X101633288Y-70648314D01*
X101633304Y-70648312D01*
X101653466Y-70644556D01*
X101670131Y-70641453D01*
X101701749Y-70631720D01*
X101730529Y-70619335D01*
X101758852Y-70604518D01*
X101789028Y-70587528D01*
X101789098Y-70587490D01*
X101823478Y-70568563D01*
X101823824Y-70568380D01*
X101864660Y-70547791D01*
X101865105Y-70547580D01*
X101904262Y-70530190D01*
X101913213Y-70529965D01*
X101919703Y-70536135D01*
G37*
%TD.AperFunction*%
%TD*%
%TA.AperFunction,Conductor*%
%TO.N,/FE*%
G36*
X102966272Y-65436308D02*
G01*
X102966899Y-65436665D01*
X103001662Y-65457901D01*
X103001670Y-65457905D01*
X103001671Y-65457906D01*
X103040917Y-65479631D01*
X103040933Y-65479640D01*
X103080144Y-65499099D01*
X103080170Y-65499111D01*
X103080182Y-65499117D01*
X103119441Y-65516350D01*
X103158701Y-65531334D01*
X103187856Y-65540789D01*
X103197951Y-65544064D01*
X103197955Y-65544065D01*
X103197961Y-65544067D01*
X103237220Y-65554550D01*
X103276480Y-65562783D01*
X103276489Y-65562784D01*
X103276492Y-65562785D01*
X103315720Y-65568763D01*
X103315740Y-65568766D01*
X103315754Y-65568767D01*
X103315775Y-65568770D01*
X103332116Y-65570323D01*
X103344408Y-65571492D01*
X103352319Y-65575686D01*
X103355000Y-65583139D01*
X103355000Y-65861860D01*
X103351573Y-65870133D01*
X103344407Y-65873507D01*
X103315764Y-65876229D01*
X103315737Y-65876233D01*
X103276492Y-65882213D01*
X103237224Y-65890448D01*
X103237201Y-65890453D01*
X103197951Y-65900934D01*
X103158703Y-65913665D01*
X103119442Y-65928648D01*
X103080200Y-65945873D01*
X103080144Y-65945899D01*
X103040933Y-65965358D01*
X103040917Y-65965367D01*
X103001660Y-65987098D01*
X102966910Y-66008327D01*
X102958064Y-66009716D01*
X102957355Y-66009521D01*
X102420125Y-65843425D01*
X102065153Y-65733677D01*
X102058262Y-65727960D01*
X102057432Y-65719044D01*
X102063150Y-65712152D01*
X102065152Y-65711322D01*
X102957356Y-65435478D01*
X102966272Y-65436308D01*
G37*
%TD.AperFunction*%
%TD*%
%TA.AperFunction,Conductor*%
%TO.N,/~{CHAREN}*%
G36*
X99371751Y-58638367D02*
G01*
X99372217Y-58638573D01*
X99537279Y-58715765D01*
X99538222Y-58716260D01*
X99679237Y-58798877D01*
X99680039Y-58799392D01*
X99795640Y-58880431D01*
X99796109Y-58880778D01*
X99895567Y-58958273D01*
X99987782Y-59029955D01*
X100081621Y-59093477D01*
X100186172Y-59146665D01*
X100310526Y-59187347D01*
X100463772Y-59213349D01*
X100643861Y-59221966D01*
X100651959Y-59225785D01*
X100655000Y-59233653D01*
X100655000Y-59511346D01*
X100651573Y-59519619D01*
X100643859Y-59523033D01*
X100463769Y-59531650D01*
X100310532Y-59557650D01*
X100310524Y-59557652D01*
X100186173Y-59598333D01*
X100081625Y-59651519D01*
X99987779Y-59715044D01*
X99895562Y-59786729D01*
X99796115Y-59864215D01*
X99795640Y-59864566D01*
X99680039Y-59945605D01*
X99679238Y-59946120D01*
X99538231Y-60028734D01*
X99537272Y-60029237D01*
X99372217Y-60106426D01*
X99363272Y-60106827D01*
X99356663Y-60100784D01*
X99356457Y-60100318D01*
X99258340Y-59864215D01*
X99055864Y-59376987D01*
X99055854Y-59368038D01*
X99356457Y-58644680D01*
X99362796Y-58638356D01*
X99371751Y-58638367D01*
G37*
%TD.AperFunction*%
%TD*%
%TA.AperFunction,Conductor*%
%TO.N,/~{CHAROM}*%
G36*
X113993336Y-78964215D02*
G01*
X113993542Y-78964681D01*
X114294134Y-79688010D01*
X114294144Y-79696963D01*
X114294135Y-79696985D01*
X114294134Y-79696990D01*
X113993542Y-80420318D01*
X113987203Y-80426643D01*
X113978248Y-80426632D01*
X113977782Y-80426426D01*
X113812726Y-80349237D01*
X113811776Y-80348739D01*
X113670753Y-80266115D01*
X113669959Y-80265605D01*
X113554357Y-80184566D01*
X113553882Y-80184215D01*
X113454437Y-80106729D01*
X113362218Y-80035044D01*
X113317250Y-80004604D01*
X113268378Y-79971522D01*
X113268375Y-79971520D01*
X113268373Y-79971519D01*
X113163824Y-79918333D01*
X113039473Y-79877652D01*
X113039465Y-79877650D01*
X112886229Y-79851650D01*
X112706141Y-79843033D01*
X112698041Y-79839214D01*
X112695000Y-79831346D01*
X112695000Y-79553653D01*
X112698427Y-79545380D01*
X112706138Y-79541966D01*
X112886227Y-79533349D01*
X113039472Y-79507347D01*
X113163826Y-79466665D01*
X113268378Y-79413477D01*
X113362216Y-79349955D01*
X113454432Y-79278273D01*
X113553906Y-79200763D01*
X113554331Y-79200449D01*
X113669972Y-79119383D01*
X113670746Y-79118886D01*
X113811784Y-79036255D01*
X113812710Y-79035769D01*
X113977782Y-78958572D01*
X113986728Y-78958172D01*
X113993336Y-78964215D01*
G37*
%TD.AperFunction*%
%TD*%
%TA.AperFunction,Conductor*%
%TO.N,/~{VA14}*%
G36*
X99371751Y-56098367D02*
G01*
X99372217Y-56098573D01*
X99537279Y-56175765D01*
X99538222Y-56176260D01*
X99679237Y-56258877D01*
X99680039Y-56259392D01*
X99795640Y-56340431D01*
X99796109Y-56340778D01*
X99895567Y-56418273D01*
X99987782Y-56489955D01*
X100081621Y-56553477D01*
X100186172Y-56606665D01*
X100310526Y-56647347D01*
X100463772Y-56673349D01*
X100643861Y-56681966D01*
X100651959Y-56685785D01*
X100655000Y-56693653D01*
X100655000Y-56971346D01*
X100651573Y-56979619D01*
X100643859Y-56983033D01*
X100463769Y-56991650D01*
X100310532Y-57017650D01*
X100310524Y-57017652D01*
X100186173Y-57058333D01*
X100081625Y-57111519D01*
X99987779Y-57175044D01*
X99895562Y-57246729D01*
X99796115Y-57324215D01*
X99795640Y-57324566D01*
X99680039Y-57405605D01*
X99679238Y-57406120D01*
X99538231Y-57488734D01*
X99537272Y-57489237D01*
X99372217Y-57566426D01*
X99363272Y-57566827D01*
X99356663Y-57560784D01*
X99356457Y-57560318D01*
X99258340Y-57324215D01*
X99055864Y-56836987D01*
X99055854Y-56828038D01*
X99356457Y-56104680D01*
X99362796Y-56098356D01*
X99371751Y-56098367D01*
G37*
%TD.AperFunction*%
%TD*%
%TA.AperFunction,Conductor*%
%TO.N,/VA13*%
G36*
X112266272Y-64166308D02*
G01*
X112266899Y-64166665D01*
X112301662Y-64187901D01*
X112301670Y-64187905D01*
X112301671Y-64187906D01*
X112340917Y-64209631D01*
X112340933Y-64209640D01*
X112380144Y-64229099D01*
X112380170Y-64229111D01*
X112380182Y-64229117D01*
X112419441Y-64246350D01*
X112458701Y-64261334D01*
X112487856Y-64270789D01*
X112497951Y-64274064D01*
X112497955Y-64274065D01*
X112497961Y-64274067D01*
X112537220Y-64284550D01*
X112576480Y-64292783D01*
X112576489Y-64292784D01*
X112576492Y-64292785D01*
X112615720Y-64298763D01*
X112615740Y-64298766D01*
X112615754Y-64298767D01*
X112615775Y-64298770D01*
X112632116Y-64300323D01*
X112644408Y-64301492D01*
X112652319Y-64305686D01*
X112655000Y-64313139D01*
X112655000Y-64591860D01*
X112651573Y-64600133D01*
X112644407Y-64603507D01*
X112615764Y-64606229D01*
X112615737Y-64606233D01*
X112576492Y-64612213D01*
X112537224Y-64620448D01*
X112537201Y-64620453D01*
X112497951Y-64630934D01*
X112458703Y-64643665D01*
X112419442Y-64658648D01*
X112380200Y-64675873D01*
X112380144Y-64675899D01*
X112340933Y-64695358D01*
X112340917Y-64695367D01*
X112301660Y-64717098D01*
X112266910Y-64738327D01*
X112258064Y-64739716D01*
X112257355Y-64739521D01*
X111720125Y-64573425D01*
X111365153Y-64463677D01*
X111358262Y-64457960D01*
X111357432Y-64449044D01*
X111363150Y-64442152D01*
X111365152Y-64441322D01*
X112257356Y-64165478D01*
X112266272Y-64166308D01*
G37*
%TD.AperFunction*%
%TD*%
%TA.AperFunction,Conductor*%
%TO.N,/~{CHAREN}*%
G36*
X101102640Y-59085477D02*
G01*
X101308480Y-59149117D01*
X101994845Y-59361322D01*
X102001737Y-59367040D01*
X102002567Y-59375956D01*
X101996849Y-59382848D01*
X101994845Y-59383678D01*
X101102643Y-59659521D01*
X101093727Y-59658691D01*
X101093087Y-59658327D01*
X101058327Y-59637092D01*
X101019081Y-59615367D01*
X101019065Y-59615358D01*
X100979854Y-59595899D01*
X100979798Y-59595873D01*
X100940556Y-59578648D01*
X100901295Y-59563665D01*
X100862047Y-59550934D01*
X100822797Y-59540453D01*
X100822774Y-59540448D01*
X100783506Y-59532213D01*
X100744261Y-59526233D01*
X100744236Y-59526230D01*
X100715592Y-59523506D01*
X100707681Y-59519312D01*
X100705000Y-59511859D01*
X100705000Y-59233139D01*
X100708427Y-59224866D01*
X100715591Y-59221492D01*
X100728594Y-59220255D01*
X100744223Y-59218770D01*
X100744240Y-59218767D01*
X100744259Y-59218766D01*
X100783519Y-59212783D01*
X100822779Y-59204550D01*
X100862038Y-59194067D01*
X100901298Y-59181334D01*
X100940558Y-59166350D01*
X100979817Y-59149117D01*
X100979842Y-59149104D01*
X100979854Y-59149099D01*
X101019065Y-59129640D01*
X101019065Y-59129639D01*
X101019077Y-59129634D01*
X101058337Y-59107901D01*
X101093089Y-59086671D01*
X101101934Y-59085283D01*
X101102640Y-59085477D01*
G37*
%TD.AperFunction*%
%TD*%
%TA.AperFunction,Conductor*%
%TO.N,/A15*%
G36*
X103547454Y-55296131D02*
G01*
X103547486Y-55296205D01*
X103656865Y-55557989D01*
X103656892Y-55566944D01*
X103656865Y-55567011D01*
X103547486Y-55828794D01*
X103541134Y-55835106D01*
X103532179Y-55835079D01*
X103517424Y-55828794D01*
X103479903Y-55812813D01*
X103479740Y-55812742D01*
X103427601Y-55789590D01*
X103427589Y-55789578D01*
X103427587Y-55789584D01*
X103383333Y-55769859D01*
X103344305Y-55753447D01*
X103344292Y-55753442D01*
X103344289Y-55753441D01*
X103331531Y-55748810D01*
X103307507Y-55740091D01*
X103270148Y-55729620D01*
X103229360Y-55721828D01*
X103182263Y-55716510D01*
X103126023Y-55713468D01*
X103069284Y-55712663D01*
X103061060Y-55709119D01*
X103057750Y-55700964D01*
X103057750Y-55424035D01*
X103061177Y-55415762D01*
X103069283Y-55412336D01*
X103115443Y-55411680D01*
X103126023Y-55411530D01*
X103136248Y-55410976D01*
X103182270Y-55408488D01*
X103229359Y-55403171D01*
X103270150Y-55395378D01*
X103307506Y-55384907D01*
X103344289Y-55371558D01*
X103383362Y-55355127D01*
X103427574Y-55335419D01*
X103427589Y-55335419D01*
X103427587Y-55335414D01*
X103479827Y-55312218D01*
X103532106Y-55289951D01*
X103541060Y-55289863D01*
X103547454Y-55296131D01*
G37*
%TD.AperFunction*%
%TD*%
%TA.AperFunction,Conductor*%
%TO.N,/A13*%
G36*
X104566488Y-60680927D02*
G01*
X104569914Y-60689034D01*
X104570718Y-60745773D01*
X104573760Y-60802011D01*
X104573760Y-60802015D01*
X104579078Y-60849110D01*
X104586870Y-60889898D01*
X104597341Y-60927257D01*
X104610697Y-60964055D01*
X104627109Y-61003083D01*
X104646834Y-61047337D01*
X104646831Y-61047338D01*
X104646840Y-61047351D01*
X104669992Y-61099490D01*
X104670063Y-61099653D01*
X104692297Y-61151855D01*
X104692386Y-61160810D01*
X104686118Y-61167204D01*
X104686044Y-61167236D01*
X104424261Y-61276615D01*
X104415306Y-61276642D01*
X104415239Y-61276615D01*
X104153455Y-61167236D01*
X104147143Y-61160884D01*
X104147169Y-61151931D01*
X104169468Y-61099577D01*
X104192664Y-61047337D01*
X104192666Y-61047337D01*
X104192668Y-61047327D01*
X104212377Y-61003112D01*
X104228808Y-60964039D01*
X104242157Y-60927256D01*
X104252628Y-60889900D01*
X104260421Y-60849109D01*
X104265738Y-60802020D01*
X104268780Y-60745771D01*
X104269586Y-60689033D01*
X104273130Y-60680810D01*
X104281285Y-60677500D01*
X104558215Y-60677500D01*
X104566488Y-60680927D01*
G37*
%TD.AperFunction*%
%TD*%
%TA.AperFunction,Conductor*%
%TO.N,/A15*%
G36*
X99791456Y-53991154D02*
G01*
X99797782Y-53997492D01*
X99798069Y-53998262D01*
X99852883Y-54162866D01*
X99853287Y-54164433D01*
X99882971Y-54324781D01*
X99883136Y-54326067D01*
X99893752Y-54472849D01*
X99893782Y-54473585D01*
X99895028Y-54608545D01*
X99895808Y-54667938D01*
X99896662Y-54732903D01*
X99896664Y-54732934D01*
X99908504Y-54847857D01*
X99908505Y-54847860D01*
X99940380Y-54954880D01*
X100002110Y-55055497D01*
X100002111Y-55055498D01*
X100002112Y-55055499D01*
X100103514Y-55151223D01*
X100103516Y-55151224D01*
X100103518Y-55151226D01*
X100245199Y-55237936D01*
X100250466Y-55245177D01*
X100249516Y-55253227D01*
X100123433Y-55500662D01*
X100116623Y-55506477D01*
X100107904Y-55505878D01*
X100097145Y-55500662D01*
X99940918Y-55424925D01*
X99940911Y-55424922D01*
X99940893Y-55424914D01*
X99791976Y-55361224D01*
X99791948Y-55361213D01*
X99664095Y-55314589D01*
X99664094Y-55314588D01*
X99664073Y-55314581D01*
X99550004Y-55279846D01*
X99549998Y-55279844D01*
X99549990Y-55279842D01*
X99442474Y-55251834D01*
X99334379Y-55225412D01*
X99334226Y-55225374D01*
X99218228Y-55195353D01*
X99217841Y-55195246D01*
X99086798Y-55156496D01*
X99086318Y-55156342D01*
X98932850Y-55103673D01*
X98932380Y-55103501D01*
X98759945Y-55035949D01*
X98753492Y-55029740D01*
X98753319Y-55020787D01*
X98753369Y-55020661D01*
X99052255Y-54296538D01*
X99058577Y-54290200D01*
X99782503Y-53991145D01*
X99791456Y-53991154D01*
G37*
%TD.AperFunction*%
%TD*%
%TA.AperFunction,Conductor*%
%TO.N,/A13*%
G36*
X99371751Y-48478367D02*
G01*
X99372217Y-48478573D01*
X99537279Y-48555765D01*
X99538222Y-48556260D01*
X99679237Y-48638877D01*
X99680039Y-48639392D01*
X99795640Y-48720431D01*
X99796109Y-48720778D01*
X99895567Y-48798273D01*
X99987782Y-48869955D01*
X100081621Y-48933477D01*
X100186172Y-48986665D01*
X100310526Y-49027347D01*
X100463772Y-49053349D01*
X100643861Y-49061966D01*
X100651959Y-49065785D01*
X100655000Y-49073653D01*
X100655000Y-49351346D01*
X100651573Y-49359619D01*
X100643859Y-49363033D01*
X100463769Y-49371650D01*
X100310532Y-49397650D01*
X100310524Y-49397652D01*
X100186173Y-49438333D01*
X100081625Y-49491519D01*
X99987779Y-49555044D01*
X99895562Y-49626729D01*
X99796115Y-49704215D01*
X99795640Y-49704566D01*
X99680039Y-49785605D01*
X99679238Y-49786120D01*
X99538231Y-49868734D01*
X99537272Y-49869237D01*
X99372217Y-49946426D01*
X99363272Y-49946827D01*
X99356663Y-49940784D01*
X99356457Y-49940318D01*
X99258340Y-49704215D01*
X99055864Y-49216987D01*
X99055854Y-49208038D01*
X99356457Y-48484680D01*
X99362796Y-48478356D01*
X99371751Y-48478367D01*
G37*
%TD.AperFunction*%
%TD*%
%TA.AperFunction,Conductor*%
%TO.N,/A14*%
G36*
X99371751Y-51018367D02*
G01*
X99372217Y-51018573D01*
X99537279Y-51095765D01*
X99538222Y-51096260D01*
X99679237Y-51178877D01*
X99680039Y-51179392D01*
X99795640Y-51260431D01*
X99796109Y-51260778D01*
X99895567Y-51338273D01*
X99987782Y-51409955D01*
X100081621Y-51473477D01*
X100186172Y-51526665D01*
X100310526Y-51567347D01*
X100463772Y-51593349D01*
X100643861Y-51601966D01*
X100651959Y-51605785D01*
X100655000Y-51613653D01*
X100655000Y-51891346D01*
X100651573Y-51899619D01*
X100643859Y-51903033D01*
X100463769Y-51911650D01*
X100310532Y-51937650D01*
X100310524Y-51937652D01*
X100186173Y-51978333D01*
X100081625Y-52031519D01*
X99987779Y-52095044D01*
X99895562Y-52166729D01*
X99796115Y-52244215D01*
X99795640Y-52244566D01*
X99680039Y-52325605D01*
X99679238Y-52326120D01*
X99538231Y-52408734D01*
X99537272Y-52409237D01*
X99372217Y-52486426D01*
X99363272Y-52486827D01*
X99356663Y-52480784D01*
X99356457Y-52480318D01*
X99258340Y-52244215D01*
X99055864Y-51756987D01*
X99055854Y-51748038D01*
X99356457Y-51024680D01*
X99362796Y-51018356D01*
X99371751Y-51018367D01*
G37*
%TD.AperFunction*%
%TD*%
%TA.AperFunction,Conductor*%
%TO.N,/~{GAME}*%
G36*
X112266272Y-61626308D02*
G01*
X112266899Y-61626665D01*
X112301662Y-61647901D01*
X112301670Y-61647905D01*
X112301671Y-61647906D01*
X112340917Y-61669631D01*
X112340933Y-61669640D01*
X112380144Y-61689099D01*
X112380170Y-61689111D01*
X112380182Y-61689117D01*
X112419441Y-61706350D01*
X112458701Y-61721334D01*
X112487856Y-61730789D01*
X112497951Y-61734064D01*
X112497955Y-61734065D01*
X112497961Y-61734067D01*
X112537220Y-61744550D01*
X112576480Y-61752783D01*
X112576489Y-61752784D01*
X112576492Y-61752785D01*
X112615720Y-61758763D01*
X112615740Y-61758766D01*
X112615754Y-61758767D01*
X112615775Y-61758770D01*
X112632116Y-61760323D01*
X112644408Y-61761492D01*
X112652319Y-61765686D01*
X112655000Y-61773139D01*
X112655000Y-62051860D01*
X112651573Y-62060133D01*
X112644407Y-62063507D01*
X112615764Y-62066229D01*
X112615737Y-62066233D01*
X112576492Y-62072213D01*
X112537224Y-62080448D01*
X112537201Y-62080453D01*
X112497951Y-62090934D01*
X112458703Y-62103665D01*
X112419442Y-62118648D01*
X112380200Y-62135873D01*
X112380144Y-62135899D01*
X112340933Y-62155358D01*
X112340917Y-62155367D01*
X112301660Y-62177098D01*
X112266910Y-62198327D01*
X112258064Y-62199716D01*
X112257355Y-62199521D01*
X111720125Y-62033425D01*
X111365153Y-61923677D01*
X111358262Y-61917960D01*
X111357432Y-61909044D01*
X111363150Y-61902152D01*
X111365152Y-61901322D01*
X112257356Y-61625478D01*
X112266272Y-61626308D01*
G37*
%TD.AperFunction*%
%TD*%
%TA.AperFunction,Conductor*%
%TO.N,/~{KERNAL}*%
G36*
X110402611Y-65435468D02*
G01*
X111294845Y-65711304D01*
X111301736Y-65717022D01*
X111302566Y-65725938D01*
X111296848Y-65732830D01*
X111294844Y-65733660D01*
X110402679Y-66009510D01*
X110393763Y-66008680D01*
X110393071Y-66008284D01*
X110358799Y-65987096D01*
X110319997Y-65965357D01*
X110281236Y-65945888D01*
X110281181Y-65945863D01*
X110242427Y-65928646D01*
X110242396Y-65928633D01*
X110203606Y-65913650D01*
X110203603Y-65913649D01*
X110194163Y-65910550D01*
X110164837Y-65900923D01*
X110164818Y-65900917D01*
X110126015Y-65890429D01*
X110087229Y-65882196D01*
X110087225Y-65882195D01*
X110087219Y-65882194D01*
X110087210Y-65882192D01*
X110087201Y-65882191D01*
X110048444Y-65876210D01*
X110048416Y-65876207D01*
X110020006Y-65873472D01*
X110012099Y-65869268D01*
X110009429Y-65862046D01*
X110004210Y-65583368D01*
X110007481Y-65575033D01*
X110014801Y-65571502D01*
X110043366Y-65568791D01*
X110082725Y-65562805D01*
X110122084Y-65554569D01*
X110161443Y-65544083D01*
X110200802Y-65531347D01*
X110240160Y-65516361D01*
X110279519Y-65499125D01*
X110318878Y-65479639D01*
X110358237Y-65457903D01*
X110393095Y-65436661D01*
X110401939Y-65435283D01*
X110402611Y-65435468D01*
G37*
%TD.AperFunction*%
%TD*%
%TA.AperFunction,Conductor*%
%TO.N,/TCR*%
G36*
X100703567Y-57829919D02*
G01*
X100755922Y-57852218D01*
X100808162Y-57875414D01*
X100808160Y-57875416D01*
X100808172Y-57875418D01*
X100852387Y-57895127D01*
X100891460Y-57911558D01*
X100928243Y-57924907D01*
X100965599Y-57935378D01*
X101006390Y-57943171D01*
X101053479Y-57948488D01*
X101090978Y-57950516D01*
X101109725Y-57951530D01*
X101124035Y-57951733D01*
X101166466Y-57952336D01*
X101174690Y-57955880D01*
X101178000Y-57964035D01*
X101178000Y-58240964D01*
X101174573Y-58249237D01*
X101166466Y-58252663D01*
X101109725Y-58253468D01*
X101053487Y-58256510D01*
X101053483Y-58256510D01*
X101006388Y-58261828D01*
X100965600Y-58269620D01*
X100928241Y-58280091D01*
X100891443Y-58293447D01*
X100852415Y-58309859D01*
X100808162Y-58329584D01*
X100808147Y-58329590D01*
X100756008Y-58352742D01*
X100755845Y-58352813D01*
X100703644Y-58375047D01*
X100694689Y-58375136D01*
X100688295Y-58368868D01*
X100688263Y-58368794D01*
X100681586Y-58352813D01*
X100578883Y-58107009D01*
X100578857Y-58098056D01*
X100578862Y-58098042D01*
X100688264Y-57836203D01*
X100694615Y-57829893D01*
X100703567Y-57829919D01*
G37*
%TD.AperFunction*%
%TD*%
%TA.AperFunction,Conductor*%
%TO.N,/~{AEC}*%
G36*
X102966272Y-67976308D02*
G01*
X102966899Y-67976665D01*
X103001662Y-67997901D01*
X103001670Y-67997905D01*
X103001671Y-67997906D01*
X103040917Y-68019631D01*
X103040933Y-68019640D01*
X103080144Y-68039099D01*
X103080170Y-68039111D01*
X103080182Y-68039117D01*
X103119441Y-68056350D01*
X103158701Y-68071334D01*
X103187856Y-68080789D01*
X103197951Y-68084064D01*
X103197955Y-68084065D01*
X103197961Y-68084067D01*
X103237220Y-68094550D01*
X103276480Y-68102783D01*
X103276489Y-68102784D01*
X103276492Y-68102785D01*
X103315720Y-68108763D01*
X103315740Y-68108766D01*
X103315754Y-68108767D01*
X103315775Y-68108770D01*
X103332116Y-68110323D01*
X103344408Y-68111492D01*
X103352319Y-68115686D01*
X103355000Y-68123139D01*
X103355000Y-68401860D01*
X103351573Y-68410133D01*
X103344407Y-68413507D01*
X103315764Y-68416229D01*
X103315737Y-68416233D01*
X103276492Y-68422213D01*
X103237224Y-68430448D01*
X103237201Y-68430453D01*
X103197951Y-68440934D01*
X103158703Y-68453665D01*
X103119442Y-68468648D01*
X103080200Y-68485873D01*
X103080144Y-68485899D01*
X103040933Y-68505358D01*
X103040917Y-68505367D01*
X103001660Y-68527098D01*
X102966910Y-68548327D01*
X102958064Y-68549716D01*
X102957355Y-68549521D01*
X102420125Y-68383425D01*
X102065153Y-68273677D01*
X102058262Y-68267960D01*
X102057432Y-68259044D01*
X102063150Y-68252152D01*
X102065152Y-68251322D01*
X102957356Y-67975478D01*
X102966272Y-67976308D01*
G37*
%TD.AperFunction*%
%TD*%
%TA.AperFunction,Conductor*%
%TO.N,/~{EXROM}*%
G36*
X113993336Y-58644215D02*
G01*
X113993542Y-58644681D01*
X114294134Y-59368010D01*
X114294144Y-59376963D01*
X114294135Y-59376985D01*
X114294134Y-59376990D01*
X113993542Y-60100318D01*
X113987203Y-60106643D01*
X113978248Y-60106632D01*
X113977782Y-60106426D01*
X113812726Y-60029237D01*
X113811776Y-60028739D01*
X113670753Y-59946115D01*
X113669959Y-59945605D01*
X113554357Y-59864566D01*
X113553882Y-59864215D01*
X113454437Y-59786729D01*
X113362218Y-59715044D01*
X113317250Y-59684604D01*
X113268378Y-59651522D01*
X113268375Y-59651520D01*
X113268373Y-59651519D01*
X113163824Y-59598333D01*
X113039473Y-59557652D01*
X113039465Y-59557650D01*
X112886229Y-59531650D01*
X112706141Y-59523033D01*
X112698041Y-59519214D01*
X112695000Y-59511346D01*
X112695000Y-59233653D01*
X112698427Y-59225380D01*
X112706138Y-59221966D01*
X112886227Y-59213349D01*
X113039472Y-59187347D01*
X113163826Y-59146665D01*
X113268378Y-59093477D01*
X113362216Y-59029955D01*
X113454432Y-58958273D01*
X113553906Y-58880763D01*
X113554331Y-58880449D01*
X113669972Y-58799383D01*
X113670746Y-58798886D01*
X113811784Y-58716255D01*
X113812710Y-58715769D01*
X113977782Y-58638572D01*
X113986728Y-58638172D01*
X113993336Y-58644215D01*
G37*
%TD.AperFunction*%
%TD*%
%TA.AperFunction,Conductor*%
%TO.N,/~{LORAM}*%
G36*
X99371751Y-63718367D02*
G01*
X99372217Y-63718573D01*
X99537279Y-63795765D01*
X99538222Y-63796260D01*
X99679237Y-63878877D01*
X99680039Y-63879392D01*
X99795640Y-63960431D01*
X99796109Y-63960778D01*
X99895567Y-64038273D01*
X99987782Y-64109955D01*
X100081621Y-64173477D01*
X100186172Y-64226665D01*
X100310526Y-64267347D01*
X100463772Y-64293349D01*
X100643861Y-64301966D01*
X100651959Y-64305785D01*
X100655000Y-64313653D01*
X100655000Y-64591346D01*
X100651573Y-64599619D01*
X100643859Y-64603033D01*
X100463769Y-64611650D01*
X100310532Y-64637650D01*
X100310524Y-64637652D01*
X100186173Y-64678333D01*
X100081625Y-64731519D01*
X99987779Y-64795044D01*
X99895562Y-64866729D01*
X99796115Y-64944215D01*
X99795640Y-64944566D01*
X99680039Y-65025605D01*
X99679238Y-65026120D01*
X99538231Y-65108734D01*
X99537272Y-65109237D01*
X99372217Y-65186426D01*
X99363272Y-65186827D01*
X99356663Y-65180784D01*
X99356457Y-65180318D01*
X99258340Y-64944215D01*
X99055864Y-64456987D01*
X99055854Y-64448038D01*
X99356457Y-63724680D01*
X99362796Y-63718356D01*
X99371751Y-63718367D01*
G37*
%TD.AperFunction*%
%TD*%
%TA.AperFunction,Conductor*%
%TO.N,/~{CAS}*%
G36*
X99791876Y-66690980D02*
G01*
X99798200Y-66697320D01*
X99798343Y-66697684D01*
X99859185Y-66860317D01*
X99859459Y-66861142D01*
X99902584Y-67009050D01*
X99902785Y-67009841D01*
X99930645Y-67138063D01*
X99930752Y-67138621D01*
X99949858Y-67253131D01*
X99949866Y-67253234D01*
X99949875Y-67253233D01*
X99966728Y-67359957D01*
X99987777Y-67464319D01*
X100019542Y-67572143D01*
X100019546Y-67572156D01*
X100068549Y-67689292D01*
X100068553Y-67689301D01*
X100068554Y-67689302D01*
X100141296Y-67821533D01*
X100141304Y-67821546D01*
X100238040Y-67965392D01*
X100239813Y-67974169D01*
X100235208Y-67981386D01*
X100010469Y-68144678D01*
X100001762Y-68146769D01*
X99994625Y-68142728D01*
X99888686Y-68016319D01*
X99888683Y-68016317D01*
X99888682Y-68016315D01*
X99780831Y-67926525D01*
X99769785Y-67920888D01*
X99675146Y-67872591D01*
X99675143Y-67872590D01*
X99568678Y-67845375D01*
X99458494Y-67835744D01*
X99458489Y-67835743D01*
X99458484Y-67835743D01*
X99341704Y-67834562D01*
X99341677Y-67834550D01*
X99341650Y-67834562D01*
X99215608Y-67832697D01*
X99214800Y-67832657D01*
X99076866Y-67821054D01*
X99075570Y-67820871D01*
X98922505Y-67790499D01*
X98921018Y-67790101D01*
X98760664Y-67735617D01*
X98753933Y-67729711D01*
X98753350Y-67720775D01*
X98753604Y-67720098D01*
X99052557Y-66996184D01*
X99058879Y-66989848D01*
X99782921Y-66690969D01*
X99791876Y-66690980D01*
G37*
%TD.AperFunction*%
%TD*%
%TA.AperFunction,Conductor*%
%TO.N,VCC*%
G36*
X113566953Y-46370918D02*
G01*
X113979502Y-46541244D01*
X114291212Y-46669937D01*
X114297551Y-46676262D01*
X114297562Y-46676287D01*
X114596577Y-47400536D01*
X114596566Y-47409491D01*
X114590227Y-47415816D01*
X114589975Y-47415916D01*
X114426776Y-47478908D01*
X114426254Y-47479096D01*
X114277894Y-47528416D01*
X114277499Y-47528539D01*
X114149501Y-47566121D01*
X114149391Y-47566153D01*
X114036253Y-47598172D01*
X113932917Y-47630689D01*
X113834010Y-47669859D01*
X113834004Y-47669862D01*
X113734192Y-47721826D01*
X113734178Y-47721834D01*
X113628107Y-47792743D01*
X113628105Y-47792744D01*
X113510420Y-47888748D01*
X113510414Y-47888753D01*
X113384028Y-48008190D01*
X113375661Y-48011381D01*
X113367719Y-48007959D01*
X112959540Y-47599780D01*
X112956113Y-47591507D01*
X112959308Y-47583473D01*
X113078748Y-47457082D01*
X113174756Y-47339389D01*
X113245670Y-47233309D01*
X113297638Y-47133490D01*
X113336809Y-47034579D01*
X113369331Y-46931226D01*
X113401352Y-46818078D01*
X113438960Y-46689988D01*
X113439081Y-46689603D01*
X113445619Y-46669937D01*
X113488409Y-46541223D01*
X113488581Y-46540745D01*
X113551584Y-46377522D01*
X113557759Y-46371040D01*
X113566711Y-46370822D01*
X113566953Y-46370918D01*
G37*
%TD.AperFunction*%
%TD*%
%TA.AperFunction,Conductor*%
%TO.N,/~{CASRAM}*%
G36*
X110403436Y-67975721D02*
G01*
X111103151Y-68191868D01*
X111294808Y-68251073D01*
X111301701Y-68256789D01*
X111302534Y-68265705D01*
X111296818Y-68272598D01*
X111294814Y-68273429D01*
X110404269Y-68549017D01*
X110395352Y-68548189D01*
X110392616Y-68546191D01*
X110373713Y-68527629D01*
X110349829Y-68506256D01*
X110325945Y-68486963D01*
X110302061Y-68469749D01*
X110302056Y-68469746D01*
X110302048Y-68469740D01*
X110278176Y-68454615D01*
X110266377Y-68448167D01*
X110254292Y-68441563D01*
X110254286Y-68441560D01*
X110254282Y-68441558D01*
X110240498Y-68435225D01*
X110230408Y-68430590D01*
X110230403Y-68430588D01*
X110230387Y-68430581D01*
X110206546Y-68421703D01*
X110206521Y-68421695D01*
X110200520Y-68419983D01*
X110182640Y-68414882D01*
X110182638Y-68414881D01*
X110165897Y-68411564D01*
X110158448Y-68406594D01*
X110156873Y-68403120D01*
X110084503Y-68133123D01*
X110085671Y-68124245D01*
X110092775Y-68118793D01*
X110094139Y-68118514D01*
X110106876Y-68116694D01*
X110112725Y-68115859D01*
X110112726Y-68115858D01*
X110112737Y-68115857D01*
X110144388Y-68109086D01*
X110176039Y-68100065D01*
X110207690Y-68088794D01*
X110239342Y-68075273D01*
X110270993Y-68059502D01*
X110271011Y-68059491D01*
X110271020Y-68059487D01*
X110278225Y-68055383D01*
X110302644Y-68041481D01*
X110334295Y-68021210D01*
X110365946Y-67998689D01*
X110392778Y-67977688D01*
X110401405Y-67975288D01*
X110403436Y-67975721D01*
G37*
%TD.AperFunction*%
%TD*%
%TA.AperFunction,Conductor*%
%TO.N,/A15*%
G36*
X101103264Y-55275671D02*
G01*
X101533850Y-55408870D01*
X101994836Y-55551473D01*
X102001727Y-55557191D01*
X102002555Y-55566108D01*
X101996837Y-55572999D01*
X101994832Y-55573828D01*
X101102871Y-55849451D01*
X101093955Y-55848620D01*
X101092984Y-55848046D01*
X101060602Y-55826732D01*
X101023644Y-55804656D01*
X100986640Y-55784804D01*
X100969262Y-55776539D01*
X100949664Y-55767217D01*
X100946312Y-55765826D01*
X100912688Y-55751878D01*
X100912674Y-55751873D01*
X100875711Y-55738790D01*
X100875706Y-55738788D01*
X100875699Y-55738786D01*
X100838716Y-55727945D01*
X100801733Y-55719354D01*
X100801731Y-55719353D01*
X100801724Y-55719352D01*
X100781330Y-55715855D01*
X100764750Y-55713013D01*
X100764743Y-55713012D01*
X100764742Y-55713012D01*
X100764733Y-55713010D01*
X100739955Y-55710270D01*
X100732108Y-55705954D01*
X100729612Y-55697355D01*
X100729680Y-55696841D01*
X100773318Y-55421383D01*
X100777996Y-55413751D01*
X100783524Y-55411595D01*
X100806996Y-55408873D01*
X100807010Y-55408870D01*
X100807013Y-55408870D01*
X100839260Y-55402883D01*
X100839266Y-55402881D01*
X100839285Y-55402878D01*
X100861482Y-55397209D01*
X100871560Y-55394637D01*
X100871566Y-55394635D01*
X100871574Y-55394633D01*
X100903863Y-55384138D01*
X100936152Y-55371393D01*
X100953430Y-55363368D01*
X100968420Y-55356407D01*
X100968424Y-55356404D01*
X100968441Y-55356397D01*
X101000730Y-55339152D01*
X101033019Y-55319657D01*
X101065308Y-55297912D01*
X101092834Y-55277457D01*
X101101515Y-55275274D01*
X101103264Y-55275671D01*
G37*
%TD.AperFunction*%
%TD*%
%TA.AperFunction,Conductor*%
%TO.N,/~{OE}*%
G36*
X112266272Y-69246308D02*
G01*
X112266899Y-69246665D01*
X112301662Y-69267901D01*
X112301670Y-69267905D01*
X112301671Y-69267906D01*
X112340917Y-69289631D01*
X112340933Y-69289640D01*
X112380144Y-69309099D01*
X112380170Y-69309111D01*
X112380182Y-69309117D01*
X112419441Y-69326350D01*
X112458701Y-69341334D01*
X112487856Y-69350789D01*
X112497951Y-69354064D01*
X112497955Y-69354065D01*
X112497961Y-69354067D01*
X112537220Y-69364550D01*
X112576480Y-69372783D01*
X112576489Y-69372784D01*
X112576492Y-69372785D01*
X112615720Y-69378763D01*
X112615740Y-69378766D01*
X112615754Y-69378767D01*
X112615775Y-69378770D01*
X112632116Y-69380323D01*
X112644408Y-69381492D01*
X112652319Y-69385686D01*
X112655000Y-69393139D01*
X112655000Y-69671860D01*
X112651573Y-69680133D01*
X112644407Y-69683507D01*
X112615764Y-69686229D01*
X112615737Y-69686233D01*
X112576492Y-69692213D01*
X112537224Y-69700448D01*
X112537201Y-69700453D01*
X112497951Y-69710934D01*
X112458703Y-69723665D01*
X112419442Y-69738648D01*
X112380200Y-69755873D01*
X112380144Y-69755899D01*
X112340933Y-69775358D01*
X112340917Y-69775367D01*
X112301660Y-69797098D01*
X112266910Y-69818327D01*
X112258064Y-69819716D01*
X112257355Y-69819521D01*
X111720125Y-69653425D01*
X111365153Y-69543677D01*
X111358262Y-69537960D01*
X111357432Y-69529044D01*
X111363150Y-69522152D01*
X111365152Y-69521322D01*
X112257356Y-69245478D01*
X112266272Y-69246308D01*
G37*
%TD.AperFunction*%
%TD*%
%TA.AperFunction,Conductor*%
%TO.N,/FE*%
G36*
X105184211Y-63817452D02*
G01*
X105448135Y-63927798D01*
X105454446Y-63934151D01*
X105454423Y-63943090D01*
X105429901Y-64001992D01*
X105429892Y-64002014D01*
X105405858Y-64059405D01*
X105405854Y-64059416D01*
X105390540Y-64096192D01*
X105385745Y-64107707D01*
X105368586Y-64149900D01*
X105353285Y-64189284D01*
X105338825Y-64228963D01*
X105324163Y-64272111D01*
X105308272Y-64321848D01*
X105290110Y-64381350D01*
X105271983Y-64442495D01*
X105266346Y-64449452D01*
X105257470Y-64450395D01*
X104991338Y-64372249D01*
X104984365Y-64366630D01*
X104983217Y-64358465D01*
X104997232Y-64295940D01*
X105000835Y-64235437D01*
X104994240Y-64184387D01*
X104980055Y-64139525D01*
X104980054Y-64139522D01*
X104980054Y-64139521D01*
X104960896Y-64097593D01*
X104960893Y-64097587D01*
X104939436Y-64055458D01*
X104939276Y-64055127D01*
X104918316Y-64009953D01*
X104917884Y-64008890D01*
X104899889Y-63957407D01*
X104899475Y-63955911D01*
X104886819Y-63894582D01*
X104886602Y-63892968D01*
X104882548Y-63829911D01*
X104885437Y-63821435D01*
X104893473Y-63817484D01*
X104894177Y-63817460D01*
X105179665Y-63816548D01*
X105184211Y-63817452D01*
G37*
%TD.AperFunction*%
%TD*%
%TA.AperFunction,Conductor*%
%TO.N,GND*%
G36*
X106011236Y-72838456D02*
G01*
X106011377Y-72838593D01*
X106101675Y-72928531D01*
X106357207Y-73183043D01*
X106357240Y-73183076D01*
X106701642Y-73528858D01*
X106705052Y-73537138D01*
X106701609Y-73545405D01*
X106701454Y-73545556D01*
X106611717Y-73631685D01*
X106611310Y-73632057D01*
X106527061Y-73705615D01*
X106526601Y-73705997D01*
X106452716Y-73764136D01*
X106452284Y-73764460D01*
X106385239Y-73812376D01*
X106384967Y-73812565D01*
X106321145Y-73855500D01*
X106257184Y-73898527D01*
X106189784Y-73946697D01*
X106115450Y-74005189D01*
X106115438Y-74005199D01*
X106030784Y-74079112D01*
X105940506Y-74165761D01*
X105932164Y-74169018D01*
X105924131Y-74165593D01*
X105374656Y-73616118D01*
X105371229Y-73607845D01*
X105374487Y-73599743D01*
X105461118Y-73509485D01*
X105535067Y-73424788D01*
X105593552Y-73350464D01*
X105641727Y-73283055D01*
X105684749Y-73219104D01*
X105727711Y-73155240D01*
X105727840Y-73155055D01*
X105775803Y-73087942D01*
X105776094Y-73087554D01*
X105834276Y-73013615D01*
X105834604Y-73013220D01*
X105908197Y-72928931D01*
X105908563Y-72928531D01*
X105994695Y-72838793D01*
X106002894Y-72835199D01*
X106011236Y-72838456D01*
G37*
%TD.AperFunction*%
%TD*%
M02*
