%TF.GenerationSoftware,KiCad,Pcbnew,8.0.8*%
%TF.CreationDate,2025-03-10T01:42:14+01:00*%
%TF.ProjectId,C64-PLA,4336342d-504c-4412-9e6b-696361645f70,rev?*%
%TF.SameCoordinates,Original*%
%TF.FileFunction,Legend,Top*%
%TF.FilePolarity,Positive*%
%FSLAX46Y46*%
G04 Gerber Fmt 4.6, Leading zero omitted, Abs format (unit mm)*
G04 Created by KiCad (PCBNEW 8.0.8) date 2025-03-10 01:42:14*
%MOMM*%
%LPD*%
G01*
G04 APERTURE LIST*
%ADD10C,0.000000*%
%ADD11C,0.500000*%
%ADD12C,0.150000*%
%ADD13C,0.120000*%
G04 APERTURE END LIST*
D10*
G36*
X102001050Y-49288777D02*
G01*
X101647037Y-49288777D01*
X101647037Y-48950957D01*
X102001050Y-48950957D01*
X102001050Y-49288777D01*
G37*
G36*
X104249780Y-48573804D02*
G01*
X104310480Y-48575971D01*
X104364712Y-48579865D01*
X104389508Y-48582533D01*
X104412814Y-48585718D01*
X104434673Y-48589452D01*
X104455126Y-48593761D01*
X104474215Y-48598676D01*
X104491984Y-48604225D01*
X104508474Y-48610436D01*
X104523727Y-48617340D01*
X104537787Y-48624964D01*
X104550694Y-48633338D01*
X104562491Y-48642491D01*
X104573221Y-48652451D01*
X104582926Y-48663248D01*
X104591648Y-48674909D01*
X104599429Y-48687465D01*
X104606312Y-48700944D01*
X104612339Y-48715375D01*
X104617552Y-48730786D01*
X104621994Y-48747207D01*
X104625706Y-48764667D01*
X104628731Y-48783195D01*
X104631111Y-48802818D01*
X104632889Y-48823567D01*
X104634106Y-48845471D01*
X104635030Y-48892855D01*
X104634487Y-48944766D01*
X104632531Y-48991708D01*
X104628671Y-49033904D01*
X104622419Y-49071578D01*
X104618242Y-49088789D01*
X104613283Y-49104954D01*
X104607480Y-49120101D01*
X104600773Y-49134258D01*
X104593100Y-49147452D01*
X104584399Y-49159712D01*
X104574610Y-49171066D01*
X104563672Y-49181542D01*
X104551522Y-49191167D01*
X104538099Y-49199971D01*
X104523343Y-49207980D01*
X104507193Y-49215223D01*
X104489586Y-49221728D01*
X104470461Y-49227523D01*
X104449758Y-49232636D01*
X104427414Y-49237094D01*
X104377563Y-49244162D01*
X104320416Y-49248950D01*
X104255483Y-49251682D01*
X104182275Y-49252582D01*
X104113038Y-49251851D01*
X104050935Y-49249497D01*
X103995596Y-49245282D01*
X103970349Y-49242403D01*
X103946655Y-49238970D01*
X103924469Y-49234952D01*
X103903743Y-49230320D01*
X103884434Y-49225045D01*
X103866493Y-49219096D01*
X103849876Y-49212444D01*
X103834537Y-49205059D01*
X103820429Y-49196911D01*
X103807506Y-49187971D01*
X103795723Y-49178209D01*
X103785033Y-49167594D01*
X103775391Y-49156098D01*
X103766750Y-49143690D01*
X103759065Y-49130341D01*
X103752289Y-49116020D01*
X103746377Y-49100699D01*
X103741282Y-49084347D01*
X103736959Y-49066935D01*
X103733362Y-49048432D01*
X103730444Y-49028810D01*
X103728160Y-49008038D01*
X103725309Y-48962926D01*
X103724440Y-48912857D01*
X103724507Y-48907777D01*
X103970503Y-48907777D01*
X103970824Y-48932254D01*
X103971928Y-48954106D01*
X103974025Y-48973479D01*
X103977324Y-48990516D01*
X103979490Y-48998204D01*
X103982035Y-49005361D01*
X103984985Y-49012007D01*
X103988367Y-49018160D01*
X103992207Y-49023836D01*
X103996532Y-49029055D01*
X104001366Y-49033833D01*
X104006737Y-49038191D01*
X104012671Y-49042144D01*
X104019194Y-49045712D01*
X104026332Y-49048912D01*
X104034111Y-49051762D01*
X104042558Y-49054281D01*
X104051699Y-49056487D01*
X104072167Y-49060029D01*
X104095725Y-49062532D01*
X104122583Y-49064142D01*
X104152951Y-49065003D01*
X104187038Y-49065257D01*
X104219340Y-49064950D01*
X104248152Y-49063947D01*
X104273669Y-49062124D01*
X104285252Y-49060867D01*
X104296084Y-49059359D01*
X104306189Y-49057584D01*
X104315591Y-49055527D01*
X104324315Y-49053173D01*
X104332385Y-49050507D01*
X104339825Y-49047512D01*
X104346659Y-49044174D01*
X104352911Y-49040476D01*
X104358607Y-49036405D01*
X104363769Y-49031943D01*
X104368422Y-49027077D01*
X104372592Y-49021790D01*
X104376300Y-49016067D01*
X104379573Y-49009892D01*
X104382434Y-49003251D01*
X104384908Y-48996128D01*
X104387018Y-48988507D01*
X104388789Y-48980373D01*
X104390245Y-48971711D01*
X104391411Y-48962504D01*
X104392311Y-48952739D01*
X104393407Y-48931469D01*
X104393730Y-48907777D01*
X104393298Y-48882574D01*
X104391881Y-48860413D01*
X104389299Y-48841098D01*
X104387515Y-48832447D01*
X104385371Y-48824434D01*
X104382845Y-48817035D01*
X104379915Y-48810225D01*
X104376558Y-48803981D01*
X104372751Y-48798277D01*
X104368472Y-48793090D01*
X104363697Y-48788394D01*
X104358406Y-48784166D01*
X104352574Y-48780381D01*
X104346179Y-48777014D01*
X104339199Y-48774041D01*
X104331612Y-48771439D01*
X104323393Y-48769181D01*
X104304974Y-48765605D01*
X104283761Y-48763117D01*
X104259573Y-48761521D01*
X104232230Y-48760624D01*
X104167352Y-48760140D01*
X104137568Y-48760336D01*
X104110854Y-48761027D01*
X104087053Y-48762365D01*
X104066005Y-48764501D01*
X104056465Y-48765916D01*
X104047553Y-48767587D01*
X104039251Y-48769534D01*
X104031538Y-48771776D01*
X104024394Y-48774332D01*
X104017800Y-48777221D01*
X104011736Y-48780461D01*
X104006182Y-48784072D01*
X104001118Y-48788072D01*
X103996524Y-48792481D01*
X103992381Y-48797319D01*
X103988669Y-48802602D01*
X103985368Y-48808352D01*
X103982457Y-48814587D01*
X103979918Y-48821325D01*
X103977731Y-48828586D01*
X103975875Y-48836389D01*
X103974330Y-48844753D01*
X103973078Y-48853696D01*
X103972098Y-48863239D01*
X103970875Y-48884196D01*
X103970503Y-48907777D01*
X103724507Y-48907777D01*
X103725092Y-48863574D01*
X103727353Y-48819044D01*
X103731675Y-48779051D01*
X103738514Y-48743377D01*
X103743019Y-48727092D01*
X103748324Y-48711805D01*
X103754485Y-48697489D01*
X103761560Y-48684118D01*
X103769604Y-48671663D01*
X103778675Y-48660099D01*
X103788829Y-48649396D01*
X103800124Y-48639530D01*
X103812616Y-48630471D01*
X103826362Y-48622194D01*
X103841418Y-48614671D01*
X103857843Y-48607875D01*
X103875691Y-48601778D01*
X103895021Y-48596354D01*
X103915888Y-48591575D01*
X103938350Y-48587415D01*
X103988286Y-48580841D01*
X104045283Y-48576414D01*
X104109794Y-48573917D01*
X104182275Y-48573133D01*
X104249780Y-48573804D01*
G37*
G36*
X102001050Y-48889680D02*
G01*
X101647037Y-48889680D01*
X101647037Y-48551860D01*
X102001050Y-48551860D01*
X102001050Y-48889680D01*
G37*
G36*
X109905529Y-49228453D02*
G01*
X109669309Y-49228453D01*
X109669309Y-49110342D01*
X109660831Y-49125594D01*
X109651829Y-49140019D01*
X109642132Y-49153598D01*
X109631566Y-49166307D01*
X109619959Y-49178125D01*
X109607136Y-49189030D01*
X109592926Y-49199000D01*
X109577155Y-49208013D01*
X109559650Y-49216048D01*
X109540238Y-49223083D01*
X109518747Y-49229095D01*
X109495002Y-49234063D01*
X109468832Y-49237965D01*
X109440062Y-49240780D01*
X109408521Y-49242484D01*
X109374035Y-49243057D01*
X109319385Y-49242166D01*
X109269720Y-49239383D01*
X109224840Y-49234539D01*
X109204130Y-49231293D01*
X109184541Y-49227470D01*
X109166048Y-49223049D01*
X109148624Y-49218009D01*
X109132246Y-49212329D01*
X109116887Y-49205988D01*
X109102523Y-49198966D01*
X109089128Y-49191242D01*
X109076678Y-49182795D01*
X109065146Y-49173604D01*
X109054509Y-49163649D01*
X109044740Y-49152908D01*
X109035815Y-49141361D01*
X109027708Y-49128987D01*
X109020394Y-49115765D01*
X109013849Y-49101674D01*
X109008046Y-49086694D01*
X109002961Y-49070804D01*
X108998568Y-49053982D01*
X108994843Y-49036209D01*
X108991760Y-49017463D01*
X108989294Y-48997723D01*
X108986113Y-48955180D01*
X108985186Y-48912540D01*
X109230843Y-48912540D01*
X109231441Y-48935958D01*
X109233322Y-48956565D01*
X109234785Y-48965869D01*
X109236617Y-48974538D01*
X109238834Y-48982594D01*
X109241454Y-48990060D01*
X109244492Y-48996956D01*
X109247963Y-49003307D01*
X109251886Y-49009135D01*
X109256275Y-49014461D01*
X109261148Y-49019309D01*
X109266519Y-49023701D01*
X109272406Y-49027659D01*
X109278824Y-49031206D01*
X109285791Y-49034363D01*
X109293321Y-49037155D01*
X109310140Y-49041729D01*
X109329409Y-49045107D01*
X109351259Y-49047467D01*
X109375819Y-49048991D01*
X109403220Y-49049857D01*
X109467062Y-49050335D01*
X109500090Y-49050129D01*
X109529212Y-49049386D01*
X109554671Y-49047920D01*
X109576713Y-49045543D01*
X109586530Y-49043954D01*
X109595584Y-49042068D01*
X109603906Y-49039861D01*
X109611527Y-49037309D01*
X109618478Y-49034389D01*
X109624789Y-49031078D01*
X109630491Y-49027352D01*
X109635614Y-49023189D01*
X109640190Y-49018564D01*
X109644248Y-49013454D01*
X109647820Y-49007836D01*
X109650936Y-49001687D01*
X109653626Y-48994983D01*
X109655922Y-48987700D01*
X109657854Y-48979816D01*
X109659452Y-48971307D01*
X109660747Y-48962150D01*
X109661771Y-48952321D01*
X109663124Y-48930554D01*
X109663756Y-48905821D01*
X109663912Y-48877932D01*
X109663380Y-48859548D01*
X109661743Y-48843027D01*
X109660489Y-48835436D01*
X109658935Y-48828276D01*
X109657072Y-48821535D01*
X109654893Y-48815201D01*
X109652389Y-48809264D01*
X109649552Y-48803710D01*
X109646375Y-48798529D01*
X109642849Y-48793709D01*
X109638966Y-48789237D01*
X109634719Y-48785103D01*
X109630099Y-48781295D01*
X109625098Y-48777801D01*
X109619708Y-48774609D01*
X109613921Y-48771708D01*
X109607729Y-48769085D01*
X109601125Y-48766730D01*
X109586646Y-48762775D01*
X109570418Y-48759748D01*
X109552379Y-48757557D01*
X109532463Y-48756107D01*
X109510607Y-48755306D01*
X109486747Y-48755060D01*
X109451433Y-48755154D01*
X109419234Y-48755576D01*
X109390033Y-48756533D01*
X109363716Y-48758235D01*
X109351603Y-48759430D01*
X109340167Y-48760889D01*
X109329395Y-48762638D01*
X109319271Y-48764704D01*
X109309782Y-48767112D01*
X109300912Y-48769888D01*
X109292649Y-48773059D01*
X109284976Y-48776650D01*
X109277880Y-48780688D01*
X109271347Y-48785198D01*
X109265361Y-48790206D01*
X109259908Y-48795740D01*
X109254975Y-48801824D01*
X109250547Y-48808484D01*
X109246608Y-48815748D01*
X109243146Y-48823640D01*
X109240144Y-48832187D01*
X109237590Y-48841415D01*
X109235468Y-48851350D01*
X109233765Y-48862018D01*
X109232465Y-48873445D01*
X109231554Y-48885657D01*
X109231018Y-48898680D01*
X109230843Y-48912540D01*
X108985186Y-48912540D01*
X108985097Y-48908412D01*
X108985837Y-48862425D01*
X108988249Y-48820342D01*
X108992623Y-48782034D01*
X108995635Y-48764255D01*
X108999245Y-48747371D01*
X109003490Y-48731366D01*
X109008405Y-48716223D01*
X109014027Y-48701928D01*
X109020391Y-48688463D01*
X109027534Y-48675813D01*
X109035492Y-48663960D01*
X109044300Y-48652890D01*
X109053994Y-48642586D01*
X109064612Y-48633031D01*
X109076188Y-48624210D01*
X109088759Y-48616106D01*
X109102361Y-48608704D01*
X109117030Y-48601986D01*
X109132802Y-48595938D01*
X109149713Y-48590542D01*
X109167798Y-48585783D01*
X109187095Y-48581644D01*
X109207639Y-48578110D01*
X109252613Y-48572789D01*
X109303008Y-48569691D01*
X109359112Y-48568687D01*
X109377139Y-48568802D01*
X109394329Y-48569144D01*
X109410709Y-48569714D01*
X109426308Y-48570510D01*
X109441154Y-48571532D01*
X109455274Y-48572779D01*
X109468696Y-48574250D01*
X109481449Y-48575945D01*
X109493560Y-48577863D01*
X109505057Y-48580003D01*
X109515968Y-48582364D01*
X109526320Y-48584945D01*
X109536143Y-48587746D01*
X109545463Y-48590767D01*
X109554309Y-48594005D01*
X109562709Y-48597461D01*
X109570690Y-48601134D01*
X109578280Y-48605022D01*
X109585507Y-48609126D01*
X109592400Y-48613444D01*
X109598986Y-48617976D01*
X109605292Y-48622721D01*
X109611348Y-48627679D01*
X109617180Y-48632847D01*
X109622817Y-48638227D01*
X109628286Y-48643816D01*
X109638835Y-48655621D01*
X109649048Y-48668257D01*
X109659150Y-48681718D01*
X109659150Y-48302623D01*
X109905529Y-48302623D01*
X109905529Y-49228453D01*
G37*
G36*
X111615270Y-48563968D02*
G01*
X111652597Y-48567006D01*
X111669623Y-48569316D01*
X111685599Y-48572167D01*
X111700559Y-48575567D01*
X111714536Y-48579527D01*
X111727560Y-48584057D01*
X111739666Y-48589167D01*
X111750884Y-48594865D01*
X111761249Y-48601164D01*
X111770792Y-48608071D01*
X111779545Y-48615597D01*
X111787541Y-48623751D01*
X111794813Y-48632545D01*
X111801393Y-48641986D01*
X111807313Y-48652086D01*
X111812607Y-48662853D01*
X111817305Y-48674299D01*
X111821441Y-48686432D01*
X111825047Y-48699263D01*
X111830800Y-48727055D01*
X111834822Y-48757756D01*
X111837374Y-48791443D01*
X111838715Y-48828195D01*
X111839104Y-48868090D01*
X111617490Y-48868090D01*
X111616349Y-48853060D01*
X111614661Y-48839259D01*
X111612347Y-48826651D01*
X111610931Y-48820784D01*
X111609329Y-48815201D01*
X111607531Y-48809899D01*
X111605527Y-48804873D01*
X111603308Y-48800119D01*
X111600864Y-48795631D01*
X111598184Y-48791406D01*
X111595260Y-48787439D01*
X111592080Y-48783726D01*
X111588637Y-48780261D01*
X111584919Y-48777042D01*
X111580916Y-48774062D01*
X111576620Y-48771319D01*
X111572019Y-48768806D01*
X111567105Y-48766520D01*
X111561868Y-48764457D01*
X111556297Y-48762611D01*
X111550383Y-48760978D01*
X111544116Y-48759555D01*
X111537486Y-48758335D01*
X111523098Y-48756492D01*
X111507142Y-48755412D01*
X111489537Y-48755060D01*
X111480439Y-48755190D01*
X111471602Y-48755581D01*
X111463027Y-48756232D01*
X111454716Y-48757143D01*
X111446671Y-48758314D01*
X111438895Y-48759746D01*
X111431387Y-48761438D01*
X111424152Y-48763389D01*
X111417190Y-48765601D01*
X111410503Y-48768073D01*
X111404093Y-48770804D01*
X111397963Y-48773796D01*
X111392113Y-48777047D01*
X111386547Y-48780557D01*
X111381264Y-48784328D01*
X111376269Y-48788358D01*
X111371561Y-48792647D01*
X111367144Y-48797196D01*
X111363019Y-48802005D01*
X111359188Y-48807072D01*
X111355653Y-48812399D01*
X111352415Y-48817985D01*
X111349477Y-48823831D01*
X111346840Y-48829935D01*
X111344507Y-48836299D01*
X111342478Y-48842921D01*
X111340757Y-48849803D01*
X111339344Y-48856943D01*
X111338242Y-48864343D01*
X111337453Y-48872000D01*
X111336978Y-48879917D01*
X111336819Y-48888092D01*
X111336819Y-49227500D01*
X111100599Y-49227500D01*
X111100599Y-48578212D01*
X111326977Y-48578212D01*
X111327295Y-48700767D01*
X111337383Y-48681378D01*
X111347504Y-48663762D01*
X111357802Y-48647847D01*
X111368421Y-48633562D01*
X111379505Y-48620833D01*
X111391198Y-48609590D01*
X111397318Y-48604502D01*
X111403645Y-48599759D01*
X111410195Y-48595351D01*
X111416989Y-48591270D01*
X111424042Y-48587505D01*
X111431375Y-48584049D01*
X111446947Y-48578025D01*
X111463849Y-48573125D01*
X111482225Y-48569278D01*
X111502220Y-48566411D01*
X111523978Y-48564453D01*
X111547642Y-48563330D01*
X111573358Y-48562972D01*
X111615270Y-48563968D01*
G37*
G36*
X112419180Y-48578799D02*
G01*
X112483662Y-48581675D01*
X112539592Y-48586769D01*
X112564545Y-48590224D01*
X112587595Y-48594326D01*
X112608821Y-48599104D01*
X112628301Y-48604591D01*
X112646113Y-48610816D01*
X112662336Y-48617811D01*
X112677048Y-48625605D01*
X112690328Y-48634230D01*
X112702253Y-48643717D01*
X112712904Y-48654095D01*
X112722357Y-48665396D01*
X112730691Y-48677651D01*
X112737985Y-48690889D01*
X112744317Y-48705143D01*
X112749766Y-48720442D01*
X112754409Y-48736817D01*
X112758326Y-48754300D01*
X112761595Y-48772919D01*
X112766502Y-48813695D01*
X112769758Y-48859388D01*
X112773824Y-48966515D01*
X112153747Y-48966515D01*
X112154187Y-48986688D01*
X112155663Y-49004774D01*
X112158404Y-49020882D01*
X112162642Y-49035120D01*
X112165395Y-49041571D01*
X112168609Y-49047596D01*
X112172312Y-49053207D01*
X112176534Y-49058418D01*
X112181304Y-49063243D01*
X112186651Y-49067696D01*
X112192603Y-49071789D01*
X112199189Y-49075536D01*
X112206439Y-49078952D01*
X112214380Y-49082049D01*
X112232455Y-49087342D01*
X112253646Y-49091523D01*
X112278182Y-49094701D01*
X112306296Y-49096984D01*
X112338219Y-49098480D01*
X112374181Y-49099299D01*
X112414415Y-49099547D01*
X112423413Y-49099476D01*
X112431963Y-49099261D01*
X112440077Y-49098903D01*
X112447767Y-49098401D01*
X112455046Y-49097756D01*
X112461926Y-49096967D01*
X112468420Y-49096035D01*
X112474541Y-49094959D01*
X112480301Y-49093739D01*
X112485712Y-49092375D01*
X112490788Y-49090868D01*
X112495541Y-49089217D01*
X112499982Y-49087422D01*
X112504126Y-49085483D01*
X112507984Y-49083399D01*
X112511569Y-49081172D01*
X112514894Y-49078801D01*
X112517971Y-49076285D01*
X112520812Y-49073625D01*
X112523431Y-49070820D01*
X112525839Y-49067872D01*
X112528050Y-49064778D01*
X112530076Y-49061541D01*
X112531929Y-49058158D01*
X112533622Y-49054631D01*
X112535168Y-49050960D01*
X112536579Y-49047143D01*
X112537867Y-49043182D01*
X112540128Y-49034825D01*
X112542049Y-49025887D01*
X112773507Y-49025887D01*
X112773060Y-49045141D01*
X112771717Y-49063276D01*
X112769476Y-49080327D01*
X112766334Y-49096325D01*
X112762287Y-49111305D01*
X112757333Y-49125300D01*
X112751470Y-49138343D01*
X112744694Y-49150466D01*
X112737003Y-49161705D01*
X112728394Y-49172091D01*
X112718864Y-49181658D01*
X112708410Y-49190439D01*
X112697030Y-49198468D01*
X112684720Y-49205778D01*
X112671479Y-49212401D01*
X112657302Y-49218372D01*
X112626134Y-49228488D01*
X112591193Y-49236392D01*
X112552457Y-49242351D01*
X112509903Y-49246629D01*
X112463510Y-49249494D01*
X112413254Y-49251211D01*
X112301067Y-49252265D01*
X112249661Y-49250590D01*
X112202405Y-49247336D01*
X112159182Y-49242300D01*
X112139048Y-49239050D01*
X112119879Y-49235279D01*
X112101661Y-49230960D01*
X112084380Y-49226070D01*
X112068022Y-49220581D01*
X112052571Y-49214470D01*
X112038014Y-49207710D01*
X112024336Y-49200277D01*
X112011524Y-49192145D01*
X111999561Y-49183288D01*
X111988436Y-49173682D01*
X111978132Y-49163300D01*
X111968635Y-49152118D01*
X111959932Y-49140111D01*
X111952007Y-49127252D01*
X111944847Y-49113517D01*
X111938437Y-49098879D01*
X111932762Y-49083315D01*
X111927809Y-49066799D01*
X111923563Y-49049304D01*
X111920010Y-49030806D01*
X111917135Y-49011280D01*
X111914924Y-48990700D01*
X111913362Y-48969040D01*
X111912436Y-48946276D01*
X111912130Y-48922382D01*
X111913104Y-48872261D01*
X111916079Y-48829037D01*
X112148984Y-48829037D01*
X112542684Y-48829037D01*
X112540635Y-48814173D01*
X112538048Y-48800947D01*
X112534728Y-48789268D01*
X112530480Y-48779041D01*
X112527947Y-48774443D01*
X112525108Y-48770172D01*
X112521940Y-48766217D01*
X112518418Y-48762567D01*
X112514516Y-48759209D01*
X112510212Y-48756132D01*
X112505481Y-48753324D01*
X112500298Y-48750774D01*
X112488478Y-48746397D01*
X112474558Y-48742909D01*
X112458342Y-48740216D01*
X112439635Y-48738223D01*
X112418242Y-48736836D01*
X112393967Y-48735962D01*
X112335991Y-48735375D01*
X112308047Y-48735670D01*
X112283146Y-48736574D01*
X112271777Y-48737263D01*
X112261099Y-48738115D01*
X112251087Y-48739133D01*
X112241719Y-48740321D01*
X112232971Y-48741683D01*
X112224819Y-48743221D01*
X112217240Y-48744941D01*
X112210211Y-48746844D01*
X112203709Y-48748935D01*
X112197709Y-48751217D01*
X112192188Y-48753694D01*
X112187124Y-48756370D01*
X112182492Y-48759247D01*
X112178269Y-48762329D01*
X112174432Y-48765621D01*
X112170957Y-48769125D01*
X112167821Y-48772845D01*
X112165000Y-48776784D01*
X112162471Y-48780947D01*
X112160211Y-48785337D01*
X112158196Y-48789956D01*
X112156402Y-48794810D01*
X112154807Y-48799900D01*
X112153386Y-48805232D01*
X112150976Y-48816632D01*
X112148984Y-48829037D01*
X111916079Y-48829037D01*
X111916219Y-48826997D01*
X111921761Y-48786368D01*
X111925533Y-48767721D01*
X111930019Y-48750149D01*
X111935256Y-48733623D01*
X111941279Y-48718115D01*
X111948125Y-48703598D01*
X111955829Y-48690043D01*
X111964428Y-48677423D01*
X111973957Y-48665709D01*
X111984452Y-48654873D01*
X111995950Y-48644887D01*
X112008485Y-48635724D01*
X112022094Y-48627355D01*
X112036814Y-48619753D01*
X112052679Y-48612888D01*
X112069726Y-48606734D01*
X112087991Y-48601262D01*
X112107509Y-48596444D01*
X112128317Y-48592252D01*
X112173946Y-48585635D01*
X112225163Y-48581185D01*
X112282258Y-48578680D01*
X112345517Y-48577895D01*
X112419180Y-48578799D01*
G37*
G36*
X105890180Y-48564018D02*
G01*
X105909027Y-48565328D01*
X105927286Y-48567167D01*
X105944955Y-48569537D01*
X105962028Y-48572441D01*
X105978503Y-48575881D01*
X105994377Y-48579859D01*
X106009644Y-48584380D01*
X106024303Y-48589444D01*
X106038349Y-48595054D01*
X106051778Y-48601214D01*
X106064588Y-48607925D01*
X106076774Y-48615190D01*
X106088333Y-48623012D01*
X106099261Y-48631394D01*
X106109554Y-48640337D01*
X106119210Y-48649844D01*
X106128224Y-48659919D01*
X106136593Y-48670563D01*
X106144313Y-48681779D01*
X106151381Y-48693569D01*
X106157793Y-48705937D01*
X106163545Y-48718885D01*
X106168633Y-48732415D01*
X106173055Y-48746529D01*
X106176807Y-48761231D01*
X106179885Y-48776523D01*
X106182285Y-48792408D01*
X106184003Y-48808888D01*
X106185037Y-48825965D01*
X106185383Y-48843642D01*
X106185383Y-49227500D01*
X105949163Y-49227500D01*
X105949163Y-48883012D01*
X105948583Y-48866250D01*
X105947857Y-48858414D01*
X105946837Y-48850933D01*
X105945521Y-48843800D01*
X105943907Y-48837011D01*
X105941995Y-48830557D01*
X105939781Y-48824434D01*
X105937265Y-48818634D01*
X105934445Y-48813152D01*
X105931317Y-48807980D01*
X105927882Y-48803114D01*
X105924137Y-48798546D01*
X105920080Y-48794271D01*
X105915709Y-48790282D01*
X105911023Y-48786572D01*
X105906020Y-48783136D01*
X105900697Y-48779967D01*
X105895054Y-48777059D01*
X105889089Y-48774405D01*
X105882799Y-48772000D01*
X105876183Y-48769837D01*
X105861964Y-48766212D01*
X105846420Y-48763480D01*
X105829534Y-48761591D01*
X105811293Y-48760494D01*
X105791683Y-48760140D01*
X105770903Y-48760491D01*
X105751104Y-48761578D01*
X105732334Y-48763453D01*
X105723351Y-48764702D01*
X105714644Y-48766168D01*
X105706220Y-48767856D01*
X105698083Y-48769773D01*
X105690242Y-48771926D01*
X105682701Y-48774321D01*
X105675468Y-48776965D01*
X105668548Y-48779864D01*
X105661948Y-48783024D01*
X105655674Y-48786453D01*
X105649731Y-48790156D01*
X105644127Y-48794139D01*
X105638868Y-48798410D01*
X105633959Y-48802975D01*
X105629407Y-48807839D01*
X105625219Y-48813011D01*
X105621399Y-48818496D01*
X105617956Y-48824300D01*
X105614894Y-48830430D01*
X105612220Y-48836893D01*
X105609941Y-48843694D01*
X105608062Y-48850841D01*
X105606590Y-48858340D01*
X105605530Y-48866197D01*
X105604890Y-48874419D01*
X105604675Y-48883012D01*
X105604675Y-49227500D01*
X105363375Y-49227500D01*
X105363375Y-48927462D01*
X105362960Y-48905282D01*
X105361661Y-48884904D01*
X105359399Y-48866276D01*
X105357881Y-48857603D01*
X105356093Y-48849348D01*
X105354023Y-48841505D01*
X105351663Y-48834067D01*
X105349002Y-48827029D01*
X105346029Y-48820384D01*
X105342736Y-48814126D01*
X105339112Y-48808247D01*
X105335147Y-48802742D01*
X105330832Y-48797605D01*
X105326155Y-48792828D01*
X105321107Y-48788406D01*
X105315679Y-48784332D01*
X105309859Y-48780600D01*
X105303639Y-48777203D01*
X105297008Y-48774135D01*
X105289955Y-48771390D01*
X105282472Y-48768961D01*
X105274548Y-48766841D01*
X105266174Y-48765025D01*
X105257338Y-48763506D01*
X105248031Y-48762277D01*
X105238244Y-48761332D01*
X105227965Y-48760666D01*
X105205895Y-48760140D01*
X105181926Y-48760549D01*
X105159870Y-48761806D01*
X105149543Y-48762765D01*
X105139677Y-48763953D01*
X105130263Y-48765375D01*
X105121296Y-48767036D01*
X105112770Y-48768941D01*
X105104678Y-48771097D01*
X105097013Y-48773508D01*
X105089770Y-48776180D01*
X105082942Y-48779119D01*
X105076523Y-48782329D01*
X105070506Y-48785817D01*
X105064886Y-48789588D01*
X105059655Y-48793647D01*
X105054807Y-48798000D01*
X105050336Y-48802653D01*
X105046237Y-48807610D01*
X105042501Y-48812877D01*
X105039124Y-48818460D01*
X105036098Y-48824364D01*
X105033418Y-48830595D01*
X105031077Y-48837158D01*
X105029069Y-48844058D01*
X105027387Y-48851302D01*
X105026025Y-48858894D01*
X105024976Y-48866839D01*
X105024235Y-48875145D01*
X105023795Y-48883815D01*
X105023650Y-48892855D01*
X105023650Y-49227500D01*
X104787430Y-49227500D01*
X104787430Y-48578212D01*
X105008727Y-48578212D01*
X105009045Y-48730295D01*
X105014839Y-48710574D01*
X105021252Y-48692021D01*
X105028444Y-48674650D01*
X105036573Y-48658475D01*
X105045798Y-48643512D01*
X105056278Y-48629775D01*
X105062037Y-48623370D01*
X105068170Y-48617277D01*
X105074695Y-48611497D01*
X105081634Y-48606033D01*
X105089004Y-48600887D01*
X105096827Y-48596059D01*
X105105123Y-48591552D01*
X105113910Y-48587367D01*
X105123209Y-48583507D01*
X105133040Y-48579973D01*
X105143422Y-48576767D01*
X105154376Y-48573891D01*
X105178076Y-48569136D01*
X105204300Y-48565721D01*
X105233205Y-48563662D01*
X105264950Y-48562972D01*
X105282139Y-48563144D01*
X105298654Y-48563656D01*
X105314513Y-48564501D01*
X105329734Y-48565674D01*
X105344335Y-48567167D01*
X105358334Y-48568975D01*
X105371749Y-48571091D01*
X105384598Y-48573509D01*
X105396899Y-48576224D01*
X105408671Y-48579227D01*
X105419930Y-48582514D01*
X105430696Y-48586078D01*
X105440986Y-48589913D01*
X105450819Y-48594011D01*
X105460211Y-48598369D01*
X105469182Y-48602977D01*
X105477749Y-48607832D01*
X105485931Y-48612926D01*
X105493744Y-48618252D01*
X105501209Y-48623806D01*
X105508341Y-48629580D01*
X105515160Y-48635568D01*
X105521684Y-48641764D01*
X105527929Y-48648162D01*
X105533916Y-48654755D01*
X105539661Y-48661537D01*
X105550498Y-48675643D01*
X105560586Y-48690430D01*
X105570068Y-48705847D01*
X105575246Y-48692052D01*
X105581568Y-48678469D01*
X105589140Y-48665192D01*
X105598072Y-48652314D01*
X105608472Y-48639929D01*
X105620448Y-48628131D01*
X105634108Y-48617013D01*
X105649562Y-48606668D01*
X105666916Y-48597191D01*
X105686281Y-48588673D01*
X105707763Y-48581210D01*
X105731472Y-48574894D01*
X105757515Y-48569818D01*
X105786002Y-48566077D01*
X105817040Y-48563764D01*
X105850738Y-48562972D01*
X105890180Y-48564018D01*
G37*
D11*
X100641500Y-54927500D02*
X100641500Y-70167500D01*
D10*
G36*
X110572475Y-48573804D02*
G01*
X110633174Y-48575971D01*
X110687406Y-48579865D01*
X110712203Y-48582533D01*
X110735509Y-48585718D01*
X110757367Y-48589452D01*
X110777820Y-48593761D01*
X110796910Y-48598676D01*
X110814679Y-48604225D01*
X110831169Y-48610436D01*
X110846422Y-48617340D01*
X110860481Y-48624964D01*
X110873388Y-48633338D01*
X110885186Y-48642491D01*
X110895916Y-48652451D01*
X110905621Y-48663248D01*
X110914343Y-48674909D01*
X110922124Y-48687465D01*
X110929007Y-48700944D01*
X110935034Y-48715375D01*
X110940247Y-48730786D01*
X110944688Y-48747207D01*
X110948400Y-48764667D01*
X110951425Y-48783195D01*
X110953806Y-48802818D01*
X110955583Y-48823567D01*
X110956801Y-48845471D01*
X110957724Y-48892855D01*
X110957185Y-48944766D01*
X110955238Y-48991708D01*
X110951393Y-49033904D01*
X110945158Y-49071578D01*
X110940991Y-49088789D01*
X110936041Y-49104954D01*
X110930249Y-49120101D01*
X110923551Y-49134258D01*
X110915888Y-49147452D01*
X110907197Y-49159712D01*
X110897416Y-49171066D01*
X110886485Y-49181542D01*
X110874342Y-49191167D01*
X110860926Y-49199971D01*
X110846175Y-49207980D01*
X110830027Y-49215223D01*
X110812421Y-49221728D01*
X110793296Y-49227523D01*
X110772591Y-49232636D01*
X110750243Y-49237094D01*
X110700375Y-49244162D01*
X110643202Y-49248950D01*
X110578230Y-49251682D01*
X110504969Y-49252582D01*
X110436627Y-49251851D01*
X110375306Y-49249497D01*
X110320646Y-49245282D01*
X110295701Y-49242403D01*
X110272286Y-49238970D01*
X110250357Y-49234952D01*
X110229867Y-49230320D01*
X110210772Y-49225045D01*
X110193027Y-49219096D01*
X110176587Y-49212444D01*
X110161407Y-49205059D01*
X110147441Y-49196911D01*
X110134645Y-49187971D01*
X110122974Y-49178209D01*
X110112382Y-49167594D01*
X110102824Y-49156098D01*
X110094256Y-49143690D01*
X110086633Y-49130341D01*
X110079908Y-49116020D01*
X110074038Y-49100699D01*
X110068977Y-49084347D01*
X110064680Y-49066935D01*
X110061103Y-49048432D01*
X110058199Y-49028810D01*
X110055924Y-49008038D01*
X110053082Y-48962926D01*
X110052214Y-48912857D01*
X110052281Y-48907777D01*
X110288752Y-48907777D01*
X110289078Y-48932254D01*
X110290200Y-48954106D01*
X110292333Y-48973479D01*
X110295692Y-48990516D01*
X110297899Y-48998204D01*
X110300494Y-49005361D01*
X110303502Y-49012007D01*
X110306952Y-49018160D01*
X110310870Y-49023836D01*
X110315283Y-49029055D01*
X110320217Y-49033833D01*
X110325701Y-49038191D01*
X110331761Y-49042144D01*
X110338423Y-49045712D01*
X110345715Y-49048912D01*
X110353663Y-49051762D01*
X110362295Y-49054281D01*
X110371637Y-49056487D01*
X110392560Y-49060029D01*
X110416647Y-49062532D01*
X110444114Y-49064142D01*
X110475177Y-49065003D01*
X110510050Y-49065257D01*
X110542404Y-49064950D01*
X110571255Y-49063947D01*
X110596799Y-49062124D01*
X110608391Y-49060867D01*
X110619230Y-49059359D01*
X110629340Y-49057584D01*
X110638744Y-49055527D01*
X110647469Y-49053173D01*
X110655537Y-49050507D01*
X110662973Y-49047512D01*
X110669803Y-49044174D01*
X110676050Y-49040476D01*
X110681738Y-49036405D01*
X110686892Y-49031943D01*
X110691537Y-49027077D01*
X110695697Y-49021790D01*
X110699396Y-49016067D01*
X110702659Y-49009892D01*
X110705510Y-49003251D01*
X110707974Y-48996128D01*
X110710075Y-48988507D01*
X110711837Y-48980373D01*
X110713285Y-48971711D01*
X110714443Y-48962504D01*
X110715336Y-48952739D01*
X110716423Y-48931469D01*
X110716742Y-48907777D01*
X110716310Y-48882574D01*
X110714893Y-48860413D01*
X110712311Y-48841098D01*
X110710527Y-48832447D01*
X110708383Y-48824434D01*
X110705857Y-48817035D01*
X110702927Y-48810225D01*
X110699570Y-48803981D01*
X110695763Y-48798277D01*
X110691484Y-48793090D01*
X110686710Y-48788394D01*
X110681418Y-48784166D01*
X110675586Y-48780381D01*
X110669192Y-48777014D01*
X110662212Y-48774041D01*
X110654624Y-48771439D01*
X110646405Y-48769181D01*
X110627986Y-48765605D01*
X110606773Y-48763117D01*
X110582585Y-48761521D01*
X110555242Y-48760624D01*
X110490365Y-48760140D01*
X110459742Y-48760336D01*
X110432295Y-48761027D01*
X110407857Y-48762365D01*
X110386264Y-48764501D01*
X110376483Y-48765916D01*
X110367350Y-48767587D01*
X110358846Y-48769534D01*
X110350950Y-48771776D01*
X110343640Y-48774332D01*
X110336897Y-48777221D01*
X110330699Y-48780461D01*
X110325026Y-48784072D01*
X110319858Y-48788072D01*
X110315172Y-48792481D01*
X110310950Y-48797319D01*
X110307169Y-48802602D01*
X110303810Y-48808352D01*
X110300852Y-48814587D01*
X110298274Y-48821325D01*
X110296054Y-48828586D01*
X110294174Y-48836389D01*
X110292611Y-48844753D01*
X110291346Y-48853696D01*
X110290357Y-48863239D01*
X110289126Y-48884196D01*
X110288752Y-48907777D01*
X110052281Y-48907777D01*
X110052865Y-48863574D01*
X110055117Y-48819044D01*
X110059416Y-48779051D01*
X110066209Y-48743377D01*
X110070680Y-48727092D01*
X110075943Y-48711805D01*
X110082053Y-48697489D01*
X110089066Y-48684118D01*
X110097037Y-48671663D01*
X110106023Y-48660099D01*
X110116080Y-48649396D01*
X110127263Y-48639530D01*
X110139628Y-48630471D01*
X110153232Y-48622194D01*
X110168129Y-48614671D01*
X110184377Y-48607875D01*
X110202030Y-48601778D01*
X110221144Y-48596354D01*
X110241776Y-48591575D01*
X110263982Y-48587415D01*
X110313336Y-48580841D01*
X110369654Y-48576414D01*
X110433383Y-48573917D01*
X110504969Y-48573133D01*
X110572475Y-48573804D01*
G37*
G36*
X107721447Y-51413487D02*
G01*
X100585000Y-51413487D01*
X100585000Y-51228385D01*
X107721447Y-51228385D01*
X107721447Y-51413487D01*
G37*
G36*
X107721447Y-51009945D02*
G01*
X100585000Y-51009945D01*
X100585000Y-50824842D01*
X107721447Y-50824842D01*
X107721447Y-51009945D01*
G37*
G36*
X109456192Y-50017524D02*
G01*
X109543143Y-50018114D01*
X109630153Y-50019717D01*
X109717252Y-50022837D01*
X109782182Y-50025189D01*
X109854442Y-50029088D01*
X109930973Y-50035874D01*
X109969885Y-50040769D01*
X110008717Y-50046888D01*
X110047088Y-50054398D01*
X110084616Y-50063467D01*
X110120917Y-50074263D01*
X110155611Y-50086952D01*
X110188313Y-50101703D01*
X110218643Y-50118682D01*
X110232799Y-50128060D01*
X110246217Y-50138058D01*
X110258852Y-50148697D01*
X110270655Y-50159997D01*
X110278319Y-50168395D01*
X110285489Y-50177260D01*
X110292180Y-50186566D01*
X110298409Y-50196287D01*
X110304192Y-50206397D01*
X110309546Y-50216870D01*
X110319034Y-50238802D01*
X110327003Y-50261873D01*
X110333587Y-50285878D01*
X110338916Y-50310607D01*
X110343124Y-50335852D01*
X110346342Y-50361407D01*
X110348703Y-50387062D01*
X110350338Y-50412611D01*
X110351379Y-50437844D01*
X110352210Y-50486535D01*
X110352252Y-50531472D01*
X109851872Y-50531155D01*
X109851716Y-50520838D01*
X109851480Y-50515417D01*
X109851103Y-50509877D01*
X109850556Y-50504262D01*
X109849812Y-50498612D01*
X109848845Y-50492970D01*
X109847625Y-50487380D01*
X109846127Y-50481882D01*
X109844322Y-50476519D01*
X109842183Y-50471335D01*
X109839683Y-50466370D01*
X109836794Y-50461668D01*
X109835195Y-50459428D01*
X109833488Y-50457270D01*
X109831671Y-50455198D01*
X109829739Y-50453219D01*
X109827690Y-50451337D01*
X109825519Y-50449557D01*
X109820908Y-50446287D01*
X109816025Y-50443364D01*
X109810907Y-50440767D01*
X109805586Y-50438470D01*
X109800098Y-50436450D01*
X109794477Y-50434684D01*
X109788758Y-50433147D01*
X109782974Y-50431817D01*
X109777161Y-50430669D01*
X109771352Y-50429680D01*
X109759886Y-50428082D01*
X109738524Y-50425745D01*
X109686866Y-50421343D01*
X109634821Y-50418036D01*
X109582478Y-50415665D01*
X109529927Y-50414077D01*
X109424557Y-50412618D01*
X109319425Y-50412410D01*
X109220915Y-50412782D01*
X109170885Y-50413666D01*
X109120709Y-50415386D01*
X109070668Y-50418223D01*
X109021039Y-50422456D01*
X108972103Y-50428362D01*
X108947981Y-50432031D01*
X108924137Y-50436222D01*
X108913421Y-50438368D01*
X108902944Y-50440826D01*
X108897794Y-50442205D01*
X108892704Y-50443701D01*
X108887674Y-50445327D01*
X108882703Y-50447097D01*
X108877792Y-50449022D01*
X108872940Y-50451118D01*
X108868148Y-50453395D01*
X108863415Y-50455868D01*
X108858742Y-50458549D01*
X108854128Y-50461451D01*
X108849574Y-50464588D01*
X108845080Y-50467972D01*
X108839586Y-50472650D01*
X108834466Y-50477796D01*
X108829706Y-50483383D01*
X108825295Y-50489383D01*
X108821218Y-50495770D01*
X108817463Y-50502517D01*
X108814016Y-50509596D01*
X108810864Y-50516981D01*
X108805395Y-50532560D01*
X108800950Y-50549037D01*
X108797426Y-50566196D01*
X108794717Y-50583820D01*
X108792718Y-50601694D01*
X108791325Y-50619600D01*
X108790434Y-50637324D01*
X108789939Y-50654648D01*
X108789835Y-50715622D01*
X108789835Y-50813095D01*
X108801743Y-50801441D01*
X108813722Y-50790294D01*
X108819769Y-50784910D01*
X108825872Y-50779653D01*
X108832042Y-50774522D01*
X108838293Y-50769518D01*
X108844637Y-50764640D01*
X108851087Y-50759889D01*
X108857655Y-50755264D01*
X108864353Y-50750765D01*
X108871195Y-50746394D01*
X108878192Y-50742148D01*
X108885358Y-50738029D01*
X108892705Y-50734037D01*
X108922049Y-50719260D01*
X108954448Y-50706501D01*
X108989495Y-50695614D01*
X109026784Y-50686452D01*
X109065909Y-50678867D01*
X109106465Y-50672713D01*
X109148045Y-50667842D01*
X109190242Y-50664108D01*
X109274868Y-50659462D01*
X109357093Y-50657599D01*
X109501352Y-50657520D01*
X109570194Y-50657737D01*
X109641737Y-50658785D01*
X109714961Y-50661253D01*
X109788848Y-50665735D01*
X109862378Y-50672821D01*
X109898691Y-50677526D01*
X109934532Y-50683103D01*
X109969773Y-50689628D01*
X110004289Y-50697173D01*
X110037950Y-50705813D01*
X110070630Y-50715622D01*
X110082355Y-50719650D01*
X110093843Y-50723886D01*
X110105100Y-50728345D01*
X110116136Y-50733040D01*
X110126958Y-50737986D01*
X110137574Y-50743198D01*
X110147992Y-50748690D01*
X110158220Y-50754476D01*
X110168265Y-50760571D01*
X110178136Y-50766989D01*
X110187841Y-50773745D01*
X110197387Y-50780853D01*
X110206782Y-50788328D01*
X110216035Y-50796183D01*
X110225152Y-50804434D01*
X110234143Y-50813095D01*
X110243726Y-50823011D01*
X110252726Y-50833454D01*
X110261159Y-50844394D01*
X110269045Y-50855803D01*
X110276402Y-50867654D01*
X110283247Y-50879917D01*
X110295479Y-50905567D01*
X110305888Y-50932526D01*
X110314621Y-50960568D01*
X110321825Y-50989467D01*
X110327646Y-51018993D01*
X110332232Y-51048922D01*
X110335730Y-51079026D01*
X110338286Y-51109077D01*
X110340048Y-51138850D01*
X110341777Y-51196650D01*
X110342092Y-51250610D01*
X110341550Y-51297233D01*
X110339732Y-51343023D01*
X110336353Y-51387772D01*
X110331128Y-51431272D01*
X110323772Y-51473316D01*
X110313997Y-51513695D01*
X110301520Y-51552202D01*
X110286053Y-51588628D01*
X110277110Y-51605996D01*
X110267313Y-51622766D01*
X110256626Y-51638912D01*
X110245013Y-51654408D01*
X110232439Y-51669228D01*
X110218867Y-51683346D01*
X110204263Y-51696736D01*
X110188591Y-51709372D01*
X110171814Y-51721229D01*
X110153898Y-51732279D01*
X110134806Y-51742497D01*
X110114503Y-51751857D01*
X110092953Y-51760334D01*
X110070120Y-51767900D01*
X110045969Y-51774531D01*
X110020464Y-51780200D01*
X109979861Y-51787463D01*
X109939056Y-51793599D01*
X109898117Y-51798701D01*
X109857111Y-51802861D01*
X109816105Y-51806173D01*
X109775166Y-51808730D01*
X109734361Y-51810624D01*
X109693757Y-51811950D01*
X109457855Y-51815601D01*
X109340142Y-51816861D01*
X109221952Y-51817347D01*
X109026784Y-51817040D01*
X108914978Y-51813496D01*
X108857757Y-51809956D01*
X108800511Y-51804885D01*
X108743879Y-51798021D01*
X108688500Y-51789101D01*
X108635014Y-51777860D01*
X108584060Y-51764037D01*
X108536278Y-51747367D01*
X108492308Y-51727588D01*
X108471952Y-51716450D01*
X108452789Y-51704435D01*
X108434898Y-51691512D01*
X108418360Y-51677647D01*
X108407318Y-51667230D01*
X108396920Y-51656241D01*
X108387146Y-51644708D01*
X108377975Y-51632663D01*
X108369388Y-51620134D01*
X108361363Y-51607151D01*
X108353881Y-51593746D01*
X108346922Y-51579946D01*
X108334490Y-51551287D01*
X108323906Y-51521411D01*
X108315007Y-51490559D01*
X108307632Y-51458969D01*
X108301618Y-51426881D01*
X108296804Y-51394533D01*
X108293029Y-51362164D01*
X108290129Y-51330014D01*
X108286312Y-51267327D01*
X108285369Y-51242672D01*
X108798090Y-51242672D01*
X108798215Y-51251213D01*
X108798602Y-51260012D01*
X108799266Y-51269015D01*
X108800223Y-51278168D01*
X108801489Y-51287415D01*
X108803079Y-51296702D01*
X108805010Y-51305976D01*
X108807297Y-51315181D01*
X108809957Y-51324264D01*
X108813004Y-51333169D01*
X108816455Y-51341843D01*
X108820325Y-51350230D01*
X108824630Y-51358278D01*
X108829387Y-51365930D01*
X108834611Y-51373133D01*
X108840317Y-51379832D01*
X108845962Y-51384814D01*
X108852956Y-51389411D01*
X108861213Y-51393637D01*
X108870645Y-51397508D01*
X108892689Y-51404244D01*
X108918393Y-51409737D01*
X108947062Y-51414106D01*
X108978002Y-51417471D01*
X109010518Y-51419950D01*
X109043914Y-51421663D01*
X109110570Y-51423265D01*
X109172412Y-51423231D01*
X109259417Y-51422060D01*
X109328260Y-51421618D01*
X109396538Y-51420433D01*
X109533420Y-51416663D01*
X109593408Y-51415651D01*
X109628611Y-51414609D01*
X109646746Y-51413602D01*
X109664945Y-51412138D01*
X109682987Y-51410116D01*
X109700653Y-51407435D01*
X109717725Y-51403995D01*
X109733981Y-51399696D01*
X109749203Y-51394437D01*
X109763171Y-51388117D01*
X109769616Y-51384528D01*
X109775666Y-51380637D01*
X109781292Y-51376430D01*
X109786467Y-51371895D01*
X109789366Y-51368844D01*
X109792113Y-51365647D01*
X109794712Y-51362313D01*
X109797166Y-51358850D01*
X109801656Y-51351564D01*
X109805616Y-51343851D01*
X109809078Y-51335772D01*
X109812073Y-51327386D01*
X109814633Y-51318757D01*
X109816789Y-51309943D01*
X109818573Y-51301007D01*
X109820016Y-51292009D01*
X109821151Y-51283010D01*
X109822008Y-51274071D01*
X109822620Y-51265252D01*
X109823018Y-51256616D01*
X109823298Y-51240133D01*
X109822978Y-51222266D01*
X109822079Y-51205341D01*
X109820511Y-51189360D01*
X109818188Y-51174326D01*
X109815020Y-51160242D01*
X109810919Y-51147113D01*
X109808491Y-51140907D01*
X109805796Y-51134941D01*
X109802824Y-51129215D01*
X109799564Y-51123729D01*
X109796004Y-51118484D01*
X109792134Y-51113481D01*
X109787942Y-51108719D01*
X109783417Y-51104200D01*
X109778549Y-51099923D01*
X109773326Y-51095888D01*
X109767737Y-51092098D01*
X109761771Y-51088551D01*
X109755418Y-51085248D01*
X109748665Y-51082190D01*
X109741503Y-51079377D01*
X109733919Y-51076809D01*
X109725904Y-51074487D01*
X109717445Y-51072411D01*
X109708533Y-51070582D01*
X109699155Y-51069000D01*
X109645346Y-51062301D01*
X109590748Y-51057679D01*
X109535585Y-51054768D01*
X109480080Y-51053204D01*
X109424455Y-51052623D01*
X109368935Y-51052659D01*
X109259099Y-51053125D01*
X109179645Y-51052529D01*
X109139710Y-51052254D01*
X109099715Y-51052410D01*
X109059720Y-51053311D01*
X109019784Y-51055268D01*
X108979968Y-51058594D01*
X108960123Y-51060869D01*
X108940330Y-51063602D01*
X108930871Y-51065229D01*
X108921780Y-51067131D01*
X108913052Y-51069306D01*
X108904683Y-51071752D01*
X108896668Y-51074469D01*
X108889004Y-51077452D01*
X108881685Y-51080702D01*
X108874707Y-51084215D01*
X108868065Y-51087990D01*
X108861756Y-51092025D01*
X108855775Y-51096318D01*
X108850118Y-51100867D01*
X108844779Y-51105670D01*
X108839755Y-51110726D01*
X108835041Y-51116031D01*
X108830634Y-51121586D01*
X108826527Y-51127386D01*
X108822717Y-51133432D01*
X108819200Y-51139720D01*
X108815971Y-51146248D01*
X108813026Y-51153016D01*
X108810360Y-51160020D01*
X108807969Y-51167260D01*
X108805849Y-51174732D01*
X108803994Y-51182436D01*
X108802401Y-51190369D01*
X108799982Y-51206914D01*
X108798557Y-51224354D01*
X108798090Y-51242672D01*
X108285369Y-51242672D01*
X108284057Y-51208382D01*
X108280406Y-51033122D01*
X108279146Y-50945224D01*
X108278660Y-50857862D01*
X108277658Y-50680112D01*
X108280300Y-50582214D01*
X108283544Y-50532673D01*
X108288502Y-50483371D01*
X108295499Y-50434783D01*
X108304860Y-50387385D01*
X108316908Y-50341653D01*
X108331970Y-50298060D01*
X108350369Y-50257083D01*
X108360921Y-50237724D01*
X108372430Y-50219197D01*
X108384935Y-50201562D01*
X108398478Y-50184878D01*
X108413098Y-50169204D01*
X108428837Y-50154600D01*
X108445554Y-50141440D01*
X108464478Y-50129148D01*
X108485470Y-50117693D01*
X108508392Y-50107047D01*
X108559466Y-50088062D01*
X108616589Y-50071955D01*
X108678649Y-50058493D01*
X108744535Y-50047438D01*
X108813135Y-50038555D01*
X108883338Y-50031608D01*
X109024106Y-50022580D01*
X109157946Y-50018467D01*
X109369272Y-50017440D01*
X109456192Y-50017524D01*
G37*
G36*
X102383002Y-49288460D02*
G01*
X101889607Y-49288460D01*
X101889607Y-48950957D01*
X102045182Y-48950957D01*
X102383002Y-49288460D01*
G37*
D11*
X112706500Y-54927500D02*
X112706500Y-70167500D01*
D10*
G36*
X112433465Y-51074080D02*
G01*
X112773824Y-51074080D01*
X112773824Y-51469367D01*
X112433781Y-51469050D01*
X112433781Y-51795757D01*
X111925146Y-51795757D01*
X111925146Y-51469050D01*
X110523384Y-51469050D01*
X110523384Y-51074397D01*
X111000905Y-51074397D01*
X111925782Y-51074397D01*
X111925464Y-50447017D01*
X111817515Y-50447017D01*
X111000905Y-51005817D01*
X111000905Y-51074397D01*
X110523384Y-51074397D01*
X110523384Y-51005817D01*
X110523384Y-50797537D01*
X111566690Y-50038712D01*
X112433465Y-50038712D01*
X112433465Y-51074080D01*
G37*
G36*
X101456827Y-48076705D02*
G01*
X101484830Y-48078076D01*
X101512587Y-48080347D01*
X101540080Y-48083508D01*
X101567290Y-48087547D01*
X101594199Y-48092452D01*
X101620787Y-48098214D01*
X101647037Y-48104820D01*
X101647037Y-48529635D01*
X101634783Y-48522976D01*
X101622311Y-48516696D01*
X101609629Y-48510802D01*
X101596743Y-48505302D01*
X101583661Y-48500201D01*
X101570387Y-48495507D01*
X101556930Y-48491227D01*
X101543294Y-48487368D01*
X101529488Y-48483937D01*
X101515517Y-48480940D01*
X101501388Y-48478386D01*
X101487107Y-48476280D01*
X101472681Y-48474630D01*
X101458116Y-48473443D01*
X101443420Y-48472726D01*
X101428597Y-48472485D01*
X101405580Y-48473068D01*
X101382863Y-48474799D01*
X101360474Y-48477649D01*
X101338441Y-48481590D01*
X101316793Y-48486593D01*
X101295558Y-48492631D01*
X101274764Y-48499675D01*
X101254439Y-48507698D01*
X101234612Y-48516670D01*
X101215311Y-48526563D01*
X101196563Y-48537350D01*
X101178399Y-48549001D01*
X101160845Y-48561489D01*
X101143930Y-48574786D01*
X101127682Y-48588863D01*
X101112129Y-48603692D01*
X101097301Y-48619244D01*
X101083224Y-48635492D01*
X101069927Y-48652407D01*
X101057439Y-48669961D01*
X101045787Y-48688126D01*
X101035001Y-48706873D01*
X101025107Y-48726174D01*
X101016135Y-48746001D01*
X101008113Y-48766326D01*
X101001069Y-48787120D01*
X100995031Y-48808355D01*
X100990027Y-48830004D01*
X100986086Y-48852036D01*
X100983236Y-48874425D01*
X100981506Y-48897143D01*
X100980923Y-48920160D01*
X100981507Y-48943177D01*
X100983240Y-48965894D01*
X100986094Y-48988283D01*
X100990040Y-49010316D01*
X100995050Y-49031964D01*
X101001096Y-49053200D01*
X101008149Y-49073994D01*
X101016180Y-49094319D01*
X101025161Y-49114146D01*
X101035065Y-49133447D01*
X101045861Y-49152194D01*
X101057522Y-49170359D01*
X101070020Y-49187913D01*
X101083326Y-49204828D01*
X101097412Y-49221076D01*
X101112248Y-49236628D01*
X101127808Y-49251457D01*
X101144062Y-49265534D01*
X101160981Y-49278830D01*
X101178538Y-49291319D01*
X101196704Y-49302970D01*
X101215451Y-49313757D01*
X101234750Y-49323650D01*
X101254573Y-49332622D01*
X101274891Y-49340644D01*
X101295676Y-49347689D01*
X101316899Y-49353727D01*
X101338532Y-49358730D01*
X101360547Y-49362671D01*
X101382915Y-49365521D01*
X101405608Y-49367252D01*
X101428597Y-49367835D01*
X101443420Y-49367591D01*
X101458116Y-49366864D01*
X101472681Y-49365662D01*
X101487107Y-49363995D01*
X101501388Y-49361870D01*
X101515517Y-49359296D01*
X101529488Y-49356281D01*
X101543294Y-49352833D01*
X101556930Y-49348961D01*
X101570387Y-49344674D01*
X101583661Y-49339978D01*
X101596743Y-49334884D01*
X101609629Y-49329400D01*
X101622311Y-49323533D01*
X101634783Y-49317292D01*
X101647037Y-49310685D01*
X101647355Y-49735500D01*
X101621014Y-49742015D01*
X101594382Y-49747734D01*
X101567468Y-49752634D01*
X101540278Y-49756693D01*
X101512820Y-49759889D01*
X101485102Y-49762200D01*
X101457131Y-49763602D01*
X101428915Y-49764075D01*
X101385486Y-49762977D01*
X101342628Y-49759718D01*
X101300393Y-49754351D01*
X101258834Y-49746930D01*
X101218005Y-49737507D01*
X101177957Y-49726135D01*
X101138745Y-49712867D01*
X101100422Y-49697757D01*
X101063039Y-49680857D01*
X101026651Y-49662221D01*
X100991311Y-49641900D01*
X100957070Y-49619950D01*
X100923983Y-49596421D01*
X100892103Y-49571368D01*
X100861482Y-49544844D01*
X100832174Y-49516901D01*
X100804231Y-49487593D01*
X100777706Y-49456972D01*
X100752653Y-49425091D01*
X100729125Y-49392005D01*
X100707174Y-49357764D01*
X100686854Y-49322424D01*
X100668218Y-49286036D01*
X100651318Y-49248653D01*
X100636208Y-49210330D01*
X100622940Y-49171118D01*
X100611568Y-49131070D01*
X100602145Y-49090241D01*
X100594724Y-49048682D01*
X100589357Y-49006447D01*
X100586098Y-48963588D01*
X100585000Y-48920160D01*
X100586098Y-48876731D01*
X100589357Y-48833873D01*
X100594723Y-48791638D01*
X100602144Y-48750079D01*
X100611567Y-48709250D01*
X100622938Y-48669202D01*
X100636204Y-48629990D01*
X100651313Y-48591667D01*
X100668211Y-48554284D01*
X100686845Y-48517896D01*
X100707162Y-48482556D01*
X100729108Y-48448315D01*
X100752632Y-48415228D01*
X100777680Y-48383348D01*
X100804198Y-48352727D01*
X100832134Y-48323419D01*
X100861435Y-48295476D01*
X100892047Y-48268951D01*
X100923917Y-48243898D01*
X100956993Y-48220370D01*
X100991221Y-48198419D01*
X101026548Y-48178099D01*
X101062921Y-48159463D01*
X101100288Y-48142563D01*
X101138594Y-48127453D01*
X101177787Y-48114185D01*
X101217814Y-48102813D01*
X101258621Y-48093390D01*
X101300157Y-48085969D01*
X101342367Y-48080602D01*
X101385198Y-48077343D01*
X101428597Y-48076245D01*
X101456827Y-48076705D01*
G37*
G36*
X107474186Y-48564018D02*
G01*
X107493033Y-48565328D01*
X107511293Y-48567167D01*
X107528961Y-48569537D01*
X107546034Y-48572441D01*
X107562510Y-48575881D01*
X107578383Y-48579859D01*
X107593651Y-48584380D01*
X107608309Y-48589444D01*
X107622355Y-48595054D01*
X107635785Y-48601214D01*
X107648594Y-48607925D01*
X107660780Y-48615190D01*
X107672339Y-48623012D01*
X107683267Y-48631394D01*
X107693561Y-48640337D01*
X107703216Y-48649844D01*
X107712231Y-48659919D01*
X107720599Y-48670563D01*
X107728320Y-48681779D01*
X107735387Y-48693569D01*
X107741799Y-48705937D01*
X107747551Y-48718885D01*
X107752640Y-48732415D01*
X107757062Y-48746529D01*
X107760814Y-48761231D01*
X107763891Y-48776523D01*
X107766291Y-48792408D01*
X107768010Y-48808888D01*
X107769044Y-48825965D01*
X107769389Y-48843642D01*
X107769389Y-49227500D01*
X107533169Y-49227500D01*
X107533169Y-48883012D01*
X107533011Y-48874866D01*
X107532537Y-48867035D01*
X107531746Y-48859514D01*
X107530638Y-48852300D01*
X107529215Y-48845390D01*
X107527474Y-48838779D01*
X107525417Y-48832465D01*
X107523044Y-48826443D01*
X107520354Y-48820710D01*
X107517346Y-48815262D01*
X107514023Y-48810096D01*
X107510382Y-48805207D01*
X107506424Y-48800593D01*
X107502149Y-48796249D01*
X107497557Y-48792172D01*
X107492648Y-48788358D01*
X107487422Y-48784803D01*
X107481879Y-48781505D01*
X107476018Y-48778459D01*
X107469840Y-48775661D01*
X107463344Y-48773108D01*
X107456531Y-48770796D01*
X107441952Y-48766882D01*
X107426103Y-48763888D01*
X107408983Y-48761786D01*
X107390591Y-48760547D01*
X107370927Y-48760140D01*
X107350201Y-48760491D01*
X107330553Y-48761578D01*
X107312018Y-48763453D01*
X107303179Y-48764702D01*
X107294633Y-48766168D01*
X107286382Y-48767856D01*
X107278432Y-48769773D01*
X107270787Y-48771926D01*
X107263452Y-48774321D01*
X107256432Y-48776965D01*
X107249730Y-48779864D01*
X107243350Y-48783024D01*
X107237299Y-48786453D01*
X107231580Y-48790156D01*
X107226197Y-48794139D01*
X107221155Y-48798410D01*
X107216459Y-48802975D01*
X107212112Y-48807839D01*
X107208121Y-48813011D01*
X107204488Y-48818496D01*
X107201218Y-48824300D01*
X107198317Y-48830430D01*
X107195787Y-48836893D01*
X107193635Y-48843694D01*
X107191864Y-48850841D01*
X107190478Y-48858340D01*
X107189483Y-48866197D01*
X107188883Y-48874419D01*
X107188682Y-48883012D01*
X107188682Y-49227500D01*
X106947383Y-49227500D01*
X106947383Y-48927462D01*
X106946967Y-48904497D01*
X106945669Y-48883536D01*
X106943406Y-48864507D01*
X106941888Y-48855695D01*
X106940100Y-48847338D01*
X106938030Y-48839429D01*
X106935670Y-48831957D01*
X106933009Y-48824914D01*
X106930037Y-48818291D01*
X106926744Y-48812080D01*
X106923120Y-48806269D01*
X106919155Y-48800852D01*
X106914839Y-48795819D01*
X106910162Y-48791161D01*
X106905115Y-48786868D01*
X106899686Y-48782932D01*
X106893866Y-48779344D01*
X106887646Y-48776095D01*
X106881015Y-48773176D01*
X106873963Y-48770578D01*
X106866480Y-48768291D01*
X106858556Y-48766307D01*
X106850181Y-48764617D01*
X106841345Y-48763211D01*
X106832038Y-48762082D01*
X106811972Y-48760613D01*
X106789902Y-48760140D01*
X106768449Y-48760549D01*
X106748379Y-48761806D01*
X106738863Y-48762765D01*
X106729694Y-48763953D01*
X106720870Y-48765375D01*
X106712392Y-48767036D01*
X106704261Y-48768941D01*
X106696475Y-48771097D01*
X106689036Y-48773508D01*
X106681942Y-48776180D01*
X106675195Y-48779119D01*
X106668793Y-48782329D01*
X106662738Y-48785817D01*
X106657028Y-48789588D01*
X106651665Y-48793647D01*
X106646648Y-48798000D01*
X106641976Y-48802653D01*
X106637651Y-48807610D01*
X106633672Y-48812877D01*
X106630038Y-48818460D01*
X106626751Y-48824364D01*
X106623810Y-48830595D01*
X106621215Y-48837158D01*
X106618966Y-48844058D01*
X106617062Y-48851302D01*
X106615505Y-48858894D01*
X106614294Y-48866839D01*
X106613429Y-48875145D01*
X106612910Y-48883815D01*
X106612737Y-48892855D01*
X106612737Y-49227500D01*
X106376517Y-49227500D01*
X106376517Y-48578212D01*
X106598132Y-48578212D01*
X106598132Y-48730295D01*
X106604709Y-48710574D01*
X106611697Y-48692021D01*
X106619266Y-48674650D01*
X106627590Y-48658475D01*
X106636841Y-48643512D01*
X106647190Y-48629775D01*
X106652830Y-48623370D01*
X106658810Y-48617277D01*
X106665150Y-48611497D01*
X106671872Y-48606033D01*
X106678998Y-48600887D01*
X106686549Y-48596059D01*
X106694547Y-48591552D01*
X106703013Y-48587367D01*
X106711969Y-48583507D01*
X106721436Y-48579973D01*
X106731436Y-48576767D01*
X106741990Y-48573891D01*
X106753120Y-48571347D01*
X106764847Y-48569136D01*
X106790179Y-48565721D01*
X106818159Y-48563662D01*
X106848958Y-48562972D01*
X106866146Y-48563144D01*
X106882661Y-48563656D01*
X106898520Y-48564501D01*
X106913741Y-48565674D01*
X106928342Y-48567167D01*
X106942341Y-48568975D01*
X106955756Y-48571091D01*
X106968605Y-48573509D01*
X106980906Y-48576224D01*
X106992678Y-48579227D01*
X107003938Y-48582514D01*
X107014703Y-48586078D01*
X107024993Y-48589913D01*
X107034826Y-48594011D01*
X107044218Y-48598369D01*
X107053189Y-48602977D01*
X107061756Y-48607832D01*
X107069938Y-48612926D01*
X107077751Y-48618252D01*
X107085216Y-48623806D01*
X107092348Y-48629580D01*
X107099167Y-48635568D01*
X107105691Y-48641764D01*
X107111937Y-48648162D01*
X107117923Y-48654755D01*
X107123668Y-48661537D01*
X107134505Y-48675643D01*
X107144593Y-48690430D01*
X107154075Y-48705847D01*
X107160038Y-48691215D01*
X107166942Y-48677010D01*
X107174916Y-48663305D01*
X107184088Y-48650171D01*
X107194589Y-48637678D01*
X107206548Y-48625899D01*
X107220093Y-48614903D01*
X107235354Y-48604763D01*
X107252461Y-48595550D01*
X107271543Y-48587334D01*
X107292729Y-48580186D01*
X107316148Y-48574179D01*
X107341930Y-48569383D01*
X107370204Y-48565869D01*
X107401099Y-48563708D01*
X107434744Y-48562972D01*
X107474186Y-48564018D01*
G37*
G36*
X108446922Y-48573804D02*
G01*
X108507822Y-48575971D01*
X108562331Y-48579865D01*
X108587291Y-48582533D01*
X108610775Y-48585718D01*
X108632824Y-48589452D01*
X108653478Y-48593761D01*
X108672777Y-48598676D01*
X108690764Y-48604225D01*
X108707477Y-48610436D01*
X108722958Y-48617340D01*
X108737248Y-48624964D01*
X108750386Y-48633338D01*
X108762413Y-48642491D01*
X108773370Y-48652451D01*
X108783298Y-48663248D01*
X108792237Y-48674909D01*
X108800228Y-48687465D01*
X108807311Y-48700944D01*
X108813527Y-48715375D01*
X108818916Y-48730786D01*
X108823519Y-48747207D01*
X108827377Y-48764667D01*
X108830530Y-48783195D01*
X108833019Y-48802818D01*
X108834884Y-48823567D01*
X108836165Y-48845471D01*
X108837142Y-48892855D01*
X108836542Y-48944766D01*
X108834425Y-48991707D01*
X108830315Y-49033902D01*
X108823738Y-49071573D01*
X108819375Y-49088782D01*
X108814217Y-49104945D01*
X108808205Y-49120088D01*
X108801279Y-49134241D01*
X108793379Y-49147431D01*
X108784446Y-49159686D01*
X108774421Y-49171033D01*
X108763244Y-49181502D01*
X108750857Y-49191120D01*
X108737198Y-49199914D01*
X108722210Y-49207913D01*
X108705833Y-49215145D01*
X108688006Y-49221638D01*
X108668672Y-49227420D01*
X108647770Y-49232518D01*
X108625241Y-49236960D01*
X108575064Y-49243992D01*
X108517667Y-49248737D01*
X108452573Y-49251420D01*
X108379308Y-49252265D01*
X108310127Y-49251534D01*
X108248072Y-49249189D01*
X108192776Y-49244998D01*
X108167548Y-49242139D01*
X108143871Y-49238732D01*
X108121701Y-49234747D01*
X108100990Y-49230158D01*
X108081694Y-49224934D01*
X108063766Y-49219047D01*
X108047160Y-49212467D01*
X108031830Y-49205167D01*
X108017731Y-49197117D01*
X108004816Y-49188289D01*
X107993040Y-49178653D01*
X107982356Y-49168181D01*
X107972719Y-49156844D01*
X107964083Y-49144613D01*
X107956402Y-49131459D01*
X107949629Y-49117353D01*
X107943720Y-49102268D01*
X107938627Y-49086173D01*
X107934306Y-49069040D01*
X107930710Y-49050840D01*
X107927793Y-49031544D01*
X107925509Y-49011124D01*
X107922659Y-48966794D01*
X107921790Y-48917620D01*
X107921920Y-48907777D01*
X108163090Y-48907777D01*
X108163413Y-48932254D01*
X108164526Y-48954106D01*
X108166646Y-48973479D01*
X108169991Y-48990516D01*
X108172190Y-48998204D01*
X108174777Y-49005361D01*
X108177779Y-49012007D01*
X108181223Y-49018160D01*
X108185135Y-49023836D01*
X108189544Y-49029055D01*
X108194477Y-49033833D01*
X108199959Y-49038191D01*
X108206020Y-49042144D01*
X108212685Y-49045712D01*
X108219982Y-49048912D01*
X108227938Y-49051762D01*
X108236581Y-49054281D01*
X108245937Y-49056487D01*
X108266897Y-49060029D01*
X108291037Y-49062532D01*
X108318574Y-49064142D01*
X108349724Y-49065003D01*
X108384705Y-49065257D01*
X108417007Y-49064950D01*
X108445819Y-49063947D01*
X108471336Y-49062124D01*
X108482919Y-49060867D01*
X108493751Y-49059359D01*
X108503856Y-49057584D01*
X108513259Y-49055527D01*
X108521983Y-49053173D01*
X108530053Y-49050507D01*
X108537492Y-49047512D01*
X108544326Y-49044174D01*
X108550579Y-49040476D01*
X108556274Y-49036405D01*
X108561437Y-49031943D01*
X108566090Y-49027077D01*
X108570259Y-49021790D01*
X108573968Y-49016067D01*
X108577241Y-49009892D01*
X108580102Y-49003251D01*
X108582576Y-48996128D01*
X108584686Y-48988507D01*
X108586457Y-48980373D01*
X108587913Y-48971711D01*
X108589079Y-48962504D01*
X108589978Y-48952739D01*
X108591075Y-48931469D01*
X108591398Y-48907777D01*
X108590966Y-48882574D01*
X108589549Y-48860413D01*
X108586967Y-48841098D01*
X108585183Y-48832447D01*
X108583039Y-48824434D01*
X108580513Y-48817035D01*
X108577583Y-48810225D01*
X108574226Y-48803981D01*
X108570419Y-48798277D01*
X108566139Y-48793090D01*
X108561365Y-48788394D01*
X108556074Y-48784166D01*
X108550242Y-48780381D01*
X108543847Y-48777014D01*
X108536867Y-48774041D01*
X108529279Y-48771439D01*
X108521061Y-48769181D01*
X108502642Y-48765605D01*
X108481429Y-48763117D01*
X108457241Y-48761521D01*
X108429897Y-48760624D01*
X108365020Y-48760140D01*
X108334341Y-48760336D01*
X108306845Y-48761027D01*
X108282365Y-48762365D01*
X108260736Y-48764501D01*
X108250939Y-48765916D01*
X108241792Y-48767587D01*
X108233274Y-48769534D01*
X108225365Y-48771776D01*
X108218045Y-48774332D01*
X108211292Y-48777221D01*
X108205085Y-48780461D01*
X108199404Y-48784072D01*
X108194228Y-48788072D01*
X108189537Y-48792481D01*
X108185309Y-48797319D01*
X108181524Y-48802602D01*
X108178161Y-48808352D01*
X108175200Y-48814587D01*
X108172619Y-48821325D01*
X108170398Y-48828586D01*
X108168515Y-48836389D01*
X108166951Y-48844753D01*
X108165685Y-48853696D01*
X108164696Y-48863239D01*
X108163464Y-48884196D01*
X108163090Y-48907777D01*
X107921920Y-48907777D01*
X107922439Y-48868335D01*
X107924689Y-48823693D01*
X107928996Y-48783492D01*
X107935815Y-48747529D01*
X107940308Y-48731074D01*
X107945601Y-48715604D01*
X107951749Y-48701092D01*
X107958809Y-48687513D01*
X107966839Y-48674843D01*
X107975896Y-48663056D01*
X107986035Y-48652127D01*
X107997315Y-48642030D01*
X108009792Y-48632741D01*
X108023524Y-48624234D01*
X108038566Y-48616484D01*
X108054976Y-48609465D01*
X108072811Y-48603153D01*
X108092127Y-48597523D01*
X108112982Y-48592548D01*
X108135433Y-48588204D01*
X108185348Y-48581307D01*
X108242329Y-48576631D01*
X108306831Y-48573974D01*
X108379308Y-48573133D01*
X108446922Y-48573804D01*
G37*
G36*
X102045182Y-48889362D02*
G01*
X101889607Y-48889362D01*
X101889607Y-48551860D01*
X102383002Y-48551860D01*
X102045182Y-48889362D01*
G37*
G36*
X107721447Y-50606402D02*
G01*
X100585000Y-50606402D01*
X100585000Y-50420982D01*
X107721447Y-50420982D01*
X107721447Y-50606402D01*
G37*
G36*
X103232314Y-48578555D02*
G01*
X103285154Y-48580647D01*
X103332420Y-48584337D01*
X103354064Y-48586833D01*
X103374436Y-48589791D01*
X103393576Y-48593232D01*
X103411526Y-48597177D01*
X103428324Y-48601646D01*
X103444013Y-48606660D01*
X103458632Y-48612240D01*
X103472221Y-48618407D01*
X103484822Y-48625181D01*
X103496475Y-48632584D01*
X103507219Y-48640637D01*
X103517097Y-48649359D01*
X103526147Y-48658772D01*
X103534411Y-48668897D01*
X103541929Y-48679755D01*
X103548741Y-48691365D01*
X103554889Y-48703750D01*
X103560411Y-48716930D01*
X103565350Y-48730926D01*
X103569745Y-48745758D01*
X103573636Y-48761448D01*
X103577065Y-48778015D01*
X103582697Y-48813869D01*
X103586962Y-48853485D01*
X103350742Y-48853485D01*
X103347807Y-48842084D01*
X103344497Y-48831779D01*
X103340659Y-48822521D01*
X103336142Y-48814259D01*
X103330794Y-48806944D01*
X103327760Y-48803626D01*
X103324461Y-48800526D01*
X103320879Y-48797638D01*
X103316993Y-48794956D01*
X103312786Y-48792473D01*
X103308237Y-48790183D01*
X103298041Y-48786159D01*
X103286253Y-48782832D01*
X103272721Y-48780154D01*
X103257293Y-48778074D01*
X103239817Y-48776543D01*
X103220140Y-48775511D01*
X103198111Y-48774928D01*
X103173577Y-48774745D01*
X103110272Y-48774985D01*
X103083565Y-48775557D01*
X103059922Y-48776670D01*
X103049196Y-48777486D01*
X103039171Y-48778504D01*
X103029825Y-48779749D01*
X103021136Y-48781241D01*
X103013084Y-48783004D01*
X103005645Y-48785061D01*
X102998799Y-48787433D01*
X102992523Y-48790144D01*
X102986796Y-48793215D01*
X102981596Y-48796670D01*
X102976901Y-48800531D01*
X102972690Y-48804821D01*
X102968941Y-48809561D01*
X102965632Y-48814776D01*
X102962741Y-48820486D01*
X102960247Y-48826716D01*
X102958128Y-48833486D01*
X102956362Y-48840821D01*
X102954927Y-48848742D01*
X102953802Y-48857273D01*
X102952964Y-48866434D01*
X102952393Y-48876250D01*
X102951962Y-48897935D01*
X102952390Y-48920900D01*
X102953757Y-48941861D01*
X102956194Y-48960890D01*
X102957854Y-48969702D01*
X102959831Y-48978059D01*
X102962139Y-48985969D01*
X102964795Y-48993440D01*
X102967816Y-49000483D01*
X102971217Y-49007106D01*
X102975015Y-49013318D01*
X102979226Y-49019128D01*
X102983866Y-49024545D01*
X102988951Y-49029578D01*
X102994498Y-49034237D01*
X103000522Y-49038529D01*
X103007040Y-49042465D01*
X103014067Y-49046053D01*
X103021621Y-49049302D01*
X103029717Y-49052221D01*
X103038371Y-49054820D01*
X103047599Y-49057107D01*
X103057419Y-49059091D01*
X103067845Y-49060781D01*
X103090582Y-49063316D01*
X103115941Y-49064784D01*
X103144050Y-49065257D01*
X103176404Y-49064910D01*
X103191255Y-49064475D01*
X103205255Y-49063863D01*
X103218428Y-49063075D01*
X103230799Y-49062110D01*
X103242391Y-49060965D01*
X103253230Y-49059642D01*
X103263340Y-49058137D01*
X103272744Y-49056452D01*
X103281468Y-49054584D01*
X103289537Y-49052533D01*
X103296973Y-49050297D01*
X103303803Y-49047877D01*
X103310049Y-49045270D01*
X103315738Y-49042477D01*
X103320892Y-49039495D01*
X103325537Y-49036325D01*
X103329697Y-49032965D01*
X103333396Y-49029415D01*
X103336659Y-49025672D01*
X103339510Y-49021738D01*
X103341974Y-49017609D01*
X103344075Y-49013287D01*
X103345837Y-49008769D01*
X103347285Y-49004054D01*
X103348443Y-48999143D01*
X103349336Y-48994033D01*
X103349988Y-48988725D01*
X103350423Y-48983216D01*
X103350742Y-48971595D01*
X103586962Y-48971595D01*
X103586045Y-49012890D01*
X103583076Y-49050109D01*
X103577731Y-49083446D01*
X103574065Y-49098719D01*
X103569683Y-49113096D01*
X103564545Y-49126599D01*
X103558609Y-49139254D01*
X103551836Y-49151085D01*
X103544184Y-49162115D01*
X103535612Y-49172371D01*
X103526081Y-49181875D01*
X103515549Y-49190652D01*
X103503976Y-49198727D01*
X103491321Y-49206123D01*
X103477544Y-49212866D01*
X103462603Y-49218980D01*
X103446459Y-49224488D01*
X103410398Y-49233787D01*
X103369033Y-49240959D01*
X103322042Y-49246198D01*
X103269097Y-49249698D01*
X103209875Y-49251656D01*
X103144050Y-49252265D01*
X103081633Y-49251477D01*
X103025282Y-49248971D01*
X102974716Y-49244530D01*
X102951514Y-49241516D01*
X102929653Y-49237938D01*
X102909097Y-49233768D01*
X102889812Y-49228980D01*
X102871762Y-49223546D01*
X102854912Y-49217439D01*
X102839227Y-49210633D01*
X102824671Y-49203101D01*
X102811210Y-49194815D01*
X102798808Y-49185749D01*
X102787430Y-49175875D01*
X102777042Y-49165167D01*
X102767607Y-49153598D01*
X102759090Y-49141140D01*
X102751457Y-49127767D01*
X102744673Y-49113452D01*
X102738701Y-49098167D01*
X102733507Y-49081886D01*
X102729056Y-49064583D01*
X102725313Y-49046229D01*
X102722242Y-49026797D01*
X102719808Y-49006262D01*
X102716712Y-48961771D01*
X102715742Y-48912540D01*
X102716775Y-48863366D01*
X102720074Y-48819036D01*
X102725943Y-48779320D01*
X102729935Y-48761120D01*
X102734683Y-48743987D01*
X102740224Y-48727892D01*
X102746597Y-48712806D01*
X102753839Y-48698701D01*
X102761987Y-48685547D01*
X102771080Y-48673316D01*
X102781155Y-48661979D01*
X102792251Y-48651507D01*
X102804404Y-48641871D01*
X102817653Y-48633043D01*
X102832036Y-48624993D01*
X102847590Y-48617693D01*
X102864353Y-48611113D01*
X102882363Y-48605226D01*
X102901658Y-48600002D01*
X102944253Y-48591428D01*
X102992440Y-48585162D01*
X103046522Y-48580971D01*
X103106800Y-48578625D01*
X103173577Y-48577895D01*
X103232314Y-48578555D01*
G37*
G36*
X107721447Y-50202542D02*
G01*
X100585000Y-50202542D01*
X100585000Y-50017122D01*
X107721447Y-50017122D01*
X107721447Y-50202542D01*
G37*
G36*
X107721447Y-51817348D02*
G01*
X100585000Y-51817348D01*
X100585000Y-51631927D01*
X107721447Y-51631927D01*
X107721447Y-51817348D01*
G37*
D12*
X103721619Y-63002319D02*
X103721619Y-62002319D01*
X103721619Y-62002319D02*
X104102571Y-62002319D01*
X104102571Y-62002319D02*
X104197809Y-62049938D01*
X104197809Y-62049938D02*
X104245428Y-62097557D01*
X104245428Y-62097557D02*
X104293047Y-62192795D01*
X104293047Y-62192795D02*
X104293047Y-62335652D01*
X104293047Y-62335652D02*
X104245428Y-62430890D01*
X104245428Y-62430890D02*
X104197809Y-62478509D01*
X104197809Y-62478509D02*
X104102571Y-62526128D01*
X104102571Y-62526128D02*
X103721619Y-62526128D01*
X105197809Y-63002319D02*
X104721619Y-63002319D01*
X104721619Y-63002319D02*
X104721619Y-62002319D01*
X105531143Y-63002319D02*
X105531143Y-62002319D01*
X105531143Y-62002319D02*
X105769238Y-62002319D01*
X105769238Y-62002319D02*
X105912095Y-62049938D01*
X105912095Y-62049938D02*
X106007333Y-62145176D01*
X106007333Y-62145176D02*
X106054952Y-62240414D01*
X106054952Y-62240414D02*
X106102571Y-62430890D01*
X106102571Y-62430890D02*
X106102571Y-62573747D01*
X106102571Y-62573747D02*
X106054952Y-62764223D01*
X106054952Y-62764223D02*
X106007333Y-62859461D01*
X106007333Y-62859461D02*
X105912095Y-62954700D01*
X105912095Y-62954700D02*
X105769238Y-63002319D01*
X105769238Y-63002319D02*
X105531143Y-63002319D01*
X107150191Y-62002319D02*
X107721619Y-62002319D01*
X107435905Y-63002319D02*
X107435905Y-62002319D01*
X108245429Y-62002319D02*
X108435905Y-62002319D01*
X108435905Y-62002319D02*
X108531143Y-62049938D01*
X108531143Y-62049938D02*
X108626381Y-62145176D01*
X108626381Y-62145176D02*
X108674000Y-62335652D01*
X108674000Y-62335652D02*
X108674000Y-62668985D01*
X108674000Y-62668985D02*
X108626381Y-62859461D01*
X108626381Y-62859461D02*
X108531143Y-62954700D01*
X108531143Y-62954700D02*
X108435905Y-63002319D01*
X108435905Y-63002319D02*
X108245429Y-63002319D01*
X108245429Y-63002319D02*
X108150191Y-62954700D01*
X108150191Y-62954700D02*
X108054953Y-62859461D01*
X108054953Y-62859461D02*
X108007334Y-62668985D01*
X108007334Y-62668985D02*
X108007334Y-62335652D01*
X108007334Y-62335652D02*
X108054953Y-62145176D01*
X108054953Y-62145176D02*
X108150191Y-62049938D01*
X108150191Y-62049938D02*
X108245429Y-62002319D01*
X109102572Y-63002319D02*
X109102572Y-62002319D01*
X109102572Y-62002319D02*
X109483524Y-62002319D01*
X109483524Y-62002319D02*
X109578762Y-62049938D01*
X109578762Y-62049938D02*
X109626381Y-62097557D01*
X109626381Y-62097557D02*
X109674000Y-62192795D01*
X109674000Y-62192795D02*
X109674000Y-62335652D01*
X109674000Y-62335652D02*
X109626381Y-62430890D01*
X109626381Y-62430890D02*
X109578762Y-62478509D01*
X109578762Y-62478509D02*
X109483524Y-62526128D01*
X109483524Y-62526128D02*
X109102572Y-62526128D01*
X105918095Y-53352319D02*
X105918095Y-54161842D01*
X105918095Y-54161842D02*
X105965714Y-54257080D01*
X105965714Y-54257080D02*
X106013333Y-54304700D01*
X106013333Y-54304700D02*
X106108571Y-54352319D01*
X106108571Y-54352319D02*
X106299047Y-54352319D01*
X106299047Y-54352319D02*
X106394285Y-54304700D01*
X106394285Y-54304700D02*
X106441904Y-54257080D01*
X106441904Y-54257080D02*
X106489523Y-54161842D01*
X106489523Y-54161842D02*
X106489523Y-53352319D01*
X107489523Y-54352319D02*
X106918095Y-54352319D01*
X107203809Y-54352319D02*
X107203809Y-53352319D01*
X107203809Y-53352319D02*
X107108571Y-53495176D01*
X107108571Y-53495176D02*
X107013333Y-53590414D01*
X107013333Y-53590414D02*
X106918095Y-53638033D01*
D10*
%TO.C,kibuzzard-6781C1F4*%
G36*
X107879515Y-74337920D02*
G01*
X107918288Y-74488162D01*
X107951002Y-74637193D01*
X107980081Y-74792282D01*
X107686866Y-74792282D01*
X107717157Y-74637193D01*
X107751082Y-74488162D01*
X107789855Y-74337920D01*
X107834685Y-74176773D01*
X107879515Y-74337920D01*
G37*
G36*
X105491692Y-74141939D02*
G01*
X105574992Y-74182831D01*
X105628607Y-74256438D01*
X105646478Y-74368211D01*
X105628304Y-74486042D01*
X105573780Y-74563284D01*
X105483514Y-74605994D01*
X105358110Y-74620230D01*
X105236947Y-74620230D01*
X105236947Y-74135578D01*
X105310856Y-74129519D01*
X105384766Y-74128308D01*
X105491692Y-74141939D01*
G37*
G36*
X108608685Y-73685534D02*
G01*
X108788853Y-73740188D01*
X108954897Y-73828940D01*
X109100436Y-73948380D01*
X109219877Y-74093919D01*
X109308629Y-74259963D01*
X109363282Y-74440131D01*
X109381737Y-74627500D01*
X109363282Y-74814869D01*
X109308629Y-74995037D01*
X109219877Y-75161081D01*
X109100436Y-75306620D01*
X108954897Y-75426060D01*
X108788853Y-75514812D01*
X108608685Y-75569466D01*
X108421317Y-75587920D01*
X108421115Y-75587920D01*
X108101244Y-75587920D01*
X107134362Y-75587920D01*
X105236947Y-75587920D01*
X104938885Y-75587920D01*
X104938683Y-75587920D01*
X104751315Y-75569466D01*
X104571147Y-75514812D01*
X104405103Y-75426060D01*
X104259564Y-75306620D01*
X104140123Y-75161081D01*
X104051371Y-74995037D01*
X103996718Y-74814869D01*
X103978263Y-74627500D01*
X103996718Y-74440131D01*
X104051371Y-74259963D01*
X104140123Y-74093919D01*
X104259564Y-73948380D01*
X104311975Y-73905368D01*
X104938885Y-73905368D01*
X104938885Y-75385981D01*
X105236947Y-75385981D01*
X106191712Y-75385981D01*
X107134362Y-75385981D01*
X107253102Y-75385981D01*
X107563279Y-75385981D01*
X107631131Y-75039455D01*
X108030969Y-75039455D01*
X108101244Y-75385981D01*
X108421115Y-75385981D01*
X108381131Y-75215917D01*
X108340662Y-75050796D01*
X108299709Y-74890618D01*
X108258271Y-74735384D01*
X108216349Y-74585093D01*
X108163567Y-74402818D01*
X108110634Y-74225541D01*
X108057549Y-74053262D01*
X108004313Y-73885981D01*
X107679596Y-73885981D01*
X107628253Y-74051899D01*
X107576002Y-74222512D01*
X107522841Y-74397820D01*
X107468772Y-74577823D01*
X107425250Y-74726854D01*
X107381922Y-74882185D01*
X107338788Y-75043817D01*
X107295848Y-75211749D01*
X107253102Y-75385981D01*
X107134362Y-75385981D01*
X107134362Y-75138809D01*
X106492197Y-75138809D01*
X106492197Y-73885981D01*
X106191712Y-73885981D01*
X106191712Y-75385981D01*
X105236947Y-75385981D01*
X105236947Y-74879519D01*
X105343570Y-74879519D01*
X105522757Y-74866191D01*
X105672596Y-74826208D01*
X105793086Y-74759568D01*
X105881265Y-74663041D01*
X105934173Y-74533397D01*
X105951809Y-74370634D01*
X105934308Y-74209487D01*
X105881804Y-74081458D01*
X105794297Y-73986547D01*
X105675019Y-73921253D01*
X105527200Y-73882077D01*
X105350840Y-73869019D01*
X105256333Y-73871442D01*
X105147286Y-73877500D01*
X105037027Y-73888405D01*
X104938885Y-73905368D01*
X104311975Y-73905368D01*
X104405103Y-73828940D01*
X104571147Y-73740188D01*
X104751315Y-73685534D01*
X104938683Y-73667080D01*
X104938885Y-73667080D01*
X108421115Y-73667080D01*
X108421317Y-73667080D01*
X108608685Y-73685534D01*
G37*
D13*
%TO.C,U3*%
X97725000Y-46672500D02*
X97725000Y-79692500D01*
X99055000Y-81082500D02*
X114295000Y-81082500D01*
X100215000Y-45342500D02*
X100215000Y-81022500D01*
X100215000Y-81022500D02*
X113135000Y-81022500D01*
X105405000Y-45282500D02*
X99055000Y-45282500D01*
X105405000Y-45342500D02*
X100215000Y-45342500D01*
X107945000Y-45282500D02*
X114295000Y-45282500D01*
X113135000Y-45342500D02*
X107945000Y-45342500D01*
X113135000Y-81022500D02*
X113135000Y-45342500D01*
X115625000Y-79692500D02*
X115625000Y-46672500D01*
X97725000Y-46672500D02*
G75*
G02*
X99055000Y-45282500I1360000J30000D01*
G01*
X99055000Y-81082500D02*
G75*
G02*
X97725000Y-79692500I30000J1360000D01*
G01*
X107945000Y-45282500D02*
G75*
G02*
X105405000Y-45282500I-1270000J0D01*
G01*
X114295000Y-45282500D02*
G75*
G02*
X115625000Y-46672500I-30000J-1360000D01*
G01*
X115625000Y-79692500D02*
G75*
G02*
X114295000Y-81082500I-1360000J-30000D01*
G01*
D10*
%TO.C,kibuzzard-6781C1DF*%
G36*
X107971599Y-77322589D02*
G01*
X107632342Y-77322589D01*
X107705040Y-77184463D01*
X107791066Y-77045125D01*
X107881939Y-76913057D01*
X107971599Y-76794317D01*
X107971599Y-77322589D01*
G37*
G36*
X101924346Y-76668308D02*
G01*
X101992197Y-76750699D01*
X102028546Y-76863380D01*
X102039451Y-76985755D01*
X102038239Y-77040279D01*
X102034604Y-77087532D01*
X101952213Y-77114188D01*
X101855283Y-77123881D01*
X101747447Y-77108736D01*
X101675961Y-77063300D01*
X101622649Y-76888825D01*
X101633554Y-76791894D01*
X101667480Y-76711926D01*
X101728061Y-76657403D01*
X101818934Y-76636805D01*
X101924346Y-76668308D01*
G37*
G36*
X104337310Y-77224144D02*
G01*
X104406979Y-77270489D01*
X104457868Y-77446175D01*
X104446963Y-77530989D01*
X104413037Y-77610957D01*
X104353667Y-77671539D01*
X104266430Y-77695771D01*
X104161018Y-77665481D01*
X104094378Y-77584301D01*
X104060452Y-77469196D01*
X104050759Y-77334705D01*
X104051971Y-77288663D01*
X104055606Y-77245044D01*
X104135574Y-77218389D01*
X104230081Y-77208695D01*
X104337310Y-77224144D01*
G37*
G36*
X103149002Y-76675275D02*
G01*
X103228061Y-76776143D01*
X103263737Y-76879401D01*
X103285143Y-77009853D01*
X103292278Y-77167500D01*
X103285143Y-77326493D01*
X103263737Y-77457753D01*
X103228061Y-77561280D01*
X103149002Y-77662149D01*
X103042682Y-77695022D01*
X103040258Y-77695771D01*
X102933029Y-77662149D01*
X102853667Y-77561280D01*
X102817318Y-77457753D01*
X102795509Y-77326493D01*
X102788239Y-77167500D01*
X102789357Y-77143267D01*
X102906979Y-77143267D01*
X102943328Y-77255949D01*
X103042682Y-77303203D01*
X103138401Y-77255949D01*
X103175961Y-77143267D01*
X103138401Y-77029374D01*
X103042682Y-76980909D01*
X102943328Y-77029374D01*
X102906979Y-77143267D01*
X102789357Y-77143267D01*
X102795509Y-77009853D01*
X102817318Y-76879401D01*
X102853667Y-76776143D01*
X102933029Y-76675275D01*
X103040258Y-76641652D01*
X103149002Y-76675275D01*
G37*
G36*
X110418792Y-76675275D02*
G01*
X110497851Y-76776143D01*
X110533527Y-76879401D01*
X110554933Y-77009853D01*
X110562068Y-77167500D01*
X110554933Y-77326493D01*
X110533527Y-77457753D01*
X110497851Y-77561280D01*
X110418792Y-77662149D01*
X110312472Y-77695022D01*
X110310048Y-77695771D01*
X110202819Y-77662149D01*
X110123457Y-77561280D01*
X110087108Y-77457753D01*
X110065299Y-77326493D01*
X110058029Y-77167500D01*
X110059147Y-77143267D01*
X110176769Y-77143267D01*
X110213118Y-77255949D01*
X110312472Y-77303203D01*
X110408191Y-77255949D01*
X110445751Y-77143267D01*
X110408191Y-77029374D01*
X110312472Y-76980909D01*
X110213118Y-77029374D01*
X110176769Y-77143267D01*
X110059147Y-77143267D01*
X110065299Y-77009853D01*
X110087108Y-76879401D01*
X110123457Y-76776143D01*
X110202819Y-76675275D01*
X110310048Y-76641652D01*
X110418792Y-76675275D01*
G37*
G36*
X112220913Y-76199390D02*
G01*
X112406082Y-76255561D01*
X112576734Y-76346776D01*
X112726312Y-76469532D01*
X112849068Y-76619110D01*
X112940283Y-76789762D01*
X112996454Y-76974931D01*
X113015420Y-77167500D01*
X112996454Y-77360069D01*
X112940283Y-77545238D01*
X112849068Y-77715890D01*
X112726312Y-77865468D01*
X112576734Y-77988224D01*
X112406082Y-78079439D01*
X112220913Y-78135610D01*
X112028344Y-78154576D01*
X112028142Y-78154576D01*
X110310048Y-78154576D01*
X109430404Y-78154576D01*
X108269661Y-78154576D01*
X107181616Y-78154576D01*
X105969984Y-78154576D01*
X104273700Y-78154576D01*
X103040258Y-78154576D01*
X101433635Y-78154576D01*
X101331858Y-78154576D01*
X101331656Y-78154576D01*
X101139087Y-78135610D01*
X100953918Y-78079439D01*
X100783266Y-77988224D01*
X100633688Y-77865468D01*
X100510932Y-77715890D01*
X100419717Y-77545238D01*
X100363546Y-77360069D01*
X100344580Y-77167500D01*
X100363546Y-76974931D01*
X100388196Y-76893671D01*
X101331858Y-76893671D01*
X101358514Y-77079051D01*
X101443328Y-77230505D01*
X101593570Y-77333494D01*
X101695347Y-77361664D01*
X101816511Y-77371054D01*
X101986139Y-77329859D01*
X101900719Y-77481010D01*
X101770468Y-77585513D01*
X101607504Y-77647003D01*
X101423942Y-77669116D01*
X101433635Y-77925981D01*
X101627799Y-77911139D01*
X101803183Y-77866611D01*
X101957060Y-77793611D01*
X102086704Y-77693348D01*
X102190602Y-77565824D01*
X102267237Y-77411038D01*
X102314491Y-77230202D01*
X102319293Y-77167500D01*
X102519257Y-77167500D01*
X102527587Y-77353485D01*
X102552577Y-77514027D01*
X102594227Y-77649124D01*
X102652536Y-77758776D01*
X102754852Y-77866477D01*
X102884093Y-77931097D01*
X103040258Y-77952637D01*
X103196424Y-77931097D01*
X103325665Y-77866477D01*
X103427981Y-77758776D01*
X103486290Y-77649124D01*
X103527940Y-77514027D01*
X103552930Y-77353485D01*
X103554965Y-77308049D01*
X103757544Y-77308049D01*
X103772219Y-77509853D01*
X103816241Y-77672616D01*
X103889612Y-77796337D01*
X103990985Y-77883170D01*
X104119015Y-77935271D01*
X104273700Y-77952637D01*
X104388805Y-77940824D01*
X104486947Y-77905384D01*
X104634766Y-77783009D01*
X104720792Y-77618227D01*
X104748659Y-77441329D01*
X104723215Y-77257161D01*
X104639612Y-77104495D01*
X104490582Y-77000295D01*
X104389713Y-76971216D01*
X104268853Y-76961523D01*
X104191309Y-76972427D01*
X104101648Y-77002718D01*
X104185250Y-76845206D01*
X104319742Y-76742217D01*
X104345005Y-76733736D01*
X104974023Y-76733736D01*
X105070953Y-76980909D01*
X105218772Y-76921539D01*
X105373861Y-76835513D01*
X105373861Y-77673962D01*
X105058837Y-77673962D01*
X105058837Y-77921135D01*
X105969984Y-77921135D01*
X105969984Y-77673962D01*
X105671922Y-77673962D01*
X105671922Y-76733736D01*
X106185654Y-76733736D01*
X106282585Y-76980909D01*
X106430404Y-76921539D01*
X106585493Y-76835513D01*
X106585493Y-77673962D01*
X106270468Y-77673962D01*
X106270468Y-77921135D01*
X107181616Y-77921135D01*
X107181616Y-77673962D01*
X106883554Y-77673962D01*
X106883554Y-77349245D01*
X107346397Y-77349245D01*
X107346397Y-77567338D01*
X107971599Y-77567338D01*
X107971599Y-77921135D01*
X108269661Y-77921135D01*
X108269661Y-77567338D01*
X108432019Y-77567338D01*
X108432019Y-77446175D01*
X108766430Y-77446175D01*
X109430404Y-77446175D01*
X109430404Y-77167500D01*
X109789047Y-77167500D01*
X109797377Y-77353485D01*
X109822367Y-77514027D01*
X109864017Y-77649124D01*
X109922326Y-77758776D01*
X110024642Y-77866477D01*
X110153883Y-77931097D01*
X110310048Y-77952637D01*
X110466214Y-77931097D01*
X110595455Y-77866477D01*
X110697771Y-77758776D01*
X110756080Y-77649124D01*
X110797730Y-77514027D01*
X110822720Y-77353485D01*
X110831050Y-77167500D01*
X110822720Y-76982650D01*
X110797730Y-76823094D01*
X110770010Y-76733736D01*
X111032181Y-76733736D01*
X111129111Y-76980909D01*
X111276931Y-76921539D01*
X111432019Y-76835513D01*
X111432019Y-77673962D01*
X111116995Y-77673962D01*
X111116995Y-77921135D01*
X112028142Y-77921135D01*
X112028142Y-77673962D01*
X111730081Y-77673962D01*
X111730081Y-76421135D01*
X111526527Y-76421135D01*
X111422326Y-76515642D01*
X111293893Y-76602880D01*
X111158191Y-76678001D01*
X111032181Y-76733736D01*
X110770010Y-76733736D01*
X110756080Y-76688830D01*
X110697771Y-76579859D01*
X110595455Y-76472831D01*
X110466214Y-76408615D01*
X110310048Y-76387209D01*
X110156306Y-76408749D01*
X110027873Y-76473370D01*
X109924750Y-76581070D01*
X109865380Y-76690420D01*
X109822973Y-76824608D01*
X109797528Y-76983635D01*
X109789047Y-77167500D01*
X109430404Y-77167500D01*
X109430404Y-77152960D01*
X108766430Y-77152960D01*
X108766430Y-77446175D01*
X108432019Y-77446175D01*
X108432019Y-77322589D01*
X108269661Y-77322589D01*
X108269661Y-76421135D01*
X108003102Y-76421135D01*
X107906171Y-76524426D01*
X107809241Y-76640440D01*
X107714733Y-76763724D01*
X107625073Y-76888825D01*
X107541470Y-77013320D01*
X107465137Y-77134786D01*
X107399103Y-77248376D01*
X107346397Y-77349245D01*
X106883554Y-77349245D01*
X106883554Y-76421135D01*
X106680000Y-76421135D01*
X106575800Y-76515642D01*
X106447367Y-76602880D01*
X106311664Y-76678001D01*
X106185654Y-76733736D01*
X105671922Y-76733736D01*
X105671922Y-76421135D01*
X105468368Y-76421135D01*
X105364168Y-76515642D01*
X105235735Y-76602880D01*
X105100032Y-76678001D01*
X104974023Y-76733736D01*
X104345005Y-76733736D01*
X104489370Y-76685271D01*
X104678384Y-76665884D01*
X104661422Y-76411442D01*
X104466955Y-76425981D01*
X104290662Y-76469600D01*
X104135574Y-76541692D01*
X104004717Y-76641652D01*
X103899608Y-76768873D01*
X103821761Y-76922750D01*
X103773599Y-77102678D01*
X103757544Y-77308049D01*
X103554965Y-77308049D01*
X103561260Y-77167500D01*
X103552930Y-76982650D01*
X103527940Y-76823094D01*
X103486290Y-76688830D01*
X103427981Y-76579859D01*
X103325665Y-76472831D01*
X103196424Y-76408615D01*
X103040258Y-76387209D01*
X102886516Y-76408749D01*
X102758083Y-76473370D01*
X102654960Y-76581070D01*
X102595590Y-76690420D01*
X102553183Y-76824608D01*
X102527738Y-76983635D01*
X102519257Y-77167500D01*
X102319293Y-77167500D01*
X102330242Y-77024527D01*
X102315433Y-76837398D01*
X102271007Y-76679886D01*
X102196963Y-76551991D01*
X102094917Y-76457753D01*
X101966484Y-76401210D01*
X101811664Y-76382363D01*
X101698376Y-76394176D01*
X101600840Y-76429616D01*
X101451809Y-76550779D01*
X101362149Y-76715561D01*
X101331858Y-76893671D01*
X100388196Y-76893671D01*
X100419717Y-76789762D01*
X100510932Y-76619110D01*
X100633688Y-76469532D01*
X100783266Y-76346776D01*
X100953918Y-76255561D01*
X101139087Y-76199390D01*
X101331656Y-76180424D01*
X101331858Y-76180424D01*
X112028142Y-76180424D01*
X112028344Y-76180424D01*
X112220913Y-76199390D01*
G37*
D13*
%TO.C,U1*%
X102820000Y-54737500D02*
X102820000Y-55002500D01*
X102820000Y-70357500D02*
X102820000Y-70092500D01*
X106680000Y-54737500D02*
X102820000Y-54737500D01*
X106680000Y-54737500D02*
X110540000Y-54737500D01*
X106680000Y-70357500D02*
X102820000Y-70357500D01*
X106680000Y-70357500D02*
X110540000Y-70357500D01*
X110540000Y-54737500D02*
X110540000Y-55002500D01*
X110540000Y-70357500D02*
X110540000Y-70092500D01*
X101967500Y-55002500D02*
X101627500Y-54532500D01*
X102307500Y-54532500D01*
X101967500Y-55002500D01*
G36*
X101967500Y-55002500D02*
G01*
X101627500Y-54532500D01*
X102307500Y-54532500D01*
X101967500Y-55002500D01*
G37*
%TD*%
M02*
