M48
; DRILL file {KiCad 8.0.8} date 2025-03-10T01:42:11+0100
; FORMAT={-:-/ absolute / inch / decimal}
; #@! TF.CreationDate,2025-03-10T01:42:11+01:00
; #@! TF.GenerationSoftware,Kicad,Pcbnew,8.0.8
; #@! TF.FileFunction,Plated,1,2,PTH
FMAT,2
INCH
; #@! TA.AperFunction,Plated,PTH,ViaDrill
T1C0.0118
; #@! TA.AperFunction,Plated,PTH,ViaDrill
T2C0.0197
; #@! TA.AperFunction,Plated,PTH,ComponentDrill
T3C0.0315
%
G90
G05
T1
X3.9598Y-2.2875
X4.0169Y-2.7875
X4.081Y-2.1875
X4.081Y-2.3125
X4.111Y-2.4125
X4.141Y-2.5125
X4.231Y-2.2625
X4.3185Y-2.1875
T2
X4.1873Y-2.7375
X4.1873Y-2.8813
T3
X3.8998Y-1.8375
X3.8998Y-1.9375
X3.8998Y-2.0375
X3.8998Y-2.1375
X3.8998Y-2.2375
X3.8998Y-2.3375
X3.8998Y-2.4375
X3.8998Y-2.5375
X3.8998Y-2.6375
X3.8998Y-2.7375
X3.8998Y-2.8375
X3.8998Y-2.9375
X3.8998Y-3.0375
X3.8998Y-3.1375
X4.4998Y-1.8375
X4.4998Y-1.9375
X4.4998Y-2.0375
X4.4998Y-2.1375
X4.4998Y-2.2375
X4.4998Y-2.3375
X4.4998Y-2.4375
X4.4998Y-2.5375
X4.4998Y-2.6375
X4.4998Y-2.7375
X4.4998Y-2.8375
X4.4998Y-2.9375
X4.4998Y-3.0375
X4.4998Y-3.1375
M30
